<?xml version="1.0" encoding="UTF-8" standalone="no"?>
<svg
   xmlns:dc="http://purl.org/dc/elements/1.1/"
   xmlns:cc="http://creativecommons.org/ns#"
   xmlns:rdf="http://www.w3.org/1999/02/22-rdf-syntax-ns#"
   xmlns:svg="http://www.w3.org/2000/svg"
   xmlns="http://www.w3.org/2000/svg"
   xmlns:sodipodi="http://sodipodi.sourceforge.net/DTD/sodipodi-0.dtd"
   xmlns:inkscape="http://www.inkscape.org/namespaces/inkscape"
   id="a27520da-4319-485c-96d7-e776d7397e13"
   data-name="Layer 1"
   width="876.27165"
   height="661.47277"
   viewBox="0 0 876.27165 661.47277"
   version="1.1"
   sodipodi:docname="web.svg">
  <metadata
     id="metadata125">
    <rdf:RDF>
      <cc:Work
         rdf:about="">
        <dc:format>image/svg+xml</dc:format>
        <dc:type
           rdf:resource="http://purl.org/dc/dcmitype/StillImage" />
      </cc:Work>
    </rdf:RDF>
  </metadata>
  <defs
     id="defs123" />
  <sodipodi:namedview
     pagecolor="#ffffff"
     bordercolor="#666666"
     borderopacity="1"
     objecttolerance="10"
     gridtolerance="10"
     guidetolerance="10"
     inkscape:pageopacity="0"
     inkscape:pageshadow="2"
     inkscape:window-width="640"
     inkscape:window-height="480"
     id="namedview121"
     showgrid="false" />
  <path
     d="M825.39023,601.26062H312.55173a16.51867,16.51867,0,0,1-16.5-16.5V276.60681a12.10184,12.10184,0,0,1,12.08789-12.08838H829.59311a12.31112,12.31112,0,0,1,12.29712,12.29736V584.76062A16.51868,16.51868,0,0,1,825.39023,601.26062Z"
     transform="translate(-180.86417 -106.46046)"
     fill="#f2f2f2"
     id="path10" />
  <path
     d="M328.55173,584.76062h480.8385a16,16,0,0,0,16-16V307.21277a16,16,0,0,0-16-16H328.55173a16,16,0,0,0-16,16V568.76062A16,16,0,0,0,328.55173,584.76062Z"
     transform="translate(-180.86417 -106.46046)"
     fill="#fff"
     id="path12" />
  <path
     d="M841.66049,275.663H295.82016v-8.40039a16.57376,16.57376,0,0,1,16.56006-16.5498H825.10043a16.57368,16.57368,0,0,1,16.56006,16.5498Z"
     transform="translate(-180.86417 -106.46046)"
     fill="#6c63ff"
     id="path14" />
  <circle
     cx="145.05135"
     cy="156.7523"
     r="4.28342"
     fill="#fff"
     id="circle16" />
  <circle
     cx="161.31015"
     cy="156.7523"
     r="4.28342"
     fill="#fff"
     id="circle18" />
  <circle
     cx="177.56896"
     cy="156.7523"
     r="4.28342"
     fill="#fff"
     id="circle20" />
  <path
     d="M583.97441,528.03954h-43a9.51081,9.51081,0,0,1-9.5-9.5v-43a9.51081,9.51081,0,0,1,9.5-9.5h43a9.51081,9.51081,0,0,1,9.5,9.5v43A9.51081,9.51081,0,0,1,583.97441,528.03954Zm-43-60a7.50835,7.50835,0,0,0-7.5,7.5v43a7.50836,7.50836,0,0,0,7.5,7.5h43a7.50836,7.50836,0,0,0,7.5-7.5v-43a7.50835,7.50835,0,0,0-7.5-7.5Z"
     transform="translate(-180.86417 -106.46046)"
     fill="#ccc"
     id="path22" />
  <path
     d="M575.47441,516.03954h-26a3.00328,3.00328,0,0,1-3-3v-32a3.00328,3.00328,0,0,1,3-3h18.83935a3.0073,3.0073,0,0,1,1.8794.66162l7.16016,5.7539a2.9844,2.9844,0,0,1,1.12109,2.33838v26.2461A3.00328,3.00328,0,0,1,575.47441,516.03954Zm-26-36a1.0013,1.0013,0,0,0-1,1v32a1.0013,1.0013,0,0,0,1,1h26a1.0013,1.0013,0,0,0,1-1v-26.2461a.99457.99457,0,0,0-.37354-.77929l-7.16113-5.7544a1.00206,1.00206,0,0,0-.626-.22021Z"
     transform="translate(-180.86417 -106.46046)"
     fill="#ccc"
     id="path24" />
  <path
     d="M570.47441,492.03954h-16a1,1,0,0,1,0-2h16a1,1,0,0,1,0,2Z"
     transform="translate(-180.86417 -106.46046)"
     fill="#ccc"
     id="path26" />
  <path
     d="M570.47441,498.03954h-16a1,1,0,0,1,0-2h16a1,1,0,0,1,0,2Z"
     transform="translate(-180.86417 -106.46046)"
     fill="#ccc"
     id="path28" />
  <path
     d="M570.47441,504.03954h-16a1,1,0,0,1,0-2h16a1,1,0,0,1,0,2Z"
     transform="translate(-180.86417 -106.46046)"
     fill="#ccc"
     id="path30" />
  <path
     d="M685.97441,528.03954h-43a9.51081,9.51081,0,0,1-9.5-9.5v-43a9.51081,9.51081,0,0,1,9.5-9.5h43a9.51081,9.51081,0,0,1,9.5,9.5v43A9.51081,9.51081,0,0,1,685.97441,528.03954Zm-43-60a7.50835,7.50835,0,0,0-7.5,7.5v43a7.50836,7.50836,0,0,0,7.5,7.5h43a7.50836,7.50836,0,0,0,7.5-7.5v-43a7.50835,7.50835,0,0,0-7.5-7.5Z"
     transform="translate(-180.86417 -106.46046)"
     fill="#ccc"
     id="path32" />
  <path
     d="M678.47441,508.03954h-28a3.00328,3.00328,0,0,1-3-3v-16a3.00328,3.00328,0,0,1,3-3h28a3.00328,3.00328,0,0,1,3,3v16A3.00328,3.00328,0,0,1,678.47441,508.03954Zm-28-20a1.001,1.001,0,0,0-1,1v16a1.001,1.001,0,0,0,1,1h28a1.001,1.001,0,0,0,1-1v-16a1.001,1.001,0,0,0-1-1Z"
     transform="translate(-180.86417 -106.46046)"
     fill="#ccc"
     id="path34" />
  <path
     d="M664.47441,499.67772a3.00345,3.00345,0,0,1-1.58984-.45264l-14.94043-9.3374a1.00027,1.00027,0,0,1,1.06054-1.69629l14.94043,9.3374a1.00555,1.00555,0,0,0,1.05957,0l14.93946-9.3374a1.00027,1.00027,0,0,1,1.06054,1.69629l-14.93945,9.3374A3.00432,3.00432,0,0,1,664.47441,499.67772Z"
     transform="translate(-180.86417 -106.46046)"
     fill="#ccc"
     id="path36" />
  <path
     d="M481.97441,528.03954h-43a9.51081,9.51081,0,0,1-9.5-9.5v-43a9.51081,9.51081,0,0,1,9.5-9.5h43a9.51081,9.51081,0,0,1,9.5,9.5v43A9.51081,9.51081,0,0,1,481.97441,528.03954Zm-43-60a7.50835,7.50835,0,0,0-7.5,7.5v43a7.50836,7.50836,0,0,0,7.5,7.5h43a7.50836,7.50836,0,0,0,7.5-7.5v-43a7.50835,7.50835,0,0,0-7.5-7.5Z"
     transform="translate(-180.86417 -106.46046)"
     fill="#ccc"
     id="path38" />
  <path
     d="M474.47441,508.03954h-28a3.00328,3.00328,0,0,1-3-3v-16a3.00328,3.00328,0,0,1,3-3h28a3.00328,3.00328,0,0,1,3,3v16A3.00328,3.00328,0,0,1,474.47441,508.03954Zm-28-20a1.001,1.001,0,0,0-1,1v16a1.001,1.001,0,0,0,1,1h28a1.001,1.001,0,0,0,1-1v-16a1.001,1.001,0,0,0-1-1Z"
     transform="translate(-180.86417 -106.46046)"
     fill="#ccc"
     id="path40" />
  <path
     d="M470.03642,508.03954h-20.124a1.99958,1.99958,0,0,1-1.73194-3l6.06153-10.5a2.00022,2.00022,0,0,1,3.46435,0l3.915,6.78125,2.26807-3.92871a2.00022,2.00022,0,0,1,3.46435,0l4.415,7.64746a2,2,0,0,1-1.73242,3Zm0-2h0l-4.415-7.64746-3.13379,5.42871a.99985.99985,0,0,1-.86621.5h0a.99985.99985,0,0,1-.86621-.5l-4.78076-8.28125-6.062,10.5Z"
     transform="translate(-180.86417 -106.46046)"
     fill="#ccc"
     id="path42" />
  <circle
     cx="290.61013"
     cy="385.57888"
     r="2"
     fill="#ccc"
     id="circle44" />
  <path
     d="M846.29724,415.93324h-304a17.01917,17.01917,0,0,1-17-17v-65a17.01916,17.01916,0,0,1,17-17h304a17.01916,17.01916,0,0,1,17,17v65A17.01917,17.01917,0,0,1,846.29724,415.93324Zm-304-97a15.017,15.017,0,0,0-15,15v65a15.017,15.017,0,0,0,15,15h304a15.017,15.017,0,0,0,15-15v-65a15.017,15.017,0,0,0-15-15Z"
     transform="translate(-180.86417 -106.46046)"
     fill="#3f3d56"
     id="path74" />
  <circle
     cx="101.16464"
     cy="326.68231"
     r="23.17166"
     fill="#a0616a"
     id="circle90" />
  <path
     d="M338.91551,417.19256q.3425.27261.66395.57794a10.38021,10.38021,0,0,1-.41708,15.48365,9.72179,9.72179,0,0,1-.81382.61338l1.56823,52.94493a8.06132,8.06132,0,0,1-5.545,7.867l-.09553.02052-42.98869,4.578a8.89852,8.89852,0,1,1-1.72218-17.71279l30.64427-2.69888,5.29962-45.851a9.87574,9.87574,0,0,1-.97155-.99,10.38,10.38,0,0,1,14.3778-14.83273Z"
     transform="translate(-180.86417 -106.46046)"
     fill="#a0616a"
     id="path92" />
  <polygon
     points="139.328 649.174 150.895 649.174 156.397 604.561 139.326 604.561 139.328 649.174"
     fill="#a0616a"
     id="polygon94" />
  <path
     d="M317.24235,751.8583l22.778-.00093h.00092a14.5157,14.5157,0,0,1,14.51609,14.51587v.47171l-37.29436.00139Z"
     transform="translate(-180.86417 -106.46046)"
     fill="#2f2e41"
     id="path96" />
  <polygon
     points="24.366 633.182 34.304 639.099 61.857 603.582 47.189 594.849 24.366 633.182"
     fill="#a0616a"
     id="polygon98" />
  <path
     d="M204.6271,734.88875l19.57164,11.65289.00079.00047a14.5157,14.5157,0,0,1,5.04582,19.89892l-.24134.40531L196.95952,747.767Z"
     transform="translate(-180.86417 -106.46046)"
     fill="#2f2e41"
     id="path100" />
  <path
     d="M334.4881,739.87708H321.53641a4.23772,4.23772,0,0,1-4.22149-3.79676L304.25773,613.34293a1.41541,1.41541,0,0,0-2.69716-.433l-23.5554,52.15872-41.70358,68.00266a4.26564,4.26564,0,0,1-5.32891,1.66575l-16.66024-7.33a4.24672,4.24672,0,0,1-1.93478-6.06413l38.33707-64.19208,11.75766-54.0852c-3.69795-23.455,12.155-58.326,12.31575-58.67614l.07855-.17044,43.66751-17.06765.219.2681c17.22117,56.51377,27.715,117.3322,19.96672,208.5678A4.27417,4.27417,0,0,1,334.4881,739.87708Z"
     transform="translate(-180.86417 -106.46046)"
     fill="#2f2e41"
     id="path102" />
  <path
     d="M273.10743,549.934l-.20339-.42749c-.09719-.20454-9.807-20.68365-17.292-42.57146a32.28512,32.28512,0,0,1,2.23858-25.87344,32.6374,32.6374,0,0,1,20.81263-16.00426h0A32.677,32.677,0,0,1,316.591,484.62709c5.93722,14.84708,4.045,30.69452,2.26429,43.15723l-.03547.24967-.22711.10872Z"
     transform="translate(-180.86417 -106.46046)"
     fill="#3f3d56"
     id="path104" />
  <path
     d="M310.12378,420.05358H273.32992V404.01523c8.07584-3.20838,15.97847-5.93693,20.75551,0a16.03844,16.03844,0,0,1,16.03835,16.03833Z"
     transform="translate(-180.86417 -106.46046)"
     fill="#2f2e41"
     id="path106" />
  <path
     d="M271.29289,401.18493c-21.99607,0-28.15279,27.57121-28.15279,43.12552,0,8.67446,3.923,11.777,10.08753,12.8268l2.17708-11.611,5.09905,12.11064c1.73162.00864,3.55077-.02488,5.43671-.05989l1.72886-3.55986,3.85527,3.496c15.44087.023,27.92061,2.27382,27.92061-13.20269C299.44521,428.75614,294.04582,401.18493,271.29289,401.18493Z"
     transform="translate(-180.86417 -106.46046)"
     fill="#2f2e41"
     id="path108" />
  <path
     d="M373.86417,767.93324h-192a1,1,0,1,1,0-2h192a1,1,0,0,1,0,2Z"
     transform="translate(-180.86417 -106.46046)"
     fill="#ccc"
     id="path110" />
  <path
     d="M377.47441,438.93324h-43a9.51081,9.51081,0,0,1-9.5-9.5v-43a9.51081,9.51081,0,0,1,9.5-9.5h43a9.51081,9.51081,0,0,1,9.5,9.5v43A9.51081,9.51081,0,0,1,377.47441,438.93324Z"
     transform="translate(-180.86417 -106.46046)"
     fill="#fff"
     id="path112" />
  <path
     d="M377.47441,438.93324h-43a9.51081,9.51081,0,0,1-9.5-9.5v-43a9.51081,9.51081,0,0,1,9.5-9.5h43a9.51081,9.51081,0,0,1,9.5,9.5v43A9.51081,9.51081,0,0,1,377.47441,438.93324Zm-43-60a7.50836,7.50836,0,0,0-7.5,7.5v43a7.50836,7.50836,0,0,0,7.5,7.5h43a7.50836,7.50836,0,0,0,7.5-7.5v-43a7.50836,7.50836,0,0,0-7.5-7.5Z"
     transform="translate(-180.86417 -106.46046)"
     fill="#3f3d56"
     id="path114" />
  <path
     d="M369.97441,421.43324h-28a3.00328,3.00328,0,0,1-3-3v-21a3.00328,3.00328,0,0,1,3-3h7.88232a2.98117,2.98117,0,0,1,2.55518,1.42724l2.19824,3.57276h15.36426a3.00328,3.00328,0,0,1,3,3v16A3.00328,3.00328,0,0,1,369.97441,421.43324Z"
     transform="translate(-180.86417 -106.46046)"
     fill="#6c63ff"
     id="path116" />
  <path
     d="M369.06364,432.04239q.20986.38415.38766.79029a10.38021,10.38021,0,0,1-6.39269,14.10854,9.72022,9.72022,0,0,1-.98807.24953l-19.09943,49.40482a8.06134,8.06134,0,0,1-8.16324,5.09887l-.096-.01816-41.39664-12.46211a8.89853,8.89853,0,1,1,5.28606-16.99313l29.29033,9.40382,22.6764-40.20175a9.87622,9.87622,0,0,1-.51127-1.28942,10.38005,10.38005,0,0,1,19.0069-8.0913Z"
     transform="translate(-180.86417 -106.46046)"
     fill="#a0616a"
     id="path118" />
</svg>
