<?xml version="1.0" encoding="UTF-8" standalone="no"?>
<!-- Created with Inkscape (http://www.inkscape.org/) -->

<svg
   xmlns:dc="http://purl.org/dc/elements/1.1/"
   xmlns:cc="http://creativecommons.org/ns#"
   xmlns:rdf="http://www.w3.org/1999/02/22-rdf-syntax-ns#"
   xmlns:svg="http://www.w3.org/2000/svg"
   xmlns="http://www.w3.org/2000/svg"
   xmlns:sodipodi="http://sodipodi.sourceforge.net/DTD/sodipodi-0.dtd"
   xmlns:inkscape="http://www.inkscape.org/namespaces/inkscape"
   width="218mm"
   height="120mm"
   viewBox="0 0 772.44097 425.1966"
   id="svg6532"
   version="1.1"
   inkscape:version="0.92.4 (5da689c313, 2019-01-14)"
   inkscape:export-filename="/home/mars/flowRoot6496.png"
   inkscape:export-xdpi="90"
   inkscape:export-ydpi="90"
   sodipodi:docname="rexnote.svg">
  <defs
     id="defs6534" />
  <sodipodi:namedview
     id="base"
     pagecolor="#ffffff"
     bordercolor="#666666"
     borderopacity="1.0"
     inkscape:pageopacity="0.0"
     inkscape:pageshadow="2"
     inkscape:zoom="0.49497475"
     inkscape:cx="-224.81608"
     inkscape:cy="533.32681"
     inkscape:document-units="px"
     inkscape:current-layer="layer1"
     showgrid="false"
     inkscape:window-width="1920"
     inkscape:window-height="1016"
     inkscape:window-x="0"
     inkscape:window-y="27"
     inkscape:window-maximized="1" />
  <metadata
     id="metadata6537">
    <rdf:RDF>
      <cc:Work
         rdf:about="">
        <dc:format>image/svg+xml</dc:format>
        <dc:type
           rdf:resource="http://purl.org/dc/dcmitype/StillImage" />
        <dc:title></dc:title>
      </cc:Work>
    </rdf:RDF>
  </metadata>
  <g
     inkscape:label="Layer 1"
     inkscape:groupmode="layer"
     id="layer1"
     transform="translate(0,-627.1657)">
    <rect
       style="opacity:1;fill:#f9f9f9;fill-opacity:1;stroke:none;stroke-width:3.19745278;stroke-linecap:round;stroke-linejoin:round;stroke-miterlimit:4;stroke-dasharray:none;stroke-opacity:1;paint-order:fill markers stroke"
       id="rect824-7"
       width="758.31293"
       height="301.23355"
       x="5.3327408"
       y="687.71967" />
    <path
       style="fill:#ffffff;fill-rule:evenodd;stroke:none;stroke-width:2.82216001px;stroke-linecap:butt;stroke-linejoin:miter;stroke-opacity:1"
       d="m 116.70182,910.03079 c 0,0 -18.549783,-9.66186 -22.77101,-13.56159 -3.268979,-3.02002 -7.216594,-5.86325 -9.888464,-9.42246 -2.01154,-2.67964 -6.58558,-7.438 -9.3171,-11.56732 -2.16513,-3.27309 -3.91721,-6.81447 -5.5487,-10.38367 -2.04884,-4.48226 -4.08355,-9.02639 -5.30127,-13.8019 -0.95244,-3.73511 -1.42432,-7.63901 -1.52918,-11.46235 -0.15097,-5.50343 -0.17943,-11.31739 2.35908,-16.15114 1.28688,-2.45046 2.72212,-4.29195 4.54111,-5.35824 1.12604,-0.66009 3.77737,-1.03177 3.77737,-1.03177 l 60.811764,0.0284 48.06159,14.17711 -47.77472,12.38871 -56.105634,0.19962 c 0,0 5.12389,9.78597 8.06113,14.45655 2.90729,4.623 9.440533,13.39014 9.440533,13.39014 l 11.089721,13.24028 12.13917,10.54158 15.28759,10.84151 14.95134,8.37618 11.76065,7.25701 c 0,0 13.7394,-2.85507 17.70429,-6.75946 1.55165,-1.52803 0.31313,-5.56011 0.31313,-5.56011 l 0.0117,-2.41172 0.0117,-2.41168 0.0117,-2.4117 3.61146,-8.25871 c 0,0 -6.56711,4.25442 -10.18152,5.68417 -3.63553,1.43809 -11.38086,2.8356 -11.38086,2.8356 l -12.84837,-6.22089 -10.26461,-6.15752 -10.61017,-7.46864 -8.46865,-7.21451 -5.82459,-6.01203 -7.92662,-12.00325 44.24658,0.68881 48.81707,-26.76769 -48.74346,-27.45871 c 0,0 -53.129171,-0.7939 -79.688624,-0.35174 -7.66713,0.56535 -11.22094,5.13116 -15.02338,9.72847 -2.55131,3.08466 -3.55554,7.6189 -4.52074,11.1257 -0.96521,3.50683 -1.34824,6.6963 -1.47851,9.70219 -0.13012,3.00592 -0.13996,6.84876 -0.0275,9.23343 0.24413,5.17897 1.6824,10.94022 2.81366,15.29758 1.52498,5.8739 2.73537,9.49793 4.69648,14.01929 1.92356,4.43471 4.86102,9.15377 6.89211,12.7593 1.79532,3.18703 3.85515,6.23921 6.14372,9.09279 2.44642,3.0504 8.06203,8.52134 8.06203,8.52134 l 4.77479,4.01214 z"
       id="path5648-5-2-2-9-7"
       inkscape:connector-curvature="0"
       sodipodi:nodetypes="cssaaassscccccsccccccscccccacccccccccccazcssasaccc" />
    <path
       style="fill:#f9f9f9;fill-rule:evenodd;stroke:none;stroke-width:3.19841409px;stroke-linecap:butt;stroke-linejoin:miter;stroke-opacity:1"
       d="m 176.87722,916.37862 c 0,0 7.29631,-4.15648 10.65843,-6.65415 4.75657,-3.53359 9.32961,-7.38139 13.36718,-11.71837 3.96312,-4.25702 7.63479,-9.32488 10.53591,-13.90869 2.90112,-4.58382 4.86265,-8.6505 6.71778,-13.23788 1.12428,-2.78015 1.93555,-5.68491 2.64989,-8.59745 0.95555,-3.89619 1.67734,-8.35647 2.17878,-11.83614 0.50142,-3.47969 0.88955,-5.99048 0.94218,-9.00958 0.0989,-5.66587 -0.33145,-11.35612 -1.17771,-16.95928 -0.53898,-3.56851 -1.34959,-7.11105 -2.47324,-10.54063 -1.12263,-3.42657 -2.72142,-6.68135 -4.23982,-9.95183 -1.2679,-2.73095 -2.5747,-5.4501 -4.06313,-8.0674 -1.71469,-3.01513 -3.58839,-5.94428 -5.5942,-8.77409 -1.9483,-2.74865 -3.91416,-5.51399 -6.24193,-7.94961 -2.57722,-2.69661 -5.54993,-4.99319 -8.47965,-7.30193 -3.93212,-3.09863 -7.8523,-6.27371 -12.18953,-8.77405 -4.56696,-2.6328 -9.45142,-4.73639 -14.4271,-6.47751 -4.32283,-1.51269 -7.75998,-2.91936 -11.80906,-3.71528 -2.98531,-0.58678 -6.06362,-0.50776 -9.09556,-0.76007 -3.55272,-0.29566 -7.09489,-0.9843 -10.65846,-0.8833 -4.37867,0.12428 -8.71454,0.98649 -13.0139,1.82545 -4.2707,0.83339 -8.55375,1.74181 -12.66048,3.17988 -3.21669,1.12638 -6.277,2.67375 -9.304093,4.23982 -3.187458,1.64904 -6.255196,3.52435 -9.304021,5.41753 -2.35873,1.46468 -4.73478,2.91746 -6.94858,4.59316 -2.70764,2.04949 -7.7141,6.65415 -7.7141,6.65415 l -2.23769,2.41432 0.5889,0.94219 22.788973,0.0589 c 0,0 3.299898,-3.25241 5.257141,-4.45435 1.95506,-1.20059 5.10601,-2.98734 8.1228,-4.24284 1.75948,-0.73226 5.51489,-2.02287 8.3553,-2.75049 2.66683,-0.68315 8.12009,-1.50728 8.12009,-1.50728 0,0 7.80631,-0.99415 11.71842,-0.82445 5.89674,0.25582 11.76856,1.31477 17.48921,2.76769 3.5321,0.89708 6.97608,2.16831 10.30511,3.65094 3.08104,1.37216 6.04343,3.0225 8.89184,4.8287 2.46679,1.5642 4.81883,3.31637 7.06634,5.18197 2.62859,2.18196 5.13422,4.52266 7.47858,7.00748 2.41975,2.5647 4.78021,5.2167 6.77194,8.12635 1.64769,2.40701 2.94617,5.04076 4.23984,7.65516 1.9295,3.89953 3.8348,7.83663 5.24086,11.95396 0.99388,2.91036 1.69241,5.92406 2.23764,8.95076 0.46921,2.60473 0.76259,5.2468 0.88333,7.89071 0.17736,3.88326 0.17925,7.7944 -0.23558,11.65949 -0.43541,4.05724 -1.21413,8.09515 -2.35543,12.01285 -1.27951,4.39199 -2.96293,8.68504 -5.00533,12.77836 -1.77062,3.54857 -3.89783,6.92961 -6.242,10.1284 -2.2539,3.07569 -4.77926,5.96297 -7.4785,8.65631 -2.62086,2.61513 -8.4208,7.24299 -8.4208,7.24299 z"
       id="path5648-9-7-3-2"
       inkscape:connector-curvature="0"
       sodipodi:nodetypes="caazaazasssssssssssssssssccccssscsssssssssassssascc" />
    <path
       style="fill:#000000;stroke-width:1"
       d="m 353.28967,877.19516 c -8.49311,-2.68834 -17.83502,-11.61787 -20.47269,-19.56894 -5.63683,-16.9919 1.61618,-34.54802 17.40863,-42.13815 4.63396,-2.22715 6.83844,-2.64021 14,-2.6232 10.99178,0.0261 17.07481,2.59292 23.93592,10.10006 5.81803,6.36585 8.37975,13.12013 8.48806,22.37976 l 0.076,6.49999 -24.75001,0.26747 c -13.61246,0.14711 -24.74997,0.64306 -24.74997,1.10212 0,0.45905 1.01614,2.36369 2.25807,4.23253 2.82169,4.24598 9.88482,7.90485 15.20383,7.87592 4.12411,-0.0224 11.74472,-2.8853 12.97376,-4.87391 0.83272,-1.34738 17.56434,-1.52062 17.56434,-0.18187 0,0.50724 -1.47549,2.85676 -3.27885,5.22115 -9.479,12.42777 -23.22687,16.59124 -38.65709,11.70707 z m 28.93595,-38.7026 c 0,-1.54164 -4.44901,-7.42623 -7.0969,-9.38688 -1.57914,-1.16928 -4.97454,-2.13849 -8.66356,-2.473 -4.96084,-0.44983 -6.89582,-0.14872 -10.61539,1.6519 -4.19018,2.02843 -8.62416,7.13283 -8.62416,9.92813 0,0.7995 5.13989,1.13197 17.50001,1.13197 9.625,0 17.5,-0.38345 17.5,-0.85212 z m 196.28604,39.46125 c -9.97841,-3.26029 -16.06331,-8.45606 -21.08222,-18.00169 -2.33352,-4.43817 -2.68661,-6.28678 -2.69461,-14.10744 -0.009,-8.36303 0.23354,-9.44772 3.42063,-15.32601 3.77525,-6.9631 8.84712,-11.84966 15.93404,-15.35187 3.83882,-1.89708 6.26988,-2.29375 14.13612,-2.3066 8.92651,-0.0146 9.87942,0.19022 15.78522,3.39258 11.77903,6.38705 17.62088,16.16501 17.67973,29.5919 0.0428,9.75644 -2.9221,17.0198 -9.6163,23.5582 -8.53154,8.33299 -22.97059,12.01171 -33.56261,8.55093 z m 19.2544,-15.77727 c 11.1937,-7.67004 11.28083,-25.28938 0.16145,-32.64784 -5.76098,-3.81243 -13.68398,-3.78518 -19.50515,0.0671 -13.09191,8.66381 -10.19984,30.02818 4.71683,34.84445 3.91252,1.26327 11.10384,0.15031 14.62687,-2.2637 z m 88.57782,15.72615 c -15.67941,-5.09847 -26.294,-22.09898 -23.25284,-37.24209 2.33344,-11.619 8.2812,-19.73077 18.35043,-25.02696 4.70867,-2.47666 6.31877,-2.77818 14.78416,-2.76864 7.92676,0.009 10.28427,0.39789 14.23581,2.34865 11.07628,5.46806 17.80359,16.09815 18.57037,29.3438 l 0.44876,7.75235 -25.12454,0.26744 -25.12455,0.26744 1.74707,3.48007 c 4.6935,9.34916 19.50935,11.71879 28.09596,4.49363 2.56355,-2.15708 3.91331,-2.47369 10.54548,-2.47369 4.64364,0 7.60563,0.40878 7.60563,1.04965 0,4.02183 -8.78725,13.36839 -15.99999,17.01842 -5.66457,2.86658 -18.31804,3.62427 -24.88175,1.48993 z m 26.88175,-40.42315 c 0,-2.89147 -3.92353,-7.1957 -8.4214,-9.23853 -7.78444,-3.53552 -16.59749,-1.83159 -22.11513,4.27578 -6.02454,6.66845 -5.70844,6.82789 13.53653,6.82789 15.92361,0 17,-0.1181 17,-1.86514 z m -240.00001,-2.17239 v -43.03752 l 9.25,0.28752 9.24999,0.28753 17.00001,30.07524 17,30.07523 0.26445,-30.32523 0.26445,-30.32524 h 7.98556 7.98554 v 43.03893 43.03895 l -8.75,-0.28895 -8.75,-0.28893 -17.5,-30.43013 -17.5,-30.43016 -0.26445,30.68015 -0.26445,30.68015 h -7.98555 -7.98555 z m 160.00001,18.0979 v -24.93964 l -3.75001,-0.31037 -3.75,-0.31036 v -7 -7 l 3.75,-0.31037 3.75001,-0.31036 v -10.43964 -10.43963 h 7.5 7.49999 v 10.5 10.5 h 4.5 4.5 v 7.5 7.5 h -4.5 -4.5 v 25 25.00001 h -7.49999 -7.5 z m -365.00002,-18.6682 v -42.60782 l 18.75001,0.44634 c 20.43865,0.48654 23.14607,1.10513 29.58649,6.7599 7.23163,6.34946 10.44365,21.8976 6.43492,31.14897 -2.47303,5.70726 -8.36363,11.54683 -13.58499,13.4673 -2.57754,0.94804 -5.0325,2.01791 -5.45547,2.37748 -0.42298,0.35957 2.5086,5.12269 6.51462,10.58471 4.00602,5.46203 9.00291,12.29346 11.10421,15.18096 l 3.82056,5.24999 -9.83518,-0.0416 -9.83517,-0.0416 -10.5,-15.62081 -10.49999,-15.62082 -0.27539,15.66246 -0.2754,15.66245 h -7.97461 -7.97461 z m 31.47494,-2.49018 c 6.65967,-1.67692 9.02506,-4.81149 9.02506,-11.95983 0,-5.0126 -0.3887,-6.28541 -2.59252,-8.48923 -3.01015,-3.01014 -8.06397,-4.39549 -16.15748,-4.42907 l -5.75,-0.0239 v 13 13 h 5.55718 c 3.05646,0 7.51944,-0.4941 9.91776,-1.09801 z m 102.52507,44.52974 c 0,-0.31254 4.725,-7.47137 10.5,-15.90851 5.77499,-8.43714 10.5,-15.67758 10.5,-16.08986 0,-0.41228 -3.98106,-7.09095 -8.84681,-14.84148 -4.86575,-7.75053 -9.1673,-14.65438 -9.55903,-15.34188 -0.54579,-0.95795 1.27989,-1.25 7.81411,-1.25 h 8.5263 l 5.60096,9.51684 c 3.08053,5.23426 5.99144,9.27551 6.46869,8.98055 0.47725,-0.29496 3.18036,-4.57753 6.00691,-9.51684 l 5.13917,-8.98055 h 8.46004 c 8.0503,0 8.40995,0.0936 7.42625,1.9316 -0.56856,1.06239 -4.91722,8.1204 -9.6637,15.68449 -5.91734,9.43005 -8.35378,14.16864 -7.75141,15.07559 0.48318,0.72749 5.49742,8.06949 11.14274,16.31552 l 10.26424,14.9928 -9.26423,-0.0179 -9.26423,-0.018 -5.85696,-9.98915 c -3.22132,-5.49403 -6.2003,-10.20133 -6.61994,-10.46068 -0.41964,-0.25936 -3.60706,4.24382 -7.08315,10.00707 l -6.32014,10.47864 h -8.8099 c -4.84545,0 -8.80991,-0.25572 -8.80991,-0.56827 z"
       id="path834-2"
       inkscape:connector-curvature="0" />
    <path
       style="fill:#aa0000;fill-opacity:1;stroke-width:1"
       d="m 360.78966,880.94516 c -8.49311,-2.68835 -17.83503,-11.61787 -20.47268,-19.56894 -5.63684,-16.9919 1.61616,-34.54802 17.40863,-42.13815 4.63395,-2.22715 6.83843,-2.64021 13.99999,-2.6232 10.99178,0.0261 17.07481,2.59292 23.93592,10.10007 5.81803,6.36584 8.37974,13.12013 8.48805,22.37975 l 0.076,6.49999 -24.75,0.26747 c -13.61247,0.14711 -24.74996,0.64306 -24.74996,1.10212 0,0.45905 1.01613,2.36369 2.25806,4.23253 2.82169,4.24599 9.88483,7.90485 15.20384,7.87592 4.12409,-0.0224 11.74471,-2.88531 12.97375,-4.87391 0.83272,-1.34738 17.56434,-1.52063 17.56434,-0.18187 0,0.50724 -1.47549,2.85676 -3.27886,5.22115 -9.47901,12.42777 -23.22689,16.59125 -38.65711,11.70707 z m 28.93595,-38.70259 c 0,-1.54165 -4.44901,-7.42624 -7.0969,-9.38689 -1.57913,-1.16928 -4.97454,-2.13849 -8.66355,-2.473 -4.96085,-0.44983 -6.89583,-0.14872 -10.61541,1.6519 -4.19016,2.02843 -8.62414,7.13283 -8.62414,9.92813 0,0.7995 5.13989,1.13197 17.50001,1.13197 9.62499,0 17.49999,-0.38345 17.49999,-0.85211 z M 275.7256,838.48685 v -42.60782 l 18.75,0.44634 c 20.43866,0.48654 23.14608,1.10513 29.5865,6.7599 7.23163,6.34946 10.44365,21.8976 6.43492,31.14898 -2.47303,5.70725 -8.36364,11.54682 -13.58499,13.46729 -2.57754,0.94804 -5.03249,2.0179 -5.45547,2.37748 -0.42299,0.35957 2.50859,5.12269 6.51462,10.58471 4.00602,5.46203 9.00292,12.29345 11.10421,15.18095 l 3.82056,5.25 -9.83517,-0.0416 -9.83518,-0.0416 -10.5,-15.62081 -10.5,-15.62082 -0.27539,15.66246 -0.2754,15.66246 h -7.97459 -7.97462 z m 31.47494,-2.49018 c 6.65967,-1.67692 9.02507,-4.81149 9.02507,-11.95982 0,-5.01261 -0.38871,-6.28542 -2.59253,-8.48924 -3.01015,-3.01014 -8.06398,-4.39549 -16.15748,-4.42907 l -5.75,-0.0239 v 13 13 h 5.55718 c 3.05645,0 7.51944,-0.4941 9.91776,-1.09801 z m 102.52508,44.52975 c 0,-0.31255 4.72499,-7.47138 10.49999,-15.90852 5.77501,-8.43714 10.50001,-15.67757 10.50001,-16.08986 0,-0.41228 -3.98107,-7.09095 -8.84682,-14.84148 -4.86575,-7.75053 -9.16729,-14.65438 -9.55902,-15.34188 -0.54579,-0.95795 1.27988,-1.25 7.8141,-1.25 h 8.5263 l 5.60096,9.51684 c 3.08054,5.23426 5.99145,9.27551 6.4687,8.98055 0.47725,-0.29496 3.18034,-4.57754 6.00691,-9.51684 l 5.13916,-8.98055 h 8.46004 c 8.05031,0 8.40997,0.0936 7.42627,1.9316 -0.56858,1.06239 -4.91723,8.1204 -9.6637,15.68449 -5.91736,9.43004 -8.3538,14.16864 -7.75142,15.07559 0.48319,0.72749 5.49741,8.06949 11.14275,16.31553 l 10.26423,14.99279 -9.26424,-0.0179 -9.26422,-0.018 -5.85696,-9.98915 c -3.22133,-5.49403 -6.20032,-10.20134 -6.61994,-10.46069 -0.41964,-0.25935 -3.60705,4.24383 -7.08314,10.00708 l -6.32016,10.47864 h -8.80989 c -4.84545,0 -8.80991,-0.25572 -8.80991,-0.56827 z"
       id="path834-7-6"
       inkscape:connector-curvature="0"
       sodipodi:nodetypes="cscssccsscccscccsccssssccsssscsscccccccccccscccccscccssscsccsccscscccccccscscc" />
    <path
       style="fill:#000000;stroke:none;stroke-width:0.96951437;stroke-miterlimit:4;stroke-dasharray:none;stroke-opacity:1"
       d="m 140.61697,732.79832 a 99.463191,99.463191 0 0 0 -99.462863,99.46286 99.463191,99.463191 0 0 0 99.462863,99.46287 99.463191,99.463191 0 0 0 99.46286,-99.46287 99.463191,99.463191 0 0 0 -99.46286,-99.46286 z m -4.18762,12.94739 c 1.78178,-0.0505 3.55878,0.0965 5.33385,0.29297 1.77508,0.19649 3.54835,0.44176 5.32471,0.58959 1.51598,0.12616 3.04309,0.16939 4.56482,0.25452 1.52174,0.0851 3.03738,0.21198 4.53003,0.50537 2.02454,0.39796 3.89683,0.94911 5.8026,1.58935 1.90578,0.64025 3.84628,1.36951 6.0077,2.12586 2.48783,0.87056 4.95238,1.83141 7.36633,2.90405 2.41395,1.07263 4.77706,2.25782 7.06054,3.57422 2.16862,1.25017 4.23202,2.66834 6.24573,4.16198 2.01371,1.49365 3.97754,3.06312 5.9436,4.61243 1.46486,1.15437 2.93918,2.30482 4.37072,3.50463 1.43156,1.19983 2.82028,2.44748 4.1089,3.79578 1.16387,1.21781 2.23696,2.51867 3.26293,3.85804 1.02597,1.33937 2.00497,2.71807 2.97913,4.0924 2.00581,2.82981 3.87917,5.75929 5.59387,8.77442 1.48842,2.61729 2.7952,5.33667 4.06311,8.06761 1.5184,3.27049 3.11626,6.52522 4.23888,9.95179 1.12365,3.42958 1.93478,6.97103 2.47376,10.53955 0.42313,2.80157 0.74198,5.62461 0.943,8.4558 0.20101,2.83119 0.28382,5.67049 0.23437,8.50342 -0.0526,3.0191 -0.43974,5.53093 -0.94116,9.01062 -0.50144,3.47966 -1.22341,7.93974 -2.17896,11.83593 -0.71434,2.91254 -1.52525,5.81665 -2.64953,8.5968 -0.92756,2.29369 -1.88323,4.45802 -2.96815,6.62109 -1.08491,2.16308 -2.29944,4.32551 -3.74999,6.61743 -1.45057,2.2919 -3.09465,4.70495 -4.87061,7.07702 -1.77595,2.37207 -3.68371,4.70316 -5.66528,6.83167 -2.01878,2.16848 -4.17166,4.21389 -6.41418,6.15966 -2.24253,1.94577 -4.57422,3.79228 -6.95251,5.55908 -1.68106,1.24884 -4.34562,2.91137 -6.58997,4.2627 -0.89069,0.53629 -0.94443,0.55598 -1.61498,0.94848 -0.43201,0.36735 -0.87443,0.73479 -1.45203,1.08033 -0.75514,0.45173 -1.61686,0.88253 -2.53968,1.29089 -1.84563,0.81672 -3.93442,1.53959 -5.89966,2.1405 -3.93045,1.20184 -7.36632,1.91528 -7.36632,1.91528 l -11.75904,-7.25646 -14.95239,-8.37708 -15.28747,-10.83984 -12.13988,-10.5432 -11.088873,-13.24036 c 0,0 -6.533617,-8.76567 -9.440906,-13.38867 -2.93724,-4.67058 -8.0603,-14.458 -8.0603,-14.458 l 56.105329,-0.19958 47.77404,-12.38708 -48.06152,-14.17786 -60.811139,-0.0293 c 0,0 -0.66308,0.0937 -1.46667,0.26917 -0.80358,0.17543 -1.74777,0.4335 -2.31079,0.76355 -0.9095,0.53314 -1.72305,1.26067 -2.47009,2.16064 -0.747047,0.89997 -1.427485,1.97178 -2.070928,3.19703 -0.634622,1.20843 -1.109231,2.47948 -1.461178,3.79027 -0.351956,1.3108 -0.581268,2.661 -0.726928,4.03382 -0.291328,2.74564 -0.245775,5.57592 -0.170287,8.32763 0.05243,1.91168 0.19664,3.84337 0.446775,5.76416 0.250134,1.92078 0.605925,3.83068 1.082156,5.69824 0.608859,2.38775 1.421259,4.71785 2.338255,7.01111 0.916995,2.29325 1.938225,4.55026 2.962645,6.79138 0.81575,1.78459 1.66186,3.56209 2.57446,5.30273 0.9126,1.74063 1.89107,3.44281 2.97363,5.07935 1.36576,2.06465 3.19281,4.28741 4.92921,6.32812 1.73639,2.04071 3.38325,3.90066 4.38903,5.24047 1.33593,1.77961 2.99094,3.37951 4.720449,4.91273 1.729509,1.5332 3.532748,2.99986 5.167237,4.50988 1.05531,0.97493 3.006703,2.30862 5.339353,3.76281 2.33266,1.45421 5.04746,3.02913 7.63001,4.48059 5.16509,2.90294 9.80163,5.31739 9.80163,5.31739 l -34.832139,-2.61109 -4.77539,-4.01184 c 0,0 -1.40309,-1.36741 -3.1128,-3.11646 -1.7097,-1.74902 -3.72613,-3.88006 -4.94933,-5.40526 -2.28857,-2.85358 -4.347863,-5.90599 -6.143194,-9.09302 -1.015537,-1.80276 -2.25763,-3.88331 -3.486327,-6.06812 -1.228697,-2.18478 -2.443977,-4.4733 -3.405758,-6.69066 -0.98055,-2.26069 -1.773844,-4.29666 -2.512209,-6.50208 -0.738356,-2.20541 -1.421943,-4.57952 -2.184449,-7.51647 -0.565622,-2.17868 -1.208006,-4.70834 -1.739494,-7.3407 -0.531496,-2.63235 -0.950924,-5.36828 -1.073006,-7.95776 -0.112453,-2.38467 -0.102647,-6.22626 0.02747,-9.23217 0.06514,-1.50296 0.192112,-3.05225 0.424809,-4.6637 0.232688,-1.61146 0.570244,-3.28564 1.05285,-5.03906 0.482606,-1.7534 0.975637,-3.76456 1.666265,-5.72205 0.345309,-0.97875 0.738656,-1.94462 1.206665,-2.85827 0.468,-0.91366 1.010119,-1.77401 1.647947,-2.54517 0.950606,-1.14932 1.885237,-2.29675 2.872921,-3.38012 0.987693,-1.08338 2.028628,-2.10404 3.189702,-2.99744 1.161075,-0.89339 2.442187,-1.66 3.912955,-2.23938 1.470778,-0.57938 3.131433,-0.97011 5.048223,-1.11144 13.27972,-0.22109 33.200609,-0.13406 49.802839,0.009 16.60222,0.1432 29.88463,0.34241 29.88463,0.34241 l 48.7445,27.45848 -48.81774,26.76818 -44.24559,-0.69031 7.92663,12.0044 5.82459,6.01135 8.46862,7.21435 10.60913,7.46887 10.26489,6.15784 12.84851,6.22009 c 0,0 1.936,-0.34793 4.32678,-0.87708 2.39077,-0.52914 5.23545,-1.23836 7.05322,-1.95739 1.65489,-0.65465 3.92404,-1.93502 5.90331,-3.09448 1.36538,-1.1007 4.87343,-3.88761 7.0752,-6.0846 2.69924,-2.69332 5.22412,-5.5797 7.47802,-8.65539 1.17209,-1.5994 2.29003,-3.24418 3.33619,-4.93286 1.04615,-1.68868 2.02057,-3.42224 2.90588,-5.19654 1.02119,-2.04665 1.9526,-4.14292 2.78869,-6.27685 0.8361,-2.13393 1.57765,-4.30425 2.21741,-6.50024 0.57065,-1.95885 1.04927,-3.94824 1.44104,-5.95459 0.39177,-2.00635 0.69598,-4.03034 0.9137,-6.05896 0.2074,-1.93254 0.31136,-3.87642 0.34057,-5.82275 0.0292,-1.94633 -0.0157,-3.89577 -0.10437,-5.8374 -0.12074,-2.64391 -0.41519,-5.28528 -0.8844,-7.89001 -0.54523,-3.0267 -1.24367,-6.03983 -2.23755,-8.9502 -0.70303,-2.05866 -1.53104,-4.07257 -2.42431,-6.05896 -0.89327,-1.98638 -1.85141,-3.94622 -2.81616,-5.89599 -1.29367,-2.61439 -2.59121,-5.24679 -4.2389,-7.6538 -0.99586,-1.45483 -2.08476,-2.84583 -3.22631,-4.19312 -1.14155,-1.34729 -2.33687,-2.65258 -3.54675,-3.93493 -2.34436,-2.48482 -4.84944,-4.82549 -7.47803,-7.00744 -2.24751,-1.86561 -4.59924,-3.61769 -7.06604,-5.18189 -2.8484,-1.8062 -5.81055,-3.45633 -8.89159,-4.82849 -1.66452,-0.74131 -3.35889,-1.43002 -5.07752,-2.04529 -1.71863,-0.61527 -3.4616,-1.1573 -5.22766,-1.60583 -2.86032,-0.72646 -5.75907,-1.35456 -8.67919,-1.83289 -2.92014,-0.47833 -5.86267,-0.80592 -8.81104,-0.93383 -1.95605,-0.0849 -4.88546,0.12057 -7.32604,0.34789 -2.44059,0.22733 -4.3927,0.47607 -4.3927,0.47607 0,0 -5.45207,0.82381 -8.1189,1.50697 -2.84041,0.72762 -6.59562,2.01798 -8.3551,2.75024 -3.01679,1.2555 -6.16931,3.04379 -8.12438,4.24438 -0.97862,0.60097 -2.29219,1.71365 -3.36182,2.677 -1.069633,0.96335 -1.895143,1.77612 -1.895143,1.77612 l -22.789296,-0.0586 -0.58777,-0.94116 2.23755,-2.41516 c 0,0 5.00659,-4.60456 7.71423,-6.65405 2.2138,-1.6757 4.59011,-3.12943 6.94885,-4.59411 3.048808,-1.89318 6.116106,-3.76723 9.303579,-5.41626 3.02709,-1.56607 6.08691,-3.11435 9.30359,-4.24072 2.05337,-0.71904 4.15159,-1.30538 6.26953,-1.81641 2.11794,-0.51104 4.25687,-0.94561 6.39221,-1.36231 2.14968,-0.41947 4.30772,-0.84507 6.47644,-1.18102 2.16873,-0.33596 4.34752,-0.5824 6.53687,-0.64453 z"
       id="path5665-5-6-1-0-4"
       inkscape:connector-curvature="0" />
    <path
       style="fill:#aa0000;stroke:none;stroke-width:0.96951437;stroke-miterlimit:4;stroke-dasharray:none;stroke-opacity:1"
       d="m 146.67956,738.6011 a 99.463191,99.463191 0 0 0 -99.46287,99.46286 99.463191,99.463191 0 0 0 99.46287,99.46288 99.463191,99.463191 0 0 0 99.46287,-99.46288 99.463191,99.463191 0 0 0 -99.46287,-99.46286 z m -4.18762,12.94739 c 1.78178,-0.0505 3.55878,0.0965 5.33385,0.29297 1.77508,0.19649 3.54835,0.44176 5.3247,0.58959 1.51599,0.12616 3.0431,0.16939 4.56483,0.25452 1.52174,0.0851 3.03738,0.21198 4.53003,0.50537 2.02454,0.39796 3.89683,0.94911 5.8026,1.58935 1.90577,0.64025 3.84628,1.36951 6.0077,2.12586 2.48783,0.87056 4.95238,1.83141 7.36633,2.90405 2.41395,1.07263 4.77706,2.25782 7.06054,3.57422 2.16862,1.25017 4.23202,2.66834 6.24573,4.16198 2.0137,1.49365 3.97754,3.06312 5.9436,4.61243 1.46486,1.15437 2.93918,2.30482 4.37072,3.50463 1.43156,1.19983 2.82028,2.44748 4.1089,3.79578 1.16387,1.21781 2.23696,2.51867 3.26293,3.85804 1.02597,1.33937 2.00497,2.71807 2.97913,4.0924 2.00581,2.82981 3.87917,5.75929 5.59387,8.77442 1.48842,2.61729 2.7952,5.33667 4.06311,8.06761 1.5184,3.27049 3.11626,6.52522 4.23888,9.95179 1.12365,3.42958 1.93478,6.97103 2.47376,10.53955 0.42313,2.80157 0.74198,5.62461 0.943,8.4558 0.20101,2.8312 0.28382,5.67049 0.23437,8.50343 -0.0526,3.01909 -0.43974,5.53093 -0.94116,9.01062 -0.50144,3.47966 -1.22341,7.93974 -2.17896,11.83592 -0.71434,2.91254 -1.52525,5.81665 -2.64953,8.59681 -0.92756,2.29369 -1.88323,4.45802 -2.96815,6.62108 -1.08491,2.16309 -2.29944,4.32551 -3.74999,6.61744 -1.45057,2.29189 -3.09465,4.70494 -4.87061,7.07701 -1.77595,2.37208 -3.68371,4.70317 -5.66528,6.83168 -2.01878,2.16847 -4.17166,4.21389 -6.41418,6.15965 -2.24253,1.94577 -4.57422,3.79228 -6.95251,5.55908 -1.68106,1.24885 -4.34562,2.91137 -6.58997,4.2627 -0.8907,0.5363 -0.94443,0.55599 -1.61498,0.94849 -0.43201,0.36735 -0.87443,0.73478 -1.45203,1.08033 -0.75514,0.45172 -1.61687,0.88252 -2.53968,1.29089 -1.84563,0.81672 -3.93442,1.53959 -5.89966,2.1405 -3.93045,1.20184 -7.36632,1.91527 -7.36632,1.91527 l -11.75904,-7.25645 -14.95239,-8.37709 -15.28747,-10.83984 -12.13988,-10.54319 -11.08887,-13.24037 c 0,0 -6.533623,-8.76567 -9.440912,-13.38867 -2.937238,-4.67057 -8.060298,-14.458 -8.060298,-14.458 l 56.10533,-0.19957 47.77404,-12.38709 -48.06152,-14.17786 -60.81114,-0.0293 c 0,0 -0.66308,0.0937 -1.46667,0.26917 -0.80358,0.17543 -1.74777,0.4335 -2.31079,0.76355 -0.9095,0.53314 -1.72305,1.26067 -2.47009,2.16064 -0.74705,0.89997 -1.42749,1.97178 -2.07093,3.19703 -0.63462,1.20843 -1.10923,2.47948 -1.46118,3.79027 -0.35195,1.3108 -0.58127,2.661 -0.72693,4.03382 -0.29132,2.74564 -0.24577,5.57591 -0.17028,8.32762 0.0524,1.91169 0.19664,3.84338 0.44677,5.76416 0.25014,1.92078 0.60593,3.83068 1.08216,5.69825 0.60886,2.38774 1.42126,4.71784 2.33825,7.01111 0.917,2.29324 1.93823,4.55026 2.96265,6.79138 0.81575,1.78458 1.66186,3.56208 2.57446,5.30272 0.9126,1.74064 1.89107,3.44282 2.97363,5.07936 1.36576,2.06464 3.19281,4.28741 4.92921,6.32812 1.736391,2.0407 3.38325,3.90065 4.38903,5.24046 1.335929,1.77961 2.990938,3.37951 4.720447,4.91274 1.729513,1.53319 3.532753,2.99985 5.167243,4.50988 1.05531,0.97492 3.0067,2.30862 5.33935,3.7628 2.33266,1.45421 5.04746,3.02914 7.63001,4.48059 5.16509,2.90294 9.80163,5.3174 9.80163,5.3174 l -34.832139,-2.6111 -4.775391,-4.01183 c 0,0 -1.40309,-1.36742 -3.1128,-3.11646 -1.7097,-1.74902 -3.72613,-3.88006 -4.94933,-5.40526 -2.28857,-2.85358 -4.34786,-5.906 -6.1432,-9.09303 -1.01553,-1.80275 -2.25763,-3.88331 -3.48632,-6.06812 -1.2287,-2.18477 -2.44398,-4.47329 -3.40576,-6.69066 -0.98055,-2.26069 -1.77385,-4.29665 -2.51221,-6.50208 -0.73836,-2.20541 -1.42194,-4.57951 -2.18445,-7.51647 -0.56562,-2.17868 -1.208,-4.70833 -1.73949,-7.34069 -0.5315,-2.63235 -0.95093,-5.36829 -1.07301,-7.95776 -0.11245,-2.38467 -0.10265,-6.22627 0.0275,-9.23217 0.0651,-1.50296 0.19211,-3.05226 0.42481,-4.66371 0.23269,-1.61146 0.57024,-3.28564 1.05285,-5.03906 0.48261,-1.7534 0.97564,-3.76456 1.66626,-5.72205 0.34531,-0.97875 0.73866,-1.94462 1.20667,-2.85827 0.468,-0.91366 1.01012,-1.77401 1.64795,-2.54517 0.9506,-1.14932 1.88523,-2.29675 2.87292,-3.38012 0.98769,-1.08338 2.02863,-2.10404 3.1897,-2.99744 1.16108,-0.89339 2.44219,-1.66 3.91296,-2.23938 1.47077,-0.57938 3.13143,-0.97011 5.04822,-1.11144 13.27972,-0.22109 33.20061,-0.13406 49.80284,0.009 16.60222,0.1432 29.88463,0.34241 29.88463,0.34241 l 48.7445,27.45848 -48.81774,26.76818 -44.24559,-0.69031 7.92663,12.0044 5.82459,6.01136 8.46862,7.21435 10.60912,7.46886 10.26489,6.15785 12.84852,6.22008 c 0,0 1.936,-0.34792 4.32678,-0.87708 2.39076,-0.52913 5.23545,-1.23836 7.05322,-1.95738 1.65489,-0.65466 3.92404,-1.93502 5.90331,-3.09448 1.36538,-1.1007 4.87343,-3.88762 7.0752,-6.0846 2.69923,-2.69333 5.22412,-5.57971 7.47802,-8.65539 1.17209,-1.59941 2.29003,-3.24418 3.33619,-4.93286 1.04615,-1.68868 2.02057,-3.42224 2.90588,-5.19655 1.02119,-2.04664 1.9526,-4.14292 2.78869,-6.27685 0.8361,-2.13393 1.57765,-4.30425 2.21741,-6.50024 0.57065,-1.95885 1.04927,-3.94824 1.44104,-5.95458 0.39177,-2.00635 0.69598,-4.03034 0.9137,-6.05897 0.2074,-1.93253 0.31136,-3.87642 0.34057,-5.82274 0.0292,-1.94634 -0.0157,-3.89578 -0.10437,-5.8374 -0.12074,-2.64392 -0.41519,-5.28529 -0.8844,-7.89002 -0.54523,-3.0267 -1.24367,-6.03983 -2.23755,-8.9502 -0.70303,-2.05866 -1.53104,-4.07257 -2.42431,-6.05896 -0.89327,-1.98638 -1.85141,-3.94622 -2.81616,-5.89599 -1.29367,-2.61439 -2.59121,-5.24679 -4.2389,-7.6538 -0.99586,-1.45483 -2.08476,-2.84583 -3.22631,-4.19312 -1.14155,-1.34729 -2.33687,-2.65258 -3.54675,-3.93493 -2.34436,-2.48482 -4.84944,-4.82549 -7.47803,-7.00744 -2.24751,-1.86561 -4.59924,-3.61769 -7.06604,-5.18189 -2.8484,-1.8062 -5.81055,-3.45633 -8.89159,-4.82849 -1.66452,-0.74131 -3.35889,-1.43002 -5.07753,-2.04529 -1.71862,-0.61527 -3.46159,-1.1573 -5.22765,-1.60583 -2.86032,-0.72646 -5.75907,-1.35456 -8.67919,-1.83289 -2.92014,-0.47833 -5.86267,-0.80592 -8.81104,-0.93383 -1.95604,-0.0849 -4.88546,0.12057 -7.32604,0.34789 -2.44059,0.22733 -4.3927,0.47607 -4.3927,0.47607 0,0 -5.45207,0.82381 -8.1189,1.50697 -2.84041,0.72762 -6.59562,2.01798 -8.3551,2.75024 -3.01679,1.2555 -6.16931,3.04379 -8.12438,4.24438 -0.97862,0.60097 -2.29219,1.71365 -3.36182,2.677 -1.06963,0.96335 -1.89514,1.77612 -1.89514,1.77612 l -22.7893,-0.0586 -0.58777,-0.94116 2.23755,-2.41516 c 0,0 5.00659,-4.60456 7.714231,-6.65405 2.213799,-1.6757 4.590108,-3.12943 6.948846,-4.59411 3.048813,-1.89318 6.116113,-3.76723 9.303583,-5.41626 3.02709,-1.56607 6.08691,-3.11435 9.30359,-4.24072 2.05337,-0.71904 4.15159,-1.30538 6.26953,-1.81641 2.11794,-0.51104 4.25687,-0.94561 6.39221,-1.36231 2.14968,-0.41947 4.30772,-0.84507 6.47644,-1.18102 2.16873,-0.33596 4.34752,-0.5824 6.53687,-0.64453 z"
       id="path5665-5-6-1-0-4-1"
       inkscape:connector-curvature="0" />
  </g>
</svg>
