<?xml version="1.0" encoding="UTF-8" standalone="no"?>
<svg
   xmlns:dc="http://purl.org/dc/elements/1.1/"
   xmlns:cc="http://creativecommons.org/ns#"
   xmlns:rdf="http://www.w3.org/1999/02/22-rdf-syntax-ns#"
   xmlns:svg="http://www.w3.org/2000/svg"
   xmlns="http://www.w3.org/2000/svg"
   xmlns:sodipodi="http://sodipodi.sourceforge.net/DTD/sodipodi-0.dtd"
   xmlns:inkscape="http://www.inkscape.org/namespaces/inkscape"
   id="fb0462f1-4822-46c6-85a1-002b71cfcb82"
   data-name="Layer 1"
   width="980.49384"
   height="751.89531"
   viewBox="0 0 980.49384 751.89531"
   version="1.1"
   sodipodi:docname="blockchain5.svg"
   inkscape:version="0.92.4 (5da689c313, 2019-01-14)">
  <metadata
     id="metadata111">
    <rdf:RDF>
      <cc:Work
         rdf:about="">
        <dc:format>image/svg+xml</dc:format>
        <dc:type
           rdf:resource="http://purl.org/dc/dcmitype/StillImage" />
        <dc:title>nakamoto</dc:title>
      </cc:Work>
    </rdf:RDF>
  </metadata>
  <defs
     id="defs109" />
  <sodipodi:namedview
     pagecolor="#ffffff"
     bordercolor="#666666"
     borderopacity="1"
     objecttolerance="10"
     gridtolerance="10"
     guidetolerance="10"
     inkscape:pageopacity="0"
     inkscape:pageshadow="2"
     inkscape:window-width="794"
     inkscape:window-height="811"
     id="namedview107"
     showgrid="false"
     inkscape:snap-nodes="true"
     inkscape:zoom="0.19390524"
     inkscape:cx="526.74744"
     inkscape:cy="152.05749"
     inkscape:window-x="990"
     inkscape:window-y="108"
     inkscape:window-maximized="0"
     inkscape:current-layer="fb0462f1-4822-46c6-85a1-002b71cfcb82" />
  <title
     id="title2">nakamoto</title>
  <circle
     style="opacity:0.93000034;fill:#3f3d56;fill-opacity:1;stroke:none;stroke-width:3.85994148;stroke-linecap:round;stroke-linejoin:round;stroke-miterlimit:4;stroke-dasharray:none;stroke-opacity:1;paint-order:fill markers stroke"
     id="path842-2"
     cx="21.879969"
     cy="-1253.7686"
     r="61.885868" />
  <circle
     style="opacity:0.187;fill:#b3b3b3;fill-opacity:1;stroke:none;stroke-width:2.92147279;stroke-linecap:round;stroke-linejoin:round;stroke-miterlimit:4;stroke-dasharray:none;stroke-opacity:1;paint-order:fill markers stroke"
     id="path1022"
     cx="501.49185"
     cy="393.40082"
     r="260.7363" />
  <circle
     style="opacity:0.93000034;fill:#3f3d56;fill-opacity:1;stroke:none;stroke-width:3.85994148;stroke-linecap:round;stroke-linejoin:round;stroke-miterlimit:4;stroke-dasharray:none;stroke-opacity:1;paint-order:fill markers stroke"
     id="path842-6-4"
     cx="504.49423"
     cy="47.692554"
     r="61.885868" />
  <circle
     style="opacity:0.93000034;fill:#3f3d56;fill-opacity:1;stroke:none;stroke-width:3.85994148;stroke-linecap:round;stroke-linejoin:round;stroke-miterlimit:4;stroke-dasharray:none;stroke-opacity:1;paint-order:fill markers stroke"
     id="path842-7-5"
     cx="503.2009"
     cy="745.8515"
     r="61.885868" />
  <circle
     style="opacity:0.93000034;fill:#3f3d56;fill-opacity:1;stroke:none;stroke-width:3.85994148;stroke-linecap:round;stroke-linejoin:round;stroke-miterlimit:4;stroke-dasharray:none;stroke-opacity:1;paint-order:fill markers stroke"
     id="path842-5-0"
     cx="201.46799"
     cy="597.98505"
     r="61.885868" />
  <circle
     style="opacity:0.93000034;fill:#3f3d56;fill-opacity:1;stroke:none;stroke-width:3.85994148;stroke-linecap:round;stroke-linejoin:round;stroke-miterlimit:4;stroke-dasharray:none;stroke-opacity:1;paint-order:fill markers stroke"
     id="path842-62-6"
     cx="792.22723"
     cy="597.98505"
     r="61.885868" />
  <circle
     style="opacity:0.93000034;fill:#3f3d56;fill-opacity:1;stroke:none;stroke-width:3.85994148;stroke-linecap:round;stroke-linejoin:round;stroke-miterlimit:4;stroke-dasharray:none;stroke-opacity:1;paint-order:fill markers stroke"
     id="path842-9-1"
     cx="803.52051"
     cy="220.73235"
     r="61.885868" />
  <circle
     style="opacity:0.93000034;fill:#3f3d56;fill-opacity:1;stroke:none;stroke-width:1.18741167;stroke-linecap:round;stroke-linejoin:round;stroke-miterlimit:4;stroke-dasharray:none;stroke-opacity:1;paint-order:fill markers stroke"
     id="path842-93-3"
     cx="504.14932"
     cy="391.14886"
     r="19.037596" />
  <circle
     style="opacity:0.93000034;fill:#3f3d56;fill-opacity:1;stroke:none;stroke-width:3.85994148;stroke-linecap:round;stroke-linejoin:round;stroke-miterlimit:4;stroke-dasharray:none;stroke-opacity:1;paint-order:fill markers stroke"
     id="path842-60-2"
     cx="211.25098"
     cy="200.99529"
     r="61.885868" />
  <path
     inkscape:connector-curvature="0"
     style="fill:none;stroke:#3f3d56;stroke-width:1.39252651;stroke-miterlimit:10;stroke-dasharray:none"
     d="M 509.51374,571.0313"
     stroke-miterlimit="10"
     id="path14-5-6-6-0" />
  <path
     inkscape:connector-curvature="0"
     style="fill:#31bfff;fill-opacity:1;stroke-width:2.62400484;stroke-miterlimit:10;stroke-dasharray:none"
     d="m 505.44814,412.2197 a 22.310563,22.310563 0 1 1 22.3105,-22.3107 22.3355,22.3355 0 0 1 -22.3105,22.3107 z m 0,-41.9965 a 19.685792,19.685792 0 1 0 19.6858,19.6858 19.707737,19.707737 0 0 0 -19.6858,-19.6858 z"
     id="path26-7-4-4-2-6" />
  <ellipse
     style="opacity:0.93000034;fill:#ffffff;fill-opacity:1;stroke:none;stroke-width:3.39701724;stroke-linecap:round;stroke-linejoin:round;stroke-miterlimit:4;stroke-dasharray:none;stroke-opacity:1;paint-order:fill markers stroke"
     id="path842-6-4-4"
     cx="510.87451"
     cy="52.13903"
     rx="53.505486"
     ry="55.439419" />
  <ellipse
     style="opacity:0.93000034;fill:#ffffff;fill-opacity:1;stroke:none;stroke-width:2.99540758;stroke-linecap:round;stroke-linejoin:round;stroke-miterlimit:4;stroke-dasharray:none;stroke-opacity:1;paint-order:fill markers stroke"
     id="path842-7-5-9"
     cx="501.84549"
     cy="745.14093"
     rx="48.348328"
     ry="47.703682" />
  <ellipse
     style="opacity:0.93000034;fill:#ffffff;fill-opacity:1;stroke:none;stroke-width:3.13916469;stroke-linecap:round;stroke-linejoin:round;stroke-miterlimit:4;stroke-dasharray:none;stroke-opacity:1;paint-order:fill markers stroke"
     id="path842-5-0-2"
     cx="207.52605"
     cy="597.91901"
     rx="53.827808"
     ry="47.059036" />
  <circle
     style="opacity:0.93000034;fill:#3f3d56;fill-opacity:1;stroke:none;stroke-width:1.13054931;stroke-linecap:round;stroke-linejoin:round;stroke-miterlimit:4;stroke-dasharray:none;stroke-opacity:1;paint-order:fill markers stroke"
     id="path842-35-3-0"
     cx="347.25592"
     cy="304.60797"
     r="18.125929" />
  <ellipse
     style="opacity:0.93000034;fill:#ffffff;fill-opacity:1;stroke:none;stroke-width:2.87478161;stroke-linecap:round;stroke-linejoin:round;stroke-miterlimit:4;stroke-dasharray:none;stroke-opacity:1;paint-order:fill markers stroke"
     id="path842-62-6-6"
     cx="792.80585"
     cy="597.91925"
     rx="46.414391"
     ry="45.769749" />
  <ellipse
     style="opacity:0.93000034;fill:#ffffff;fill-opacity:1;stroke:none;stroke-width:2.80735111;stroke-linecap:round;stroke-linejoin:round;stroke-miterlimit:4;stroke-dasharray:none;stroke-opacity:1;paint-order:fill markers stroke"
     id="path842-9-1-8"
     cx="807.32245"
     cy="220.66644"
     rx="41.901882"
     ry="48.348328" />
  <circle
     style="opacity:0.93000034;fill:#3f3d56;fill-opacity:1;stroke:none;stroke-width:1.16602266;stroke-linecap:round;stroke-linejoin:round;stroke-miterlimit:4;stroke-dasharray:none;stroke-opacity:1;paint-order:fill markers stroke"
     id="path842-1-0-9"
     cx="653.8537"
     cy="305.54596"
     r="18.694668" />
  <circle
     style="opacity:0.93000034;fill:#3f3d56;fill-opacity:1;stroke:none;stroke-width:1.18267727;stroke-linecap:round;stroke-linejoin:round;stroke-miterlimit:4;stroke-dasharray:none;stroke-opacity:1;paint-order:fill markers stroke"
     id="path842-70-6-2"
     cx="503.58939"
     cy="598.71173"
     r="18.961689" />
  <circle
     style="opacity:0.93000034;fill:#3f3d56;fill-opacity:1;stroke:none;stroke-width:1.18741167;stroke-linecap:round;stroke-linejoin:round;stroke-miterlimit:4;stroke-dasharray:none;stroke-opacity:1;paint-order:fill markers stroke"
     id="path842-93-3-6"
     cx="502.14932"
     cy="389.14899"
     r="19.037596" />
  <ellipse
     style="opacity:0.93000034;fill:#ffffff;fill-opacity:1;stroke:none;stroke-width:3.27686763;stroke-linecap:round;stroke-linejoin:round;stroke-miterlimit:4;stroke-dasharray:none;stroke-opacity:1;paint-order:fill markers stroke"
     id="path842-60-2-6"
     cx="211.82951"
     cy="208.6651"
     rx="52.86084"
     ry="52.216198" />
  <path
     inkscape:connector-curvature="0"
     style="fill:none;stroke:#3f3d56;stroke-width:1.39252651;stroke-miterlimit:10;stroke-dasharray:none"
     d="M 507.51374,569.0313"
     stroke-miterlimit="10"
     id="path14-5-6-6-0-4" />
  <path
     inkscape:connector-curvature="0"
     style="fill:#31bfff;fill-opacity:1;stroke-width:2.62400484;stroke-miterlimit:10;stroke-dasharray:none"
     d="m 503.44814,410.2197 a 22.310563,22.310563 0 1 1 22.3105,-22.3107 22.3355,22.3355 0 0 1 -22.3105,22.3107 z m 0,-41.9965 a 19.685792,19.685792 0 1 0 19.6858,19.6858 19.707737,19.707737 0 0 0 -19.6858,-19.6858 z"
     id="path26-7-4-4-2-6-9" />
  <circle
     style="fill:#31bfff;fill-opacity:1;stroke-width:2.50906682;stroke-miterlimit:10;stroke-dasharray:none"
     cx="347.27063"
     cy="494.2674"
     r="20.078405"
     id="circle28-0-7-95-6-1-5" />
  <path
     d="m 795.54012,536.5198 a 59.788566,59.788566 0 1 0 59.7884,59.7887 59.964345,59.964345 0 0 0 -59.7884,-59.7887 z m 0,17.9367 a 17.936571,17.936571 0 1 1 -17.9365,17.9365 17.996746,17.996746 0 0 1 17.9365,-17.9365 z m 0,86.3484 a 43.555582,43.555582 0 0 1 -35.8732,-19.1437 c 0.287,-11.9577 23.9155,-18.5405 35.8732,-18.5405 11.9576,0 35.5859,6.5828 35.873,18.5405 a 43.628044,43.628044 0 0 1 -35.873,19.1437 z"
     id="path58-3-3-0-1-5-0"
     inkscape:connector-curvature="0"
     style="fill:#31bfff;fill-opacity:1;stroke-width:2.482162;stroke-miterlimit:10;stroke-dasharray:none" />
  <path
     style="fill:none;stroke:#31bfff;stroke-width:5.19759226;stroke-linecap:butt;stroke-linejoin:miter;stroke-miterlimit:4;stroke-dasharray:none;stroke-opacity:1"
     d="m 365.91854,292.87 126.6993,-87.3099"
     id="path841-4-8-5-4"
     inkscape:connector-curvature="0" />
  <path
     style="fill:none;stroke:#31bfff;stroke-width:5.19759226;stroke-linecap:butt;stroke-linejoin:miter;stroke-miterlimit:4;stroke-dasharray:none;stroke-opacity:1"
     d="m 358.29164,485.9748 129.0665,-87.2411"
     id="path841-3-8-7-4-8"
     inkscape:connector-curvature="0" />
  <path
     style="fill:none;stroke:#31bfff;stroke-width:5.19759226;stroke-linecap:butt;stroke-linejoin:miter;stroke-miterlimit:4;stroke-dasharray:none;stroke-opacity:1"
     d="M 521.63144,586.0052 648.35154,499.782"
     id="path841-6-7-9-7-7"
     inkscape:connector-curvature="0" />
  <path
     style="fill:none;stroke:#31bfff;stroke-width:5.19759226;stroke-linecap:butt;stroke-linejoin:miter;stroke-miterlimit:4;stroke-dasharray:none;stroke-opacity:1"
     d="m 647.93674,484.3028 -127.1448,-85.345"
     id="path841-7-1-2-6-1"
     inkscape:connector-curvature="0" />
  <path
     style="fill:none;stroke:#31bfff;stroke-width:5.19759226;stroke-linecap:butt;stroke-linejoin:miter;stroke-miterlimit:4;stroke-dasharray:none;stroke-opacity:1"
     d="M 638.23884,293.057 511.50044,206.9388"
     id="path841-7-3-7-0-5-7"
     inkscape:connector-curvature="0" />
  <path
     style="fill:none;stroke:#31bfff;stroke-width:5.19759226;stroke-linecap:butt;stroke-linejoin:miter;stroke-miterlimit:4;stroke-dasharray:none;stroke-opacity:1"
     d="M 484.90514,585.8775 357.34904,499.9366"
     id="path841-7-5-2-2-6-2"
     inkscape:connector-curvature="0" />
  <path
     style="fill:none;stroke:#31bfff;stroke-width:5.19759226;stroke-linecap:butt;stroke-linejoin:miter;stroke-miterlimit:4;stroke-dasharray:none;stroke-opacity:1"
     d="m 347.87274,480.6256 0.4711,-155.2861"
     id="path841-7-6-7-3-9-7"
     inkscape:connector-curvature="0" />
  <path
     style="fill:none;stroke:#31bfff;stroke-width:5.19759226;stroke-linecap:butt;stroke-linejoin:miter;stroke-miterlimit:4;stroke-dasharray:none;stroke-opacity:1"
     d="m 503.16884,368.0081 0.4705,-154.913"
     id="path841-7-6-2-2-7-3-2"
     inkscape:connector-curvature="0" />
  <path
     style="fill:none;stroke:#31bfff;stroke-width:5.19759226;stroke-linecap:butt;stroke-linejoin:miter;stroke-miterlimit:4;stroke-dasharray:none;stroke-opacity:1"
     d="m 654.87204,480.6612 0.471,-155.9631"
     id="path841-7-6-9-2-5-7-2"
     inkscape:connector-curvature="0" />
  <path
     style="fill:none;stroke:#31bfff;stroke-width:5.19759226;stroke-linecap:butt;stroke-linejoin:miter;stroke-miterlimit:4;stroke-dasharray:none;stroke-opacity:1"
     d="m 503.09034,671.535 0.4734,-53.8605"
     id="path841-7-6-1-6-9-4-6"
     inkscape:connector-curvature="0" />
  <path
     style="fill:none;stroke:#31bfff;stroke-width:5.19759226;stroke-linecap:butt;stroke-linejoin:miter;stroke-miterlimit:4;stroke-dasharray:none;stroke-opacity:1"
     d="m 503.55744,192.5052 0.4705,-63.10194"
     id="path841-7-6-1-2-1-2-5-1"
     inkscape:connector-curvature="0" />
  <path
     style="fill:none;stroke:#31bfff;stroke-width:5.19759226;stroke-linecap:butt;stroke-linejoin:miter;stroke-miterlimit:4;stroke-dasharray:none;stroke-opacity:1"
     d="m 330.44344,292.4188 -57.2942,-40.4544"
     id="path841-7-5-0-0-2-2-0"
     inkscape:connector-curvature="0" />
  <path
     style="fill:none;stroke:#31bfff;stroke-width:5.19759226;stroke-linecap:butt;stroke-linejoin:miter;stroke-miterlimit:4;stroke-dasharray:none;stroke-opacity:1"
     d="M 730.26922,542.3576 663.84984,496.5752"
     id="path841-7-5-0-9-6-8-5-6"
     inkscape:connector-curvature="0" />
  <path
     style="fill:none;stroke:#31bfff;stroke-width:5.19759226;stroke-linecap:butt;stroke-linejoin:miter;stroke-miterlimit:4;stroke-dasharray:none;stroke-opacity:1"
     d="m 672.44664,293.2296 58.65028,-40.9251"
     id="path841-7-5-0-3-1-9-4-1"
     inkscape:connector-curvature="0" />
  <path
     style="fill:none;stroke:#31bfff;stroke-width:5.19759226;stroke-linecap:butt;stroke-linejoin:miter;stroke-miterlimit:4;stroke-dasharray:none;stroke-opacity:1"
     d="m 274.70394,542.6069 66.4194,-45.7825"
     id="path841-7-5-0-3-0-5-7-7-5"
     inkscape:connector-curvature="0" />
  <path
     d="m 805.10802,159.6171 a 59.788566,59.788566 0 1 0 59.7884,59.7886 59.964345,59.964345 0 0 0 -59.7884,-59.7886 z m 0,17.9366 a 17.936571,17.936571 0 1 1 -17.9365,17.9366 17.996746,17.996746 0 0 1 17.9365,-17.9366 z m 0,86.3483 a 43.555582,43.555582 0 0 1 -35.8732,-19.1435 c 0.287,-11.9578 23.9155,-18.5405 35.8732,-18.5405 11.9576,0 35.5858,6.5827 35.873,18.5405 a 43.628044,43.628044 0 0 1 -35.873,19.1435 z"
     id="path58-3-3-6-9-3-4-9"
     inkscape:connector-curvature="0"
     style="fill:#31bfff;fill-opacity:1;stroke-width:2.482162;stroke-miterlimit:10;stroke-dasharray:none" />
  <path
     d="m 505.78764,-10.14664 a 59.788566,59.788566 0 1 0 59.7885,59.7886 59.964345,59.964345 0 0 0 -59.7885,-59.7886 z m 0,17.9366 a 17.936571,17.936571 0 1 1 -17.9365,17.9365 17.996746,17.996746 0 0 1 17.9365,-17.9365 z m 0,86.3483 a 43.555582,43.555582 0 0 1 -35.8731,-19.1436 c 0.287,-11.9577 23.9154,-18.5404 35.8731,-18.5404 11.9576,0 35.5859,6.5827 35.8731,18.5404 a 43.628044,43.628044 0 0 1 -35.8731,19.1436 z"
     id="path58-3-3-2-4-6-4-4"
     inkscape:connector-curvature="0"
     style="fill:#31bfff;fill-opacity:1;stroke-width:2.482162;stroke-miterlimit:10;stroke-dasharray:none" />
  <path
     d="m 504.67084,685.6613 a 59.788566,59.788566 0 1 0 59.7884,59.7887 59.964345,59.964345 0 0 0 -59.7884,-59.7887 z m 0,17.9367 a 17.936571,17.936571 0 1 1 -17.9365,17.9365 17.996746,17.996746 0 0 1 17.9365,-17.9365 z m 0,86.3483 a 43.555582,43.555582 0 0 1 -35.8732,-19.1436 c 0.287,-11.9577 23.9155,-18.5405 35.8732,-18.5405 11.9576,0 35.5859,6.5828 35.873,18.5405 a 43.628044,43.628044 0 0 1 -35.873,19.1436 z"
     id="path58-3-3-61-9-1-3-9"
     inkscape:connector-curvature="0"
     style="fill:#31bfff;fill-opacity:1;stroke-width:2.482162;stroke-miterlimit:10;stroke-dasharray:none" />
  <path
     d="m 206.46734,534.8843 a 59.788566,59.788566 0 1 0 59.7885,59.7886 59.964345,59.964345 0 0 0 -59.7885,-59.7886 z m 0,17.9366 a 17.936571,17.936571 0 1 1 -17.9365,17.9365 17.996746,17.996746 0 0 1 17.9365,-17.9365 z m 0,86.3484 a 43.555582,43.555582 0 0 1 -35.8732,-19.1437 c 0.287,-11.9577 23.9155,-18.5405 35.8732,-18.5405 11.9576,0 35.58591,6.5828 35.87301,18.5405 a 43.628044,43.628044 0 0 1 -35.87301,19.1437 z"
     id="path58-3-3-8-0-2-0-0"
     inkscape:connector-curvature="0"
     style="fill:#31bfff;fill-opacity:1;stroke-width:2.482162;stroke-miterlimit:10;stroke-dasharray:none" />
  <path
     d="m 213.16854,142.8641 a 59.788566,59.788566 0 1 0 59.7885,59.7886 59.964345,59.964345 0 0 0 -59.7885,-59.7886 z m 0,17.9366 a 17.936571,17.936571 0 1 1 -17.9365,17.9365 17.996746,17.996746 0 0 1 17.9365,-17.9365 z m 0,86.3484 a 43.555582,43.555582 0 0 1 -35.8732,-19.1436 c 0.287,-11.9578 23.9155,-18.5405 35.8732,-18.5405 11.9576,0 35.5859,6.5827 35.873,18.5405 a 43.628044,43.628044 0 0 1 -35.873,19.1436 z"
     id="path58-3-3-7-9-9-7-9"
     inkscape:connector-curvature="0"
     style="fill:#31bfff;fill-opacity:1;stroke-width:2.482162;stroke-miterlimit:10;stroke-dasharray:none" />
  <circle
     style="fill:#31bfff;fill-opacity:1;stroke-width:2.50906682;stroke-miterlimit:10;stroke-dasharray:none"
     cx="654.61011"
     cy="490.80426"
     r="20.078405"
     id="circle28-0-7-9-1-3-8-1" />
  <circle
     style="fill:#31bfff;fill-opacity:1;stroke-width:2.50906682;stroke-miterlimit:10;stroke-dasharray:none"
     cx="503.59518"
     cy="205.33307"
     r="20.078405"
     id="circle28-0-7-2-7-1-6-7" />
  <path
     inkscape:connector-curvature="0"
     style="fill:#31bfff;fill-opacity:1;stroke-width:2.62400484;stroke-miterlimit:10;stroke-dasharray:none"
     d="m 348.30944,326.0396 a 22.310563,22.310563 0 1 1 22.3105,-22.3107 22.3355,22.3355 0 0 1 -22.3105,22.3107 z m 0,-41.9965 a 19.685792,19.685792 0 1 0 19.6858,19.6858 19.707737,19.707737 0 0 0 -19.6858,-19.6858 z"
     id="path26-7-4-7-7-9-8-7" />
  <path
     inkscape:connector-curvature="0"
     style="fill:#31bfff;fill-opacity:1;stroke-width:2.62400484;stroke-miterlimit:10;stroke-dasharray:none"
     d="m 503.55394,618.6587 a 22.310563,22.310563 0 1 1 22.3105,-22.3106 22.3355,22.3355 0 0 1 -22.3105,22.3106 z m 0,-41.9965 a 19.685792,19.685792 0 1 0 19.6858,19.6859 19.707737,19.707737 0 0 0 -19.6858,-19.6859 z"
     id="path26-7-4-5-1-4-8-1" />
  <path
     inkscape:connector-curvature="0"
     style="fill:#31bfff;fill-opacity:1;stroke-width:2.62400484;stroke-miterlimit:10;stroke-dasharray:none"
     d="m 655.39064,327.2137 a 22.310563,22.310563 0 1 1 22.3105,-22.3107 22.3355,22.3355 0 0 1 -22.3105,22.3107 z m 0,-41.9965 a 19.685792,19.685792 0 1 0 19.6858,19.6858 19.707737,19.707737 0 0 0 -19.6858,-19.6858 z"
     id="path26-7-4-9-1-7-4-1" />
</svg>
