<?xml version="1.0" encoding="UTF-8" standalone="no"?>
<svg
   xmlns:dc="http://purl.org/dc/elements/1.1/"
   xmlns:cc="http://creativecommons.org/ns#"
   xmlns:rdf="http://www.w3.org/1999/02/22-rdf-syntax-ns#"
   xmlns:svg="http://www.w3.org/2000/svg"
   xmlns="http://www.w3.org/2000/svg"
   xmlns:sodipodi="http://sodipodi.sourceforge.net/DTD/sodipodi-0.dtd"
   xmlns:inkscape="http://www.inkscape.org/namespaces/inkscape"
   id="fb0462f1-4822-46c6-85a1-002b71cfcb82"
   data-name="Layer 1"
   width="1004.4938"
   height="1000.8953"
   viewBox="0 0 1004.4943 1000.8953"
   version="1.1"
   sodipodi:docname="blockchain.svg"
   inkscape:version="0.92.4 (5da689c313, 2019-01-14)">
  <metadata
     id="metadata111">
    <rdf:RDF>
      <cc:Work
         rdf:about="">
        <dc:format>image/svg+xml</dc:format>
        <dc:type
           rdf:resource="http://purl.org/dc/dcmitype/StillImage" />
        <dc:title>nakamoto</dc:title>
      </cc:Work>
    </rdf:RDF>
  </metadata>
  <defs
     id="defs109" />
  <sodipodi:namedview
     pagecolor="#ffffff"
     bordercolor="#666666"
     borderopacity="1"
     objecttolerance="10"
     gridtolerance="10"
     guidetolerance="10"
     inkscape:pageopacity="0"
     inkscape:pageshadow="2"
     inkscape:window-width="1920"
     inkscape:window-height="1016"
     id="namedview107"
     showgrid="false"
     inkscape:snap-nodes="true"
     inkscape:zoom="0.38781049"
     inkscape:cx="-58.601697"
     inkscape:cy="261.21178"
     inkscape:window-x="0"
     inkscape:window-y="27"
     inkscape:window-maximized="1"
     inkscape:current-layer="fb0462f1-4822-46c6-85a1-002b71cfcb82" />
  <title
     id="title2">nakamoto</title>
  <path
     inkscape:connector-curvature="0"
     style="fill:none;stroke:#3f3d56;stroke-width:1.39252651;stroke-miterlimit:10;stroke-dasharray:none"
     d="M 513.97052,664.44176"
     stroke-miterlimit="10"
     id="path14-5" />
  <path
     inkscape:connector-curvature="0"
     style="fill:#31bfff;fill-opacity:1;stroke-width:2.62400484;stroke-miterlimit:10;stroke-dasharray:none"
     d="m 509.90486,505.63014 a 22.310563,22.310563 0 1 1 22.31049,-22.31066 22.3355,22.3355 0 0 1 -22.31049,22.31066 z m 0,-41.99647 a 19.685792,19.685792 0 1 0 19.68584,19.68581 19.707737,19.707737 0 0 0 -19.68584,-19.68581 z"
     id="path26-7-4" />
  <circle
     style="fill:#31bfff;fill-opacity:1;stroke-width:2.50906682;stroke-miterlimit:10;stroke-dasharray:none"
     cx="353.72733"
     cy="589.67773"
     r="20.078405"
     id="circle28-0-7" />
  <path
     d="m 801.99686,631.93032 a 59.788566,59.788566 0 1 0 59.78847,59.78862 59.964345,59.964345 0 0 0 -59.78847,-59.78862 z m 0,17.93667 a 17.936571,17.936571 0 1 1 -17.9365,17.93649 17.996746,17.996746 0 0 1 17.9365,-17.93649 z m 0,86.34835 a 43.555582,43.555582 0 0 1 -35.87317,-19.14366 c 0.28701,-11.95773 23.91545,-18.54049 35.87317,-18.54049 11.95759,0 35.58588,6.58276 35.87303,18.54049 a 43.628044,43.628044 0 0 1 -35.87303,19.14366 z"
     id="path58-3-3"
     inkscape:connector-curvature="0"
     style="fill:#31bfff;fill-opacity:1;stroke-width:2.482162;stroke-miterlimit:10;stroke-dasharray:none" />
  <path
     style="fill:none;stroke:#31bfff;stroke-width:5.19759226;stroke-linecap:butt;stroke-linejoin:miter;stroke-miterlimit:4;stroke-dasharray:none;stroke-opacity:1"
     d="M 372.37524,388.28049 499.07459,300.9705"
     id="path841"
     inkscape:connector-curvature="0" />
  <path
     style="fill:none;stroke:#31bfff;stroke-width:5.19759226;stroke-linecap:butt;stroke-linejoin:miter;stroke-miterlimit:4;stroke-dasharray:none;stroke-opacity:1"
     d="M 364.74841,581.3853 493.8149,494.14414"
     id="path841-3"
     inkscape:connector-curvature="0" />
  <path
     style="fill:none;stroke:#31bfff;stroke-width:5.19759226;stroke-linecap:butt;stroke-linejoin:miter;stroke-miterlimit:4;stroke-dasharray:none;stroke-opacity:1"
     d="M 528.08821,681.41563 654.80824,595.19252"
     id="path841-6"
     inkscape:connector-curvature="0" />
  <path
     style="fill:none;stroke:#31bfff;stroke-width:5.19759226;stroke-linecap:butt;stroke-linejoin:miter;stroke-miterlimit:4;stroke-dasharray:none;stroke-opacity:1"
     d="M 654.39347,579.71324 527.24871,494.36828"
     id="path841-7"
     inkscape:connector-curvature="0" />
  <path
     style="fill:none;stroke:#31bfff;stroke-width:5.19759226;stroke-linecap:butt;stroke-linejoin:miter;stroke-miterlimit:4;stroke-dasharray:none;stroke-opacity:1"
     d="M 644.69554,388.4675 517.95722,302.34913"
     id="path841-7-3"
     inkscape:connector-curvature="0" />
  <path
     style="fill:none;stroke:#31bfff;stroke-width:5.19759226;stroke-linecap:butt;stroke-linejoin:miter;stroke-miterlimit:4;stroke-dasharray:none;stroke-opacity:1"
     d="M 491.3619,681.28793 363.80577,595.34707"
     id="path841-7-5"
     inkscape:connector-curvature="0" />
  <path
     style="fill:none;stroke:#31bfff;stroke-width:5.19759226;stroke-linecap:butt;stroke-linejoin:miter;stroke-miterlimit:4;stroke-dasharray:none;stroke-opacity:1"
     d="m 354.32952,576.03604 0.4711,-155.28608"
     id="path841-7-6"
     inkscape:connector-curvature="0" />
  <path
     style="fill:none;stroke:#31bfff;stroke-width:5.19759226;stroke-linecap:butt;stroke-linejoin:miter;stroke-miterlimit:4;stroke-dasharray:none;stroke-opacity:1"
     d="m 509.62561,463.41859 0.47047,-154.91316"
     id="path841-7-6-2"
     inkscape:connector-curvature="0" />
  <path
     style="fill:none;stroke:#31bfff;stroke-width:5.19759226;stroke-linecap:butt;stroke-linejoin:miter;stroke-miterlimit:4;stroke-dasharray:none;stroke-opacity:1"
     d="m 661.32874,576.07171 0.47105,-155.96309"
     id="path841-7-6-9"
     inkscape:connector-curvature="0" />
  <path
     style="fill:none;stroke:#31bfff;stroke-width:5.19759226;stroke-linecap:butt;stroke-linejoin:miter;stroke-miterlimit:4;stroke-dasharray:none;stroke-opacity:1"
     d="m 509.54705,766.94543 0.47343,-53.86048"
     id="path841-7-6-1"
     inkscape:connector-curvature="0" />
  <path
     style="fill:none;stroke:#31bfff;stroke-width:5.19759226;stroke-linecap:butt;stroke-linejoin:miter;stroke-miterlimit:4;stroke-dasharray:none;stroke-opacity:1"
     d="m 510.01417,287.91556 0.47047,-63.10181"
     id="path841-7-6-1-2"
     inkscape:connector-curvature="0" />
  <path
     style="fill:none;stroke:#31bfff;stroke-width:5.19759226;stroke-linecap:butt;stroke-linejoin:miter;stroke-miterlimit:4;stroke-dasharray:none;stroke-opacity:1"
     d="m 336.90016,387.8293 -57.2942,-40.45444"
     id="path841-7-5-0"
     inkscape:connector-curvature="0" />
  <path
     style="fill:none;stroke:#31bfff;stroke-width:5.19759226;stroke-linecap:butt;stroke-linejoin:miter;stroke-miterlimit:4;stroke-dasharray:none;stroke-opacity:1"
     d="m 736.72602,637.76806 -66.4194,-45.78242"
     id="path841-7-5-0-9"
     inkscape:connector-curvature="0" />
  <path
     style="fill:none;stroke:#31bfff;stroke-width:5.19759226;stroke-linecap:butt;stroke-linejoin:miter;stroke-miterlimit:4;stroke-dasharray:none;stroke-opacity:1"
     d="m 678.9034,388.64007 58.65031,-40.92506"
     id="path841-7-5-0-3"
     inkscape:connector-curvature="0" />
  <path
     style="fill:none;stroke:#31bfff;stroke-width:5.19759226;stroke-linecap:butt;stroke-linejoin:miter;stroke-miterlimit:4;stroke-dasharray:none;stroke-opacity:1"
     d="m 281.16066,638.01733 66.4194,-45.78242"
     id="path841-7-5-0-3-0"
     inkscape:connector-curvature="0" />
  <path
     d="m 811.56476,255.02747 a 59.788566,59.788566 0 1 0 59.78843,59.78862 59.964345,59.964345 0 0 0 -59.78843,-59.78862 z m 0,17.93667 a 17.936571,17.936571 0 1 1 -17.9365,17.93649 17.996746,17.996746 0 0 1 17.9365,-17.93649 z m 0,86.34835 a 43.555582,43.555582 0 0 1 -35.87317,-19.14366 c 0.28701,-11.95773 23.91546,-18.54049 35.87317,-18.54049 11.95759,0 35.58584,6.58276 35.87301,18.54049 a 43.628044,43.628044 0 0 1 -35.87301,19.14366 z"
     id="path58-3-3-6"
     inkscape:connector-curvature="0"
     style="fill:#31bfff;fill-opacity:1;stroke-width:2.482162;stroke-miterlimit:10;stroke-dasharray:none" />
  <path
     d="m 512.24442,85.26367 a 59.788566,59.788566 0 1 0 59.78847,59.78862 59.964345,59.964345 0 0 0 -59.78847,-59.78862 z m 0,17.93667 a 17.936571,17.936571 0 1 1 -17.9365,17.93649 17.996746,17.996746 0 0 1 17.9365,-17.93649 z m 0,86.34851 a 43.555582,43.555582 0 0 1 -35.87317,-19.14382 c 0.28701,-11.95773 23.91545,-18.54049 35.87317,-18.54049 11.95759,0 35.58588,6.58276 35.87303,18.54049 a 43.628044,43.628044 0 0 1 -35.87303,19.14382 z"
     id="path58-3-3-2"
     inkscape:connector-curvature="0"
     style="fill:#31bfff;fill-opacity:1;stroke-width:2.482162;stroke-miterlimit:10;stroke-dasharray:none" />
  <path
     d="m 511.12756,781.07179 a 59.788566,59.788566 0 1 0 59.78847,59.78865 59.964345,59.964345 0 0 0 -59.78847,-59.78865 z m 0,17.93667 a 17.936571,17.936571 0 1 1 -17.9365,17.93647 17.996746,17.996746 0 0 1 17.9365,-17.93647 z m 0,86.34834 a 43.555582,43.555582 0 0 1 -35.87317,-19.14363 c 0.28701,-11.95775 23.91546,-18.5405 35.87317,-18.5405 11.95759,0 35.58588,6.58275 35.87303,18.5405 a 43.628044,43.628044 0 0 1 -35.87303,19.14363 z"
     id="path58-3-3-61"
     inkscape:connector-curvature="0"
     style="fill:#31bfff;fill-opacity:1;stroke-width:2.482162;stroke-miterlimit:10;stroke-dasharray:none" />
  <path
     d="m 212.92409,630.29475 a 59.788566,59.788566 0 1 0 59.78848,59.78862 59.964345,59.964345 0 0 0 -59.78848,-59.78862 z m 0,17.93667 a 17.936571,17.936571 0 1 1 -17.93649,17.93649 17.996746,17.996746 0 0 1 17.93649,-17.93649 z m 0,86.34835 a 43.555582,43.555582 0 0 1 -35.87317,-19.14366 c 0.28701,-11.95773 23.91546,-18.54049 35.87317,-18.54049 11.95759,0 35.58588,6.58276 35.87304,18.54049 a 43.628044,43.628044 0 0 1 -35.87304,19.14366 z"
     id="path58-3-3-8"
     inkscape:connector-curvature="0"
     style="fill:#31bfff;fill-opacity:1;stroke-width:2.482162;stroke-miterlimit:10;stroke-dasharray:none" />
  <path
     d="m 219.62529,238.27447 a 59.788566,59.788566 0 1 0 59.78847,59.78862 59.964345,59.964345 0 0 0 -59.78847,-59.78862 z m 0,17.93667 a 17.936571,17.936571 0 1 1 -17.9365,17.93649 17.996746,17.996746 0 0 1 17.9365,-17.93649 z m 0,86.34835 a 43.555582,43.555582 0 0 1 -35.87317,-19.14366 c 0.28701,-11.95773 23.91545,-18.54049 35.87317,-18.54049 11.95759,0 35.58588,6.58276 35.87303,18.54049 a 43.628044,43.628044 0 0 1 -35.87303,19.14366 z"
     id="path58-3-3-7"
     inkscape:connector-curvature="0"
     style="fill:#31bfff;fill-opacity:1;stroke-width:2.482162;stroke-miterlimit:10;stroke-dasharray:none" />
  <circle
     style="fill:#31bfff;fill-opacity:1;stroke-width:2.50906682;stroke-miterlimit:10;stroke-dasharray:none"
     cx="661.06683"
     cy="586.21478"
     r="20.078405"
     id="circle28-0-7-9" />
  <circle
     style="fill:#31bfff;fill-opacity:1;stroke-width:2.50906682;stroke-miterlimit:10;stroke-dasharray:none"
     cx="510.05197"
     cy="300.7435"
     r="20.078405"
     id="circle28-0-7-2" />
  <path
     inkscape:connector-curvature="0"
     style="fill:#31bfff;fill-opacity:1;stroke-width:2.62400484;stroke-miterlimit:10;stroke-dasharray:none"
     d="m 354.76616,421.45005 a 22.310563,22.310563 0 1 1 22.3105,-22.31065 22.3355,22.3355 0 0 1 -22.3105,22.31065 z m 0,-41.99647 A 19.685792,19.685792 0 1 0 374.452,399.1394 19.707737,19.707737 0 0 0 354.76616,379.45358 Z"
     id="path26-7-4-7" />
  <path
     inkscape:connector-curvature="0"
     style="fill:#31bfff;fill-opacity:1;stroke-width:2.62400484;stroke-miterlimit:10;stroke-dasharray:none"
     d="m 510.01066,714.06918 a 22.310563,22.310563 0 1 1 22.3105,-22.31065 22.3355,22.3355 0 0 1 -22.3105,22.31065 z m 0,-41.99647 a 19.685792,19.685792 0 1 0 19.68584,19.68582 19.707737,19.707737 0 0 0 -19.68584,-19.68582 z"
     id="path26-7-4-5" />
  <path
     inkscape:connector-curvature="0"
     style="fill:#31bfff;fill-opacity:1;stroke-width:2.62400484;stroke-miterlimit:10;stroke-dasharray:none"
     d="m 661.84734,422.62416 a 22.310563,22.310563 0 1 1 22.3105,-22.31066 22.3355,22.3355 0 0 1 -22.3105,22.31066 z m 0,-41.99647 a 19.685792,19.685792 0 1 0 19.68584,19.68581 19.707737,19.707737 0 0 0 -19.68584,-19.68581 z"
     id="path26-7-4-9" />
</svg>
