<?xml version="1.0" encoding="UTF-8" standalone="no"?>
<!-- Created with Inkscape (http://www.inkscape.org/) -->

<svg
   xmlns:dc="http://purl.org/dc/elements/1.1/"
   xmlns:cc="http://creativecommons.org/ns#"
   xmlns:rdf="http://www.w3.org/1999/02/22-rdf-syntax-ns#"
   xmlns:svg="http://www.w3.org/2000/svg"
   xmlns="http://www.w3.org/2000/svg"
   xmlns:sodipodi="http://sodipodi.sourceforge.net/DTD/sodipodi-0.dtd"
   xmlns:inkscape="http://www.inkscape.org/namespaces/inkscape"
   width="297mm"
   height="210mm"
   viewBox="0 0 297 210"
   version="1.1"
   id="svg853"
   inkscape:version="0.92.4 (5da689c313, 2019-01-14)"
   sodipodi:docname="bot.svg">
  <defs
     id="defs847" />
  <sodipodi:namedview
     id="base"
     pagecolor="#ffffff"
     bordercolor="#666666"
     borderopacity="1.0"
     inkscape:pageopacity="0.0"
     inkscape:pageshadow="2"
     inkscape:zoom="0.50000001"
     inkscape:cx="-109.24094"
     inkscape:cy="365.55532"
     inkscape:document-units="mm"
     inkscape:current-layer="layer1"
     showgrid="false"
     inkscape:snap-nodes="false"
     showguides="true"
     inkscape:guide-bbox="true"
     inkscape:window-width="1920"
     inkscape:window-height="1016"
     inkscape:window-x="0"
     inkscape:window-y="27"
     inkscape:window-maximized="1" />
  <metadata
     id="metadata850">
    <rdf:RDF>
      <cc:Work
         rdf:about="">
        <dc:format>image/svg+xml</dc:format>
        <dc:type
           rdf:resource="http://purl.org/dc/dcmitype/StillImage" />
        <dc:title />
      </cc:Work>
    </rdf:RDF>
  </metadata>
  <g
     inkscape:label="Layer 1"
     inkscape:groupmode="layer"
     id="layer1"
     transform="translate(0,-87)">
    <path
       d="m 128.72603,148.23865 c 3.20569,1.29479 9.31232,3.08418 15.53817,1.26717 l 4.4651,-1.30295 -8.00778,-6.17542 C 163.15405,124.66827 143.99421,97.311678 110.28409,98.558719 76.573953,99.805779 61.788829,128.4181 86.797898,144.02226 v 0 c 11.412972,7.16414 28.011912,8.83338 41.928122,4.21639 z M 85.728375,108.41443 c 13.78594,-10.459616 35.431245,-11.249473 50.633545,-1.76414 15.2023,9.48533 16.34766,24.72526 2.55806,35.18262 l -0.2534,0.1923 7.72962,5.961 -2.54157,0.34757 c -6.34095,0.93444 -11.88083,-0.35515 -14.89247,-1.59766 l -0.19467,-0.0806 -0.20426,0.0682 c -16.24466,4.36648 -34.365686,2.13968 -45.043418,-7.66036 -10.677738,-9.80001 -9.751431,-21.57708 2.208563,-30.64914 z"
       id="path62-2"
       inkscape:connector-curvature="0"
       style="fill:#31bfff;fill-opacity:1;stroke-width:0.34784454"
       sodipodi:nodetypes="ccccscccccscccccccscc" />
    <rect
       x="88.372589"
       y="112.7079"
       width="29.272036"
       height="2.7183251"
       id="rect66-1"
       style="fill:#31bfff;fill-opacity:1;stroke-width:0.49681267" />
    <rect
       x="88.372589"
       y="122.11147"
       width="51.018688"
       height="2.7183251"
       id="rect68-2"
       style="fill:#31bfff;fill-opacity:1;stroke-width:0.49681267" />
    <rect
       x="88.372589"
       y="131.51503"
       width="50.96875"
       height="2.7183251"
       id="rect70-7"
       style="fill:#31bfff;fill-opacity:1;stroke-width:0.49681267" />
    <path
       style="fill:#31bfff;fill-opacity:1;stroke:none;stroke-width:0.44135797px;stroke-linecap:butt;stroke-linejoin:miter;stroke-opacity:1"
       d="m 181.19359,228.55968 -1.50992,17.16435 h 33.90749 l -1.50996,-17.16435 z"
       id="path1133"
       inkscape:connector-curvature="0"
       sodipodi:nodetypes="ccccc" />
    <path
       style="fill:#31bfff;fill-opacity:1;stroke:none;stroke-width:0.44135797px;stroke-linecap:butt;stroke-linejoin:miter;stroke-opacity:1"
       d="m 170.19047,204.71363 c 0,0 0.58744,13.43284 -5.11278,17.58607 -3.71663,2.70789 -18.44282,13.88985 -18.44282,13.88985 l 2.60363,1.9572 c 0,0 5.1443,5.66071 7.99944,9.20715 2.85515,3.54643 3.92677,7.27222 7.14622,12.62466 5.15033,8.56245 5.372,13.5812 12.99772,18.11939 7.62566,4.53819 26.28474,6.35162 37.40117,0.70288 7.40448,-3.76257 9.61802,-13.5446 14.30913,-20.39855 2.39092,-3.49328 4.82924,-7.51259 7.05182,-10.56178 2.22257,-3.04917 6.18085,-7.78465 6.18085,-7.78465 l 2.4758,-3.27158 c 0,0 -14.68112,-11.84806 -18.42215,-14.64335 -6.17598,-4.6147 -5.53255,-17.10584 -5.53255,-17.10584 l -11.33982,3.45046 -13.98817,0.80268 -13.98766,-0.96344 z m 38.35177,20.55187 5.98745,0.16858 c 0,0 0.54681,0.38335 0.69773,0.6677 0.19404,0.36553 0.20831,1.22379 0.20831,1.22379 l 1.74786,19.13538 c 0,0 0.16747,1.08939 -0.0349,1.57332 -0.16933,0.4045 -0.91572,0.94421 -0.91572,0.94421 l -33.30191,0.0391 -5.2337,-0.25507 c 0,0 -0.84457,-0.59197 -1.07814,-1.01376 -0.23355,-0.42182 -0.3232,-1.51711 -0.3232,-1.51711 l 1.98526,-19.36437 c 0,0 0.18922,-0.90625 0.53084,-1.15876 0.82409,-0.609 3.04742,-0.40377 3.04742,-0.40377 z"
       id="path1409-5-6-3-3-4-0-7-6"
       inkscape:connector-curvature="0"
       sodipodi:nodetypes="ccccccccccccscccccccaccaccccccacc" />
    <path
       style="fill:#31bfff;fill-opacity:1;stroke:none;stroke-width:0.25165787px;stroke-linecap:butt;stroke-linejoin:miter;stroke-opacity:1"
       d="m 224.55233,204.76667 2.31334,11.92258 c 15.35113,11.45042 20.46783,15.32518 20.46783,15.32518 l 2.36177,5.30793 4.75252,-8.35465 c 0,0 0.64462,-8.58682 -0.88977,-12.45642 -1.52297,-3.84083 -4.45519,-7.22523 -7.82976,-9.60924 -4.32123,-3.05282 -14.94772,-5.33849 -14.94772,-5.33849 z"
       id="path972-1-3"
       inkscape:connector-curvature="0"
       sodipodi:nodetypes="cccccsscc" />
    <path
       style="fill:#31bfff;fill-opacity:1;stroke:none;stroke-width:0.25165787px;stroke-linecap:butt;stroke-linejoin:miter;stroke-opacity:1"
       d="m 166.89028,204.91106 -2.31328,11.92258 c -12.96034,8.80804 -19.46126,14.57024 -19.46126,14.57024 l -3.49421,5.1821 -4.62668,-7.47389 c 0,0 -0.64458,-8.58677 0.88978,-12.45638 1.523,-3.84083 4.45518,-7.22523 7.82975,-9.60925 4.32119,-3.05282 14.94772,-5.33848 14.94772,-5.33848 z"
       id="path972-6-1-9"
       inkscape:connector-curvature="0"
       sodipodi:nodetypes="cccccsscc" />
    <path
       style="fill:#31bfff;fill-opacity:1;stroke:#31bfff;stroke-width:0.44670632px;stroke-linecap:butt;stroke-linejoin:miter;stroke-opacity:1"
       d="m 201.23557,138.73792 4.88596,4.62561 -9.1797,2.98608 -8.54703,-2.98608 4.96958,-4.88158 c -9.56571,1.85023 -13.94241,4.22816 -13.94241,4.22816 0,0 -10.35858,4.58057 -17.05088,13.47182 -3.53084,5.29627 -8.13871,13.43146 -8.5807,21.00414 -0.25612,4.38809 3.11892,12.81232 3.11892,12.81232 0,0 4.55811,4.55498 7.27715,6.22899 4.79333,2.95117 10.06344,5.40053 15.58206,6.51003 10.92833,2.19718 22.55328,2.42641 33.44061,0.0346 5.5641,-1.22249 10.8225,-3.94176 15.50957,-7.17983 2.44257,-1.68743 6.35919,-6.23504 6.35919,-6.23504 0,0 4.2336,-7.77852 4.14206,-12.01323 -0.16858,-7.79173 -3.05246,-15.13372 -8.5694,-21.75412 -5.61762,-8.42631 -17.43284,-13.55709 -17.43284,-13.55709 0,0 -1.71854,-1.05708 -11.98214,-3.29469 z m -32.82345,20.54039 h 2.7e-4 c 0.45676,0.0392 0.9325,0.11957 1.42407,0.23103 0.98365,0.22327 2.0285,0.56965 3.10073,0.95081 1.07224,0.38115 2.17204,0.79707 3.26528,1.16029 1.09345,0.36322 2.18054,0.67352 3.22747,0.84306 1.85176,0.29987 4.65907,0.49569 7.00309,0.61637 2.34401,0.12066 4.22482,0.16637 4.22482,0.16637 l 11.87441,-0.0705 c 0,0 1.74934,-0.0597 3.92917,-0.1879 2.17974,-0.12807 4.79065,-0.32535 6.51437,-0.59994 0.99047,-0.15773 2.05006,-0.44283 3.12478,-0.77583 1.07471,-0.33297 2.16394,-0.71358 3.21193,-1.06028 1.04801,-0.34673 2.05494,-0.65966 2.96537,-0.85859 0.45521,-0.0994 0.8861,-0.17025 1.28612,-0.2026 0.40005,-0.0323 0.7698,-0.0259 1.10082,0.0295 0.68961,0.60687 1.32598,1.23311 1.91111,1.87662 0.58522,0.64355 1.11855,1.30416 1.60082,1.97925 0.48221,0.67507 0.91393,1.36473 1.29477,2.06628 0.38079,0.70153 0.71127,1.4149 0.99219,2.13784 0.28084,0.72287 0.51235,1.45556 0.69477,2.19473 0.18238,0.73911 0.3162,1.48491 0.40171,2.23521 0.0856,0.75029 0.12276,1.50475 0.11275,2.26112 -0.011,0.75633 -0.0671,1.51417 -0.1708,2.27141 -0.0659,0.47929 -0.17925,0.9449 -0.33275,1.39649 -0.15314,0.45157 -0.34635,0.88978 -0.57323,1.31544 -0.45371,0.85128 -1.04045,1.65203 -1.70421,2.41026 -0.6638,0.75816 -1.40471,1.47314 -2.16629,2.15243 -0.76158,0.67936 -1.54408,1.32314 -2.29128,1.93787 -0.55188,0.45404 -1.2055,0.91391 -1.92747,1.37059 -0.722,0.45672 -1.51234,0.91015 -2.3361,1.35253 -1.6475,0.88481 -3.43,1.72419 -5.07477,2.44989 -3.28961,1.45136 -6.02727,2.44817 -6.02727,2.44817 -2.62056,0.30344 -4.59162,0.54031 -6.30491,0.69739 -1.7133,0.15701 -3.16909,0.23481 -4.75926,0.21903 -1.5902,-0.0184 -3.31483,-0.12503 -5.56609,-0.34049 -2.25112,-0.2153 -5.02905,-0.53702 -8.72542,-0.97839 0,0 -2.66408,-0.81636 -5.87208,-2.04558 -1.60412,-0.61461 -3.34413,-1.33291 -4.95503,-2.1034 -0.80532,-0.38518 -1.57832,-0.78344 -2.28607,-1.18871 -0.70765,-0.4052 -1.35016,-0.81745 -1.89382,-1.23009 -0.84957,-0.64478 -1.73718,-1.3235 -2.60159,-2.04472 -0.86449,-0.72124 -1.7054,-1.48436 -2.46195,-2.29901 -0.75653,-0.8147 -1.42853,-1.68083 -1.9542,-2.60594 -0.26293,-0.46258 -0.4895,-0.93934 -0.67163,-1.43268 -0.18203,-0.49336 -0.31997,-1.00295 -0.40597,-1.52925 -0.12351,-0.75588 -0.16564,-1.54682 -0.13974,-2.3576 0.0255,-0.81082 0.12066,-1.64169 0.27241,-2.47749 0.1519,-0.83581 0.3603,-1.6767 0.61464,-2.50763 0.25425,-0.83096 0.5547,-1.65194 0.88791,-2.44815 0.33307,-0.79625 0.70013,-1.56742 1.08866,-2.29905 0.38864,-0.73163 0.79849,-1.42309 1.21888,-2.06025 0.42054,-0.63716 0.85131,-1.21986 1.28018,-1.7327 0.42886,-0.51279 0.85508,-0.95595 1.2689,-1.31456 0.41346,-0.0554 0.85188,-0.0574 1.30859,-0.0185 z"
       id="path1629-5-4-1-5-4"
       inkscape:connector-curvature="0"
       sodipodi:nodetypes="ccccccccccccscscccccccccccccccccccccccccccccccccccccccccccccccccccccccccccc" />
    <path
       style="fill:#31bfff;fill-opacity:1;stroke:none;stroke-width:0.2744517px;stroke-linecap:butt;stroke-linejoin:miter;stroke-opacity:1"
       d="m 195.61051,140.19559 2.22582,10e-4 -0.55853,-13.36646 -1.03075,-0.08 z"
       id="path1545-7-6-9-5-9-8"
       inkscape:connector-curvature="0"
       sodipodi:nodetypes="ccccc" />
    <ellipse
       style="fill:#31bfff;fill-opacity:1;stroke:#31bfff;stroke-width:3.33624911;stroke-linecap:round;stroke-linejoin:round;stroke-miterlimit:4;stroke-dasharray:none;stroke-opacity:1;paint-order:fill markers stroke"
       id="path1547-5-3-5-9-7-1"
       cx="196.64539"
       cy="123.40966"
       rx="1.4043922"
       ry="0.93626177" />
    <ellipse
       style="fill:#31bfff;fill-opacity:1;stroke:#31bfff;stroke-width:3.33624911;stroke-linecap:round;stroke-linejoin:round;stroke-miterlimit:4;stroke-dasharray:none;stroke-opacity:1;paint-order:fill markers stroke"
       id="path1526-9-9-0-4-7-2"
       cx="182.58527"
       cy="176.17743"
       rx="3.1208723"
       ry="5.617569" />
    <ellipse
       style="fill:#31bfff;fill-opacity:1;stroke:#31bfff;stroke-width:3.33624911;stroke-linecap:round;stroke-linejoin:round;stroke-miterlimit:4;stroke-dasharray:none;stroke-opacity:1;paint-order:fill markers stroke"
       id="path1526-2-2-4-4-9-6-9"
       cx="208.64453"
       cy="176.33354"
       rx="3.1208723"
       ry="5.617569" />
  </g>
</svg>
