<?xml version="1.0" encoding="UTF-8" standalone="no"?>
<!-- Created with Inkscape (http://www.inkscape.org/) -->

<svg
   xmlns:dc="http://purl.org/dc/elements/1.1/"
   xmlns:cc="http://creativecommons.org/ns#"
   xmlns:rdf="http://www.w3.org/1999/02/22-rdf-syntax-ns#"
   xmlns:svg="http://www.w3.org/2000/svg"
   xmlns="http://www.w3.org/2000/svg"
   xmlns:sodipodi="http://sodipodi.sourceforge.net/DTD/sodipodi-0.dtd"
   xmlns:inkscape="http://www.inkscape.org/namespaces/inkscape"
   width="297mm"
   height="210mm"
   viewBox="0 0 297 210"
   version="1.1"
   id="svg1069"
   inkscape:version="0.92.4 (5da689c313, 2019-01-14)"
   sodipodi:docname="bot2.svg">
  <defs
     id="defs1063" />
  <sodipodi:namedview
     id="base"
     pagecolor="#ffffff"
     bordercolor="#666666"
     borderopacity="1.0"
     inkscape:pageopacity="0.0"
     inkscape:pageshadow="2"
     inkscape:zoom="0.24748737"
     inkscape:cx="331.54087"
     inkscape:cy="1020.0239"
     inkscape:document-units="mm"
     inkscape:current-layer="layer1"
     showgrid="false"
     inkscape:window-width="960"
     inkscape:window-height="1016"
     inkscape:window-x="960"
     inkscape:window-y="27"
     inkscape:window-maximized="0" />
  <metadata
     id="metadata1066">
    <rdf:RDF>
      <cc:Work
         rdf:about="">
        <dc:format>image/svg+xml</dc:format>
        <dc:type
           rdf:resource="http://purl.org/dc/dcmitype/StillImage" />
        <dc:title />
      </cc:Work>
    </rdf:RDF>
  </metadata>
  <g
     inkscape:label="Layer 1"
     inkscape:groupmode="layer"
     id="layer1"
     transform="translate(0,-87)">
    <path
       inkscape:connector-curvature="0"
       style="fill:#cbcbcb;stroke-width:0.79805112"
       d="m 148.31918,227.4428 8.36339,-6.6891 c -6.49715,-0.71681 -9.1667,2.82659 -10.25927,5.63123 -5.07583,-2.10766 -10.60147,0.65452 -10.60147,0.65452 l 16.73361,6.07491 a 12.662677,12.662677 0 0 0 -4.23626,-5.67156 z"
       id="path14" />
    <path
       inkscape:connector-curvature="0"
       style="fill:#31bfff;fill-opacity:1;stroke-width:0.37736359"
       d="m 59.838294,282.51743 c 0,0 -0.151326,-3.1707 -3.253388,-2.80214"
       id="path26" />
    <rect
       x="5.4971094"
       style="fill:#3f3d56;stroke-width:0.37736359"
       y="259.88321"
       width="40.549862"
       height="3.6133547"
       id="rect54" />
    <rect
       x="5.4971094"
       style="fill:#3f3d56;stroke-width:0.37736359"
       y="273.19427"
       width="40.549862"
       height="3.6133547"
       id="rect56-0" />
    <rect
       x="5.4971094"
       style="fill:#3f3d56;stroke-width:0.37736359"
       y="285.11877"
       width="40.549862"
       height="3.6133547"
       id="rect58" />
    <path
       inkscape:connector-curvature="0"
       style="fill:#31bfff;fill-opacity:1;stroke-width:0.37736359"
       d="m 56.584916,266.40424 v 0 a 4.7143353,4.7143353 0 1 1 4.714347,-4.71434 4.7143276,4.7143276 0 0 1 -4.714347,4.71434 z"
       id="path60" />
    <path
       inkscape:connector-curvature="0"
       style="fill:#31bfff;fill-opacity:1;stroke-width:0.37736359"
       d="m 56.584916,279.71529 v 0 a 4.7143314,4.7143314 0 1 1 4.714347,-4.71434 4.7143276,4.7143276 0 0 1 -4.714357,4.71434 z"
       id="path62" />
    <path
       inkscape:connector-curvature="0"
       style="fill:#31bfff;fill-opacity:1;stroke-width:0.37736359"
       d="m 56.584916,291.63976 v 0 a 4.7143353,4.7143353 0 1 1 4.714347,-4.71432 4.7143276,4.7143276 0 0 1 -4.714357,4.71432 z"
       id="path64-4" />
    <polygon
       transform="matrix(0.37736359,0,0,-0.37736359,2.8008168,393.40889)"
       style="fill:#3f3d56"
       points="161.408,303.284 161.408,301.284 214.308,301.284 214.608,301.671 254.758,353.366 253.179,354.592 213.329,303.284 "
       id="polygon66" />
    <rect
       style="fill:#3f3d56;stroke-width:0.44151872"
       x="256.90759"
       y="100.3227"
       width="47.443699"
       height="4.2276568"
       id="rect68-8" />
    <rect
       style="fill:#3f3d56;stroke-width:0.44151872"
       x="256.90759"
       y="115.89674"
       width="47.443699"
       height="4.2276568"
       id="rect70" />
    <rect
       style="fill:#3f3d56;stroke-width:0.44151872"
       x="256.90759"
       y="129.84853"
       width="47.443699"
       height="4.2276568"
       id="rect72" />
    <path
       inkscape:connector-curvature="0"
       style="fill:#31bfff;fill-opacity:1;stroke-width:0.44151872"
       d="m 239.06232,102.43653 a 5.5158095,5.5158095 0 1 1 5.51579,5.51581 v 0 a 5.5219732,5.5219732 0 0 1 -5.51579,-5.51581 z"
       id="path74" />
    <path
       inkscape:connector-curvature="0"
       style="fill:#31bfff;fill-opacity:1;stroke-width:0.44151872"
       d="m 239.06232,118.01059 a 5.5158095,5.5158095 0 1 1 5.5158,5.51579 v 0 a 5.5219594,5.5219594 0 0 1 -5.5158,-5.51579 z"
       id="path76-7" />
    <path
       inkscape:connector-curvature="0"
       style="fill:#31bfff;fill-opacity:1;stroke-width:0.44151872"
       d="m 239.06232,131.96233 a 5.5158095,5.5158095 0 1 1 5.5158,5.51581 v 0 a 5.5219642,5.5219642 0 0 1 -5.5158,-5.51581 z"
       id="path78-1" />
    <polygon
       transform="matrix(0.44151873,0,0,0.44151873,92.140875,96.920709)"
       style="fill:#3f3d56"
       points="319.23,45.284 267.308,45.284 227.459,96.592 225.88,95.366 266.329,43.284 319.23,43.284 "
       id="polygon80" />
    <ellipse
       style="fill:#3f3d56;fill-opacity:1;stroke:none;stroke-width:0.98436517;stroke-linecap:round;stroke-linejoin:round;stroke-miterlimit:4;stroke-dasharray:none;stroke-opacity:1;paint-order:fill markers stroke"
       id="path1135"
       cx="157.09521"
       cy="178.34195"
       rx="37.547237"
       ry="23.133375" />
    <path
       style="fill:#31bfff;fill-opacity:1;stroke:none;stroke-width:0.44135794px;stroke-linecap:butt;stroke-linejoin:miter;stroke-opacity:1"
       d="m 142.3844,233.49111 -1.50992,17.16435 h 33.90749 l -1.50996,-17.16435 z"
       id="path1133"
       inkscape:connector-curvature="0"
       sodipodi:nodetypes="ccccc" />
    <path
       style="fill:#31bfff;fill-opacity:1;stroke:none;stroke-width:0.44135794px;stroke-linecap:butt;stroke-linejoin:miter;stroke-opacity:1"
       d="m 131.38128,209.64506 c 0,0 0.58744,13.43284 -5.11278,17.58607 -3.71663,2.70789 -18.44282,13.88985 -18.44282,13.88985 l 2.60363,1.9572 c 0,0 5.1443,5.66071 7.99944,9.20715 2.85515,3.54643 3.92677,7.27222 7.14622,12.62466 5.15033,8.56245 5.372,13.5812 12.99772,18.11939 7.62566,4.53819 26.28474,6.35162 37.40117,0.70288 7.40448,-3.76257 9.61802,-13.5446 14.30913,-20.39855 2.39092,-3.49328 4.82924,-7.51259 7.05182,-10.56178 2.22257,-3.04917 6.18085,-7.78465 6.18085,-7.78465 l 2.4758,-3.27158 c 0,0 -14.68112,-11.84806 -18.42215,-14.64335 -6.17598,-4.6147 -5.53255,-17.10584 -5.53255,-17.10584 l -11.33982,3.45046 -13.98817,0.80268 -13.98766,-0.96344 z m 38.35177,20.55187 5.98745,0.16858 c 0,0 0.54681,0.38335 0.69773,0.6677 0.19404,0.36553 0.20831,1.22379 0.20831,1.22379 l 1.74786,19.13538 c 0,0 0.16747,1.08939 -0.0349,1.57332 -0.16933,0.4045 -0.91572,0.94421 -0.91572,0.94421 l -33.30191,0.0391 -5.2337,-0.25507 c 0,0 -0.84457,-0.59197 -1.07814,-1.01376 -0.23355,-0.42182 -0.3232,-1.51711 -0.3232,-1.51711 l 1.98526,-19.36437 c 0,0 0.18922,-0.90625 0.53084,-1.15876 0.82409,-0.609 3.04742,-0.40377 3.04742,-0.40377 z"
       id="path1409-5-6-3-3-4-0-7-6"
       inkscape:connector-curvature="0"
       sodipodi:nodetypes="ccccccccccccscccccccaccaccccccacc" />
    <path
       style="fill:#31bfff;fill-opacity:1;stroke:none;stroke-width:0.25165787px;stroke-linecap:butt;stroke-linejoin:miter;stroke-opacity:1"
       d="m 185.74314,209.6981 2.31334,11.92258 c 15.35113,11.45042 20.46783,15.32518 20.46783,15.32518 l 2.36176,5.30793 4.75252,-8.35465 c 0,0 0.64462,-8.58682 -0.88977,-12.45642 -1.52296,-3.84083 -4.45518,-7.22523 -7.82975,-9.60924 -4.32123,-3.05282 -14.94772,-5.33849 -14.94772,-5.33849 z"
       id="path972-1-3"
       inkscape:connector-curvature="0"
       sodipodi:nodetypes="cccccsscc" />
    <path
       style="fill:#31bfff;fill-opacity:1;stroke:none;stroke-width:0.25165787px;stroke-linecap:butt;stroke-linejoin:miter;stroke-opacity:1"
       d="m 128.08109,209.84249 -2.31328,11.92258 c -12.96034,8.80804 -19.46126,14.57024 -19.46126,14.57024 l -3.49421,5.1821 -4.626678,-7.47389 c 0,0 -0.644587,-8.58677 0.889774,-12.45638 1.523004,-3.84083 4.455184,-7.22523 7.829754,-9.60925 4.32119,-3.05282 14.94772,-5.33848 14.94772,-5.33848 z"
       id="path972-6-1-9"
       inkscape:connector-curvature="0"
       sodipodi:nodetypes="cccccsscc" />
    <path
       style="fill:#31bfff;fill-opacity:1;stroke:#31bfff;stroke-width:0.44670632px;stroke-linecap:butt;stroke-linejoin:miter;stroke-opacity:1"
       d="m 162.42638,143.66935 4.88596,4.62561 -9.1797,2.98608 -8.54703,-2.98608 4.96958,-4.88158 c -9.56571,1.85023 -13.94241,4.22816 -13.94241,4.22816 0,0 -10.35858,4.58057 -17.05088,13.47182 -3.53084,5.29627 -8.13871,13.43146 -8.5807,21.00414 -0.25612,4.38809 3.11892,12.81232 3.11892,12.81232 0,0 4.55811,4.55498 7.27715,6.22899 4.79333,2.95117 10.06344,5.40053 15.58206,6.51003 10.92833,2.19718 22.55328,2.42641 33.44061,0.0346 5.5641,-1.22249 10.8225,-3.94176 15.50957,-7.17983 2.44257,-1.68743 6.35919,-6.23504 6.35919,-6.23504 0,0 4.2336,-7.77852 4.14205,-12.01323 -0.16857,-7.79173 -3.05245,-15.13372 -8.56939,-21.75412 -5.61762,-8.42631 -17.43284,-13.55709 -17.43284,-13.55709 0,0 -1.71854,-1.05708 -11.98214,-3.29469 z m -32.82345,20.54039 h 3.8e-4 c 0.45676,0.0392 0.9325,0.11957 1.42407,0.23103 0.98365,0.22327 2.0285,0.56965 3.10073,0.95081 1.07224,0.38115 2.17204,0.79707 3.26528,1.16029 1.09345,0.36322 2.18054,0.67352 3.22747,0.84306 1.85176,0.29987 4.65907,0.49569 7.00309,0.61637 2.34401,0.12066 4.22482,0.16637 4.22482,0.16637 l 11.87441,-0.0705 c 0,0 1.74934,-0.0597 3.92917,-0.1879 2.17974,-0.12807 4.79065,-0.32535 6.51437,-0.59994 0.99047,-0.15773 2.05006,-0.44283 3.12478,-0.77583 1.07471,-0.33297 2.16394,-0.71358 3.21193,-1.06028 1.04801,-0.34673 2.05494,-0.65966 2.96537,-0.85859 0.45521,-0.0994 0.8861,-0.17025 1.28612,-0.2026 0.40005,-0.0323 0.7698,-0.0259 1.10082,0.0295 0.68961,0.60687 1.32598,1.23311 1.91111,1.87662 0.58522,0.64355 1.11855,1.30416 1.60082,1.97925 0.48221,0.67507 0.91393,1.36473 1.29477,2.06628 0.38079,0.70153 0.71127,1.4149 0.99219,2.13784 0.28084,0.72287 0.51235,1.45556 0.69477,2.19473 0.18238,0.73911 0.3162,1.48491 0.40171,2.23521 0.0856,0.75029 0.12276,1.50475 0.11275,2.26112 -0.011,0.75633 -0.0671,1.51417 -0.1708,2.27141 -0.0659,0.47929 -0.17925,0.9449 -0.33275,1.39649 -0.15314,0.45157 -0.34635,0.88978 -0.57323,1.31544 -0.45371,0.85128 -1.04045,1.65203 -1.70421,2.41026 -0.6638,0.75816 -1.40471,1.47314 -2.16629,2.15243 -0.76158,0.67936 -1.54408,1.32314 -2.29128,1.93787 -0.55188,0.45404 -1.2055,0.91391 -1.92747,1.37059 -0.722,0.45672 -1.51234,0.91015 -2.3361,1.35253 -1.6475,0.88481 -3.43,1.72419 -5.07477,2.44989 -3.28961,1.45136 -6.02727,2.44817 -6.02727,2.44817 -2.62056,0.30344 -4.59162,0.54031 -6.30491,0.69739 -1.7133,0.15701 -3.16909,0.23481 -4.75926,0.21903 -1.5902,-0.0184 -3.31483,-0.12503 -5.56609,-0.34049 -2.25112,-0.2153 -5.02905,-0.53702 -8.72542,-0.97839 0,0 -2.66408,-0.81636 -5.87208,-2.04558 -1.60412,-0.61461 -3.34413,-1.33291 -4.95503,-2.1034 -0.80532,-0.38518 -1.57832,-0.78344 -2.28607,-1.18871 -0.70765,-0.4052 -1.35016,-0.81745 -1.89382,-1.23009 -0.84957,-0.64478 -1.73718,-1.3235 -2.60159,-2.04472 -0.86449,-0.72124 -1.7054,-1.48436 -2.46195,-2.29901 -0.75653,-0.8147 -1.42853,-1.68083 -1.9542,-2.60594 -0.26293,-0.46258 -0.4895,-0.93934 -0.67163,-1.43268 -0.18203,-0.49336 -0.31997,-1.00295 -0.40597,-1.52925 -0.12351,-0.75588 -0.16564,-1.54682 -0.13974,-2.3576 0.0255,-0.81082 0.12066,-1.64169 0.27241,-2.47749 0.1519,-0.83581 0.3603,-1.6767 0.61464,-2.50763 0.25425,-0.83096 0.5547,-1.65194 0.88791,-2.44815 0.33307,-0.79625 0.70013,-1.56742 1.08866,-2.29905 0.38864,-0.73163 0.79849,-1.42309 1.21888,-2.06025 0.42054,-0.63716 0.85131,-1.21986 1.28018,-1.7327 0.42886,-0.51279 0.85508,-0.95595 1.2689,-1.31456 0.41346,-0.0554 0.85188,-0.0574 1.30859,-0.0185 z"
       id="path1629-5-4-1-5-4"
       inkscape:connector-curvature="0"
       sodipodi:nodetypes="ccccccccccccscscccccccccccccccccccccccccccccccccccccccccccccccccccccccccccc" />
    <path
       style="fill:#31bfff;fill-opacity:1;stroke:none;stroke-width:0.27445167px;stroke-linecap:butt;stroke-linejoin:miter;stroke-opacity:1"
       d="m 156.80132,145.12702 2.22582,0.001 -0.55853,-13.36645 -1.03075,-0.08 z"
       id="path1545-7-6-9-5-9-8"
       inkscape:connector-curvature="0"
       sodipodi:nodetypes="ccccc" />
    <ellipse
       style="fill:#31bfff;fill-opacity:1;stroke:#31bfff;stroke-width:3.33624911;stroke-linecap:round;stroke-linejoin:round;stroke-miterlimit:4;stroke-dasharray:none;stroke-opacity:1;paint-order:fill markers stroke"
       id="path1547-5-3-5-9-7-1"
       cx="157.83621"
       cy="128.34109"
       rx="1.4043922"
       ry="0.93626177" />
    <ellipse
       style="fill:#31bfff;fill-opacity:1;stroke:#31bfff;stroke-width:3.33624911;stroke-linecap:round;stroke-linejoin:round;stroke-miterlimit:4;stroke-dasharray:none;stroke-opacity:1;paint-order:fill markers stroke"
       id="path1526-9-9-0-4-7-2"
       cx="143.77609"
       cy="181.10887"
       rx="3.1208723"
       ry="5.617569" />
    <ellipse
       style="fill:#31bfff;fill-opacity:1;stroke:#31bfff;stroke-width:3.33624911;stroke-linecap:round;stroke-linejoin:round;stroke-miterlimit:4;stroke-dasharray:none;stroke-opacity:1;paint-order:fill markers stroke"
       id="path1526-2-2-4-4-9-6-9"
       cx="169.83536"
       cy="181.26498"
       rx="3.1208723"
       ry="5.617569" />
    <path
       d="m 89.798065,160.12701 c 3.361941,1.35792 9.766158,3.23451 16.295495,1.32895 l 4.68272,-1.36645 -8.39808,-6.47638 c 23.52578,-18.20524 3.4322,-46.89512 -31.920837,-45.58729 -35.35315,1.30783 -50.858846,31.31465 -24.630858,47.67928 v 0 c 11.969129,7.51333 29.377114,9.26393 43.97156,4.42189 z M 44.704778,118.36189 c 14.457895,-10.96939 37.158119,-11.79776 53.101347,-1.85012 15.943215,9.94764 17.144445,25.93029 2.682755,36.89734 l -0.26572,0.20158 8.10629,6.25152 -2.66545,0.3645 c -6.649939,0.97999 -12.459837,-0.37246 -15.618331,-1.67553 l -0.204023,-0.0844 -0.21418,0.0716 c -17.036318,4.5793 -36.04058,2.24396 -47.238696,-8.03368 -11.198206,-10.27766 -10.226655,-22.6287 2.316153,-32.14293 z"
       id="path62-2-8-8-0-7-3"
       inkscape:connector-curvature="0"
       style="fill:#31bfff;fill-opacity:1;stroke-width:0.36479756"
       sodipodi:nodetypes="ccccscccccscccccccscc" />
    <rect
       style="fill:#3f3d56;stroke-width:0.31214815"
       x="-81.076202"
       y="122.25223"
       width="33.542095"
       height="2.9888999"
       id="rect68-8-7"
       transform="scale(-1,1)" />
    <rect
       style="fill:#3f3d56;stroke-width:0.31214815"
       x="-81.076202"
       y="133.26291"
       width="33.542095"
       height="2.9888999"
       id="rect70-2"
       transform="scale(-1,1)" />
    <rect
       style="fill:#3f3d56;stroke-width:0.31214815"
       x="-81.076202"
       y="143.12662"
       width="33.542095"
       height="2.9888999"
       id="rect72-7"
       transform="scale(-1,1)" />
    <path
       inkscape:connector-curvature="0"
       style="fill:#31bfff;fill-opacity:1;stroke-width:0.31214815"
       d="m 93.692595,123.74668 a 3.8996081,3.8996081 0 1 0 -3.899603,3.89961 v 0 a 3.9039656,3.9039656 0 0 0 3.899603,-3.89961 z"
       id="path74-2" />
    <path
       inkscape:connector-curvature="0"
       style="fill:#31bfff;fill-opacity:1;stroke-width:0.31214815"
       d="m 93.692595,134.75734 a 3.8996081,3.8996081 0 1 0 -3.899603,3.89961 v 0 a 3.9039561,3.9039561 0 0 0 3.899603,-3.89961 z"
       id="path76-7-2" />
    <path
       inkscape:connector-curvature="0"
       style="fill:#31bfff;fill-opacity:1;stroke-width:0.31214815"
       d="m 93.692595,144.62107 a 3.8996081,3.8996081 0 1 0 -3.899603,3.8996 v 0 a 3.9039594,3.9039594 0 0 0 3.899603,-3.8996 z"
       id="path78-1-6" />
  </g>
</svg>
