<?xml version="1.0" encoding="UTF-8" standalone="no"?>
<svg
   xmlns:dc="http://purl.org/dc/elements/1.1/"
   xmlns:cc="http://creativecommons.org/ns#"
   xmlns:rdf="http://www.w3.org/1999/02/22-rdf-syntax-ns#"
   xmlns:svg="http://www.w3.org/2000/svg"
   xmlns="http://www.w3.org/2000/svg"
   xmlns:sodipodi="http://sodipodi.sourceforge.net/DTD/sodipodi-0.dtd"
   xmlns:inkscape="http://www.inkscape.org/namespaces/inkscape"
   id="a684e1c6-71e2-413d-b570-2a7a579de6f7"
   data-name="Layer 1"
   width="1029.56255"
   height="548.69495"
   viewBox="0 0 1029.56255 548.69495"
   version="1.1"
   sodipodi:docname="dashboard.svg"
   inkscape:version="0.92.4 (5da689c313, 2019-01-14)">
  <metadata
     id="metadata105">
    <rdf:RDF>
      <cc:Work
         rdf:about="">
        <dc:format>image/svg+xml</dc:format>
        <dc:type
           rdf:resource="http://purl.org/dc/dcmitype/StillImage" />
        <dc:title />
      </cc:Work>
    </rdf:RDF>
  </metadata>
  <defs
     id="defs103" />
  <sodipodi:namedview
     pagecolor="#ffffff"
     bordercolor="#666666"
     borderopacity="1"
     objecttolerance="10"
     gridtolerance="10"
     guidetolerance="10"
     inkscape:pageopacity="0"
     inkscape:pageshadow="2"
     inkscape:window-width="790"
     inkscape:window-height="477"
     id="namedview101"
     showgrid="false"
     inkscape:zoom="0.25549078"
     inkscape:cx="546.65675"
     inkscape:cy="315.97086"
     inkscape:window-x="1"
     inkscape:window-y="28"
     inkscape:window-maximized="0"
     inkscape:current-layer="a684e1c6-71e2-413d-b570-2a7a579de6f7"
     inkscape:snap-nodes="false" />
  <path
     d="m 687.14478,612.30002 -34.94781,-7.13612 -17.62614,-84.95962 h -106.8229 l -18.60186,84.61252 -33.16251,7.58113 c -3.39829,1.69923 -2.18905,6.82113 1.6104,6.82103 h 208.15403 c 3.92855,2.9e-4 5.01778,-5.39513 1.39679,-6.91894 z"
     id="path10"
     inkscape:connector-curvature="0"
     style="fill:#31bfff;fill-opacity:1;stroke-width:1.16142201"
     sodipodi:nodetypes="ccccccccc" />
  <path
     d="M 962.27569,531.50778 H 201.74265 a 15.067638,4.7498372 0 0 1 -15.0338,-4.7498 v -33.80735 h 790.60062 v 33.80735 a 15.067778,4.749881 0 0 1 -15.03378,4.7498 z"
     id="path12"
     inkscape:connector-curvature="0"
     style="fill:#31bfff;fill-opacity:1;stroke-width:0.65208888" />
  <path
     style="fill:#31bfff;fill-opacity:1;stroke-width:1.16142201"
     d="m 204.17896,47.828362 c -10.02717,0.01061 -18.15351,8.135924 -18.16537,18.163095 V 524.87109 H 978.10338 V 65.991457 c -0.012,-10.026242 -8.13685,-18.151137 -18.16309,-18.163095 z m 11.14443,15.304681 h 733.47247 c 0.46741,7.7e-5 0.93453,0.02353 1.3996,0.07027 0.46523,0.04716 0.92781,0.11757 1.386,0.210961 0.45771,0.09377 0.91044,0.210358 1.3565,0.349333 0.4463,0.138275 0.8854,0.298775 1.31567,0.480898 0.43037,0.182991 0.8513,0.387401 1.26124,0.612464 0.41045,0.22414 0.80944,0.468677 1.19545,0.732695 0.38521,0.264808 0.75693,0.548716 1.11378,0.85066 0.3567,0.3011 0.69814,0.619827 1.02305,0.954991 0.32591,0.335931 0.6348,0.687973 0.9255,1.054803 0.28954,0.366572 0.56057,0.747385 0.81209,1.141016 0.25225,0.393425 0.48468,0.799218 0.6964,1.215858 0.21175,0.416663 0.40254,0.843655 0.57164,1.279376 0.16882,0.436233 0.31569,0.880642 0.44008,1.331559 0.12482,0.450556 0.22702,0.907073 0.30623,1.367841 0.0783,0.460464 0.13359,0.924555 0.16559,1.390536 0.0223,0.319362 0.0336,0.639394 0.034,0.959532 V 477.56351 c -1.6e-4,0.46666 -0.0236,0.93302 -0.0703,1.39734 -0.0472,0.46523 -0.11757,0.9278 -0.21096,1.38599 -0.0937,0.45847 -0.21029,0.91196 -0.34935,1.35877 -0.13827,0.4463 -0.29878,0.8854 -0.4809,1.31567 -0.18299,0.43037 -0.3874,0.85131 -0.61246,1.26124 -0.2242,0.40968 -0.46874,0.8079 -0.73269,1.19317 -0.26407,0.38517 -0.54722,0.7569 -0.84839,1.1138 -0.30178,0.35753 -0.62127,0.69973 -0.95727,1.02531 -0.33598,0.32514 -0.68802,0.63328 -1.0548,0.92324 -0.36578,0.29025 -0.74583,0.56203 -1.13874,0.81435 -0.39421,0.25155 -0.80076,0.48322 -1.21813,0.69414 -0.41666,0.21175 -0.84366,0.40253 -1.27938,0.57163 -0.43549,0.16874 -0.87913,0.31561 -1.32928,0.44007 -0.45056,0.12482 -0.90708,0.22703 -1.36785,0.30623 -0.46042,0.0791 -0.92451,0.13511 -1.39053,0.16786 -0.32012,0.0223 -0.64091,0.0337 -0.96181,0.034 H 215.32345 c -0.46745,-8.5e-4 -0.93457,-0.0251 -1.3996,-0.0726 -0.46523,-0.0472 -0.92781,-0.11757 -1.386,-0.21096 -0.45767,-0.093 -0.9104,-0.20885 -1.3565,-0.34706 -0.44634,-0.13902 -0.88544,-0.30028 -1.31567,-0.48317 -0.43032,-0.18225 -0.85126,-0.3859 -1.26124,-0.6102 -0.40973,-0.22495 -0.80795,-0.47024 -1.19317,-0.73497 -0.38594,-0.264 -0.75842,-0.54714 -1.11606,-0.84837 -0.35676,-0.30184 -0.6982,-0.62133 -1.02305,-0.95727 -0.32586,-0.3352 -0.63474,-0.68648 -0.9255,-1.05254 -0.28954,-0.36657 -0.56057,-0.74738 -0.81209,-1.14101 -0.25226,-0.39343 -0.48468,-0.79922 -0.6964,-1.21586 -0.21175,-0.41666 -0.40254,-0.84366 -0.57164,-1.27938 -0.16881,-0.43623 -0.31569,-0.88064 -0.44007,-1.33155 -0.12483,-0.45056 -0.22703,-0.90708 -0.30624,-1.36785 -0.0783,-0.46046 -0.13359,-0.92455 -0.16558,-1.39053 -0.0223,-0.31936 -0.0336,-0.63939 -0.034,-0.95953 V 77.13589 c 1.2e-4,-0.467417 0.0236,-0.934536 0.0704,-1.399606 0.0472,-0.464464 0.11764,-0.926279 0.21096,-1.383718 0.0937,-0.458474 0.21028,-0.911969 0.34933,-1.358783 0.13828,-0.446296 0.29878,-0.885401 0.4809,-1.31567 0.18299,-0.430364 0.3874,-0.851302 0.61246,-1.261235 0.22421,-0.409681 0.46875,-0.807902 0.7327,-1.193175 0.264,-0.385934 0.54715,-0.758419 0.84838,-1.116057 0.30184,-0.356758 0.62133,-0.698201 0.95727,-1.02305 0.33598,-0.325142 0.68802,-0.633273 1.0548,-0.923238 0.36652,-0.290309 0.74734,-0.5621 1.14102,-0.814354 0.39343,-0.252254 0.79922,-0.484678 1.21586,-0.6964 0.41666,-0.211754 0.84365,-0.402539 1.27937,-0.571641 0.43549,-0.168737 0.87913,-0.315608 1.32928,-0.440062 0.4506,-0.12406 0.90712,-0.225509 1.36786,-0.303968 0.46117,-0.07916 0.92602,-0.135185 1.3928,-0.16786 0.31936,-0.0223 0.63939,-0.03365 0.95953,-0.03403 z"
     id="path14"
     inkscape:connector-curvature="0"
     sodipodi:nodetypes="ccccccccccccccccccccccccccccccccccccccccccccccccccccccccccccccccccccccccccccc" />
  <rect
     x="232.40834"
     y="147.64093"
     width="81.798622"
     height="11.590477"
     id="rect20"
     style="fill:#31bfff;fill-opacity:1;stroke-width:1.01689613" />
  <rect
     x="232.40834"
     y="175.74922"
     width="81.798622"
     height="11.590477"
     id="rect22"
     style="fill:#31bfff;fill-opacity:1;stroke-width:1.01689613" />
  <rect
     x="232.40834"
     y="204.47821"
     width="81.798622"
     height="11.590477"
     id="rect24"
     style="fill:#31bfff;fill-opacity:1;stroke-width:1.01689613" />
  <rect
     x="232.40834"
     y="233.20721"
     width="81.798622"
     height="11.590477"
     id="rect26"
     style="fill:#31bfff;fill-opacity:1;stroke-width:1.01689613" />
  <rect
     x="233.15323"
     y="385.33923"
     width="60.393944"
     height="9.3525476"
     id="rect28"
     style="fill:#31bfff;fill-opacity:1;stroke-width:1.16142201" />
  <rect
     x="378.95645"
     y="284.60001"
     width="1.4750648"
     height="4.4251781"
     id="rect30"
     style="fill:#31bfff;fill-opacity:1;stroke-width:1.56126189" />
  <path
     d="m 367.99847,360.00737 h -1.58181 v -10.11122 h 1.58181 z m 0,-20.22195 h -1.58181 V 329.6742 h 1.58181 z m 0,-20.22236 h -1.58181 v -10.11083 h 1.58181 z m 0,-20.22198 h -1.58181 v -10.1112 h 1.58181 z m 0,-20.22196 h -1.58181 v -10.11121 h 1.58181 z"
     id="path32"
     inkscape:connector-curvature="0"
     style="fill:#31bfff;fill-opacity:1;stroke-width:1.67427051" />
  <rect
     x="366.4166"
     y="370.11853"
     width="1.5818342"
     height="4.7454848"
     id="rect34"
     style="fill:#31bfff;fill-opacity:1;stroke-width:1.67427051" />
  <rect
     x="540.4754"
     y="284.60001"
     width="1.4750648"
     height="4.4251781"
     id="rect36"
     style="fill:#31bfff;fill-opacity:1;stroke-width:1.56126189" />
  <path
     d="m 541.20853,360.00737 h -1.58184 v -10.11122 h 1.58184 z m 0,-20.22195 h -1.58184 V 329.6742 h 1.58184 z m 0,-20.22236 h -1.58184 v -10.11083 h 1.58184 z m 0,-20.22198 h -1.58184 v -10.1112 h 1.58184 z m 0,-20.22196 h -1.58184 v -10.11121 h 1.58184 z"
     id="path38"
     inkscape:connector-curvature="0"
     style="fill:#31bfff;fill-opacity:1;stroke-width:1.67427051" />
  <rect
     x="539.62671"
     y="370.11853"
     width="1.5818342"
     height="4.7454848"
     id="rect40"
     style="fill:#31bfff;fill-opacity:1;stroke-width:1.67427051" />
  <rect
     x="621.95001"
     y="198.0318"
     width="1.4750648"
     height="4.4251781"
     id="rect42"
     style="fill:#31bfff;fill-opacity:1;stroke-width:1.56126189" />
  <path
     d="m 628.58051,360.40167 h -1.58182 v -9.71693 h 1.58182 z m 0,-19.43377 h -1.58182 v -9.71726 h 1.58182 z m 0,-19.43413 h -1.58182 v -9.71688 h 1.58182 z m 0,-19.43377 h -1.58182 v -9.71687 h 1.58182 z m 0,-19.43375 h -1.58182 v -9.71727 h 1.58182 z m 0,-19.43416 h -1.58182 v -9.71687 h 1.58182 z m 0,-19.43376 h -1.58182 v -9.71691 h 1.58182 z m 0,-19.43379 h -1.58182 v -9.71687 h 1.58182 z m 0,-19.43412 h -1.58182 v -9.7169 h 1.58182 z m 0,-19.43376 h -1.58182 v -9.71688 h 1.58182 z"
     id="path44"
     inkscape:connector-curvature="0"
     style="fill:#31bfff;fill-opacity:1;stroke-width:1.67427051" />
  <rect
     x="626.99872"
     y="370.11853"
     width="1.5818342"
     height="4.7454848"
     id="rect46"
     style="fill:#31bfff;fill-opacity:1;stroke-width:1.67427051" />
  <rect
     x="702.61212"
     y="162.63037"
     width="1.4750648"
     height="4.4251781"
     id="rect48"
     style="fill:#31bfff;fill-opacity:1;stroke-width:1.56126189" />
  <path
     d="m 715.08123,360.43796 h -1.58182 v -9.68097 h 1.58182 z m 0,-19.36154 h -1.58182 v -9.68095 h 1.58182 z m 0,-19.36153 h -1.58182 v -9.68097 h 1.58182 z m 0,-19.36157 h -1.58182 v -9.68094 h 1.58182 z m 0,-19.36155 h -1.58182 v -9.68095 h 1.58182 z m 0,-19.36152 h -1.58182 v -9.68095 h 1.58182 z m 0,-19.36154 h -1.58182 v -9.68098 h 1.58182 z m 0,-19.36155 h -1.58182 v -9.68095 h 1.58182 z m 0,-19.36154 h -1.58182 v -9.68096 h 1.58182 z m 0,-19.36154 h -1.58182 v -9.68098 h 1.58182 z m 0,-19.36154 h -1.58182 v -9.68098 h 1.58182 z m 0,-19.36155 h -1.58182 v -9.68096 h 1.58182 z"
     id="path50"
     inkscape:connector-curvature="0"
     style="fill:#31bfff;fill-opacity:1;stroke-width:1.67427051" />
  <rect
     x="713.49933"
     y="370.11853"
     width="1.5818342"
     height="4.7454848"
     id="rect52"
     style="fill:#31bfff;fill-opacity:1;stroke-width:1.67427051" />
  <rect
     x="460.08481"
     y="225.32034"
     width="1.4750648"
     height="4.4251781"
     id="rect54"
     style="fill:#31bfff;fill-opacity:1;stroke-width:1.56126189" />
  <path
     d="m 454.99897,360.91917 h -1.58183 v -9.19939 h 1.58183 z m 0,-18.39918 h -1.58183 v -9.19938 h 1.58183 z m 0,-18.39916 h -1.58183 v -9.19939 h 1.58183 z m 0,-18.39917 h -1.58183 v -9.19939 h 1.58183 z m 0,-18.39917 h -1.58183 v -9.19938 h 1.58183 z m 0,-18.39913 h -1.58183 v -9.19942 h 1.58183 z m 0,-18.39919 h -1.58183 v -9.19943 h 1.58183 z m 0,-18.39916 h -1.58183 v -9.19937 h 1.58183 z m 0,-18.39917 h -1.58183 v -9.19937 h 1.58183 z"
     id="path56"
     inkscape:connector-curvature="0"
     style="fill:#31bfff;fill-opacity:1;stroke-width:1.67427051" />
  <rect
     x="453.41727"
     y="370.11853"
     width="1.5818342"
     height="4.7454848"
     id="rect58"
     style="fill:#31bfff;fill-opacity:1;stroke-width:1.67427051" />
  <path
     d="M 709.78524,356.17878 H 369.50318 a 1.0649796,1.0649796 0 0 1 -1.06491,-1.06494 V 192.01663 a 1.0649252,1.0649252 0 0 1 2.12984,0 V 354.0489 h 339.21713 a 1.06493,1.06493 0 1 1 0,2.12986 z"
     id="path60"
     inkscape:connector-curvature="0"
     style="fill:#31bfff;fill-opacity:1;stroke-width:1.08792388" />
  <polygon
     points="678.817,132.168 679.549,133.985 627.876,154.804 575.548,212.069 523.544,173.118 472.251,211.537 471.077,209.97 523.544,170.672 575.3,209.438 626.731,153.155 626.938,153.071 "
     id="polygon62"
     transform="matrix(1.5612619,0,0,1.5612619,-356.69758,-44.441752)"
     style="fill:#31bfff;fill-opacity:1" />
  <circle
     cx="379.69406"
     cy="284.59982"
     r="9.1695566"
     id="circle64"
     style="fill:#31bfff;fill-opacity:1;stroke-width:1.56126189" />
  <circle
     cx="460.69193"
     cy="224.9976"
     r="9.1695566"
     id="circle66"
     style="fill:#31bfff;fill-opacity:1;stroke-width:1.56126189" />
  <circle
     cx="541.68976"
     cy="284.59982"
     r="9.1695566"
     id="circle68"
     style="fill:#31bfff;fill-opacity:1;stroke-width:1.56126189" />
  <circle
     cx="622.68756"
     cy="195.96062"
     r="9.1695566"
     id="circle70"
     style="fill:#31bfff;fill-opacity:1;stroke-width:1.56126189" />
  <circle
     cx="703.68524"
     cy="162.33896"
     r="9.1695566"
     id="circle72"
     style="fill:#31bfff;fill-opacity:1;stroke-width:1.56126189" />
  <rect
     x="320.76221"
     y="82.320541"
     width="2.322844"
     height="410.4328"
     id="rect74"
     style="fill:#31bfff;fill-opacity:1;stroke-width:1.16142201" />
  <path
     inkscape:connector-curvature="0"
     style="fill:#31bfff;fill-opacity:1;stroke-width:1.15901875"
     d="m 840.26606,233.81983 q 0.0301,3.3e-4 0.0602,-0.001 a 40.353267,40.353267 0 0 0 0.90288,-80.53895 0.92053905,0.92053905 0 0 0 -0.69669,0.2415 0.91089602,0.91089602 0 0 0 -0.29764,0.66705 l -0.88224,78.69968 a 0.92381907,0.92381907 0 0 0 0.91365,0.93199 z"
     id="path46" />
  <path
     inkscape:connector-curvature="0"
     style="fill:#31bfff;fill-opacity:1;stroke-width:1.15901875"
     d="m 808.61859,166.29325 a 1.1882724,1.1882724 0 0 1 0.83414,0.35623 l 27.09299,27.70737 a 1.1754536,1.1754536 0 0 1 0.33715,0.84041 l -0.42211,37.65818 a 1.1712928,1.1712928 0 0 1 -0.38271,0.85748 1.1891532,1.1891532 0 0 1 -0.89384,0.31042 40.617186,40.617186 0 0 1 -27.46827,-67.3281 1.1895705,1.1895705 0 0 1 0.85884,-0.4017 q 0.022,-5.3e-4 0.0441,-2.9e-4 z"
     id="path48" />
  <path
     inkscape:connector-curvature="0"
     style="fill:#31bfff;fill-opacity:1;stroke-width:1.15901875"
     d="m 823.98903,250.13954 a 7.2478427,7.2478427 0 1 1 -7.16622,-7.32863 7.2560833,7.2560833 0 0 1 7.16622,7.32863 z"
     id="path52" />
  <path
     inkscape:connector-curvature="0"
     style="fill:#31bfff;fill-opacity:1;stroke-width:1.15901875"
     d="m 844.69583,250.37166 a 7.2478427,7.2478427 0 1 1 -7.16622,-7.32862 7.2561065,7.2561065 0 0 1 7.16622,7.32862 z"
     id="path54" />
  <path
     inkscape:connector-curvature="0"
     style="fill:#31bfff;fill-opacity:1;stroke-width:1.15901875"
     d="m 865.40263,250.60385 a 7.2478427,7.2478427 0 1 1 -7.16611,-7.32864 7.2560833,7.2560833 0 0 1 7.16611,7.32864 z"
     id="path56-7" />
  <path
     style="fill:#31bfff;fill-opacity:1;stroke-width:1.15901875"
     d="M 755.82225,300.08967 V 428.47816 H 923.87544 V 300.08967 Z m 8.35083,6.37914 H 915.52463 V 422.09903 H 764.17308 Z"
     id="rect58-5"
     inkscape:connector-curvature="0" />
  <circle
     style="fill:#31bfff;fill-opacity:1;stroke-width:1.15901875"
     cx="789.05054"
     cy="334.17972"
     r="6.2842345"
     id="circle62" />
  <path
     inkscape:connector-curvature="0"
     style="fill:#31bfff;fill-opacity:1;stroke-width:1.15901875"
     d="m 890.02172,329.2894 a 4.2618626,4.2618626 0 1 1 0,8.52371 h -66.09373 a 4.2618569,4.2618569 0 1 1 0,-8.52371 h 66.09373 m 0,-1.04381 h -66.09373 a 5.305675,5.305675 0 1 0 0,10.61134 h 66.09373 a 5.305675,5.305675 0 1 0 0,-10.61134 z"
     id="path64" />
  <path
     inkscape:connector-curvature="0"
     style="fill:#31bfff;fill-opacity:1;stroke-width:1.15901875"
     d="M 863.94229,338.85692 H 814.1876 a 5.3056652,5.3056652 0 1 1 0,-10.61133 h 49.75469 a 5.3056652,5.3056652 0 0 1 0,10.61133 z"
     id="path66" />
  <circle
     style="fill:#31bfff;fill-opacity:1;stroke-width:1.15901875"
     cx="789.05054"
     cy="360.2749"
     r="6.2842345"
     id="circle68-3" />
  <path
     inkscape:connector-curvature="0"
     style="fill:#31bfff;fill-opacity:1;stroke-width:1.15901875"
     d="m 890.02172,355.3846 a 4.2618626,4.2618626 0 1 1 0,8.5237 h -66.09373 a 4.2618569,4.2618569 0 1 1 0,-8.5237 h 66.09373 m 0,-1.04382 h -66.09373 a 5.3056707,5.3056707 0 1 0 0,10.61134 h 66.09373 a 5.3056707,5.3056707 0 1 0 0,-10.61134 z"
     id="path70" />
  <path
     inkscape:connector-curvature="0"
     style="fill:#31bfff;fill-opacity:1;stroke-width:1.15901875"
     d="m 882.7308,364.95206 h -68.5432 a 5.3056652,5.3056652 0 1 1 0,-10.61133 h 68.5432 a 5.3056652,5.3056652 0 0 1 0,10.61133 z"
     id="path72" />
  <circle
     style="fill:#31bfff;fill-opacity:1;stroke-width:1.15901875"
     cx="789.05054"
     cy="386.37006"
     r="6.2842345"
     id="circle74" />
  <path
     inkscape:connector-curvature="0"
     style="fill:#31bfff;fill-opacity:1;stroke-width:1.15901875"
     d="m 890.02172,381.47979 a 4.2618626,4.2618626 0 1 1 0,8.52372 h -66.09373 a 4.26186,4.26186 0 1 1 0,-8.52372 h 66.09373 m 0,-1.04382 h -66.09373 a 5.3056707,5.3056707 0 1 0 0,10.61134 h 66.09373 a 5.3056707,5.3056707 0 1 0 0,-10.61134 z"
     id="path76" />
  <path
     inkscape:connector-curvature="0"
     style="fill:#31bfff;fill-opacity:1;stroke-width:1.15901875"
     d="M 842.02225,391.04729 H 814.1876 a 5.3056633,5.3056633 0 1 1 0,-10.61132 h 27.83465 a 5.3056633,5.3056633 0 0 1 0,10.61132 z"
     id="path78" />
  <path
     style="fill:#31bfff;fill-opacity:1;stroke-width:1.15685332"
     d="M 339.58708,142.65151 V 387.25188 H 734.85373 V 142.65151 Z m 5.4335,7.20275 H 729.418 V 380.04914 H 345.02058 Z"
     id="rect80"
     inkscape:connector-curvature="0"
     sodipodi:nodetypes="cccccccccc" />
  <path
     inkscape:connector-curvature="0"
     style="fill:#31bfff;fill-opacity:1;stroke-width:1.15901875"
     d="M 755.18528,141.38914 V 269.77761 H 923.23847 V 141.38914 Z m 8.35082,6.37913 H 914.88765 V 263.39849 H 763.5361 Z"
     id="rect58-5-5" />
  <path
     inkscape:connector-curvature="0"
     style="fill:#31bfff;stroke-width:1.53895915"
     d="m 417.51698,360.40167 h -38.57947 a 3.9449064,3.9449064 0 0 1 -3.94053,-3.9402 v -53.18203 a 3.9449218,3.9449218 0 0 1 3.94053,-3.9402 h 38.57947 a 3.9449218,3.9449218 0 0 1 3.94052,3.9402 v 53.18203 a 3.9449064,3.9449064 0 0 1 -3.94052,3.9402 z"
     id="path86-3" />
  <path
     inkscape:connector-curvature="0"
     style="fill:#31bfff;stroke-width:1.53895915"
     d="M 487.87149,360.40167 H 449.292 a 3.9449064,3.9449064 0 0 1 -3.94051,-3.9402 V 252.83659 a 3.9449064,3.9449064 0 0 1 3.94051,-3.9402 h 38.57949 a 3.9449064,3.9449064 0 0 1 3.94052,3.9402 v 103.62488 a 3.9449064,3.9449064 0 0 1 -3.94052,3.9402 z"
     id="path88-6" />
  <path
     inkscape:connector-curvature="0"
     style="fill:#31bfff;stroke-width:1.53895915"
     d="m 558.22599,360.40167 h -38.57948 a 3.9449218,3.9449218 0 0 1 -3.94052,-3.9402 v -53.18203 a 3.9449218,3.9449218 0 0 1 3.94052,-3.9402 h 38.57948 a 3.9449218,3.9449218 0 0 1 3.94054,3.9402 v 53.18203 a 3.9449218,3.9449218 0 0 1 -3.94054,3.9402 z"
     id="path90-7" />
  <path
     inkscape:connector-curvature="0"
     style="fill:#31bfff;stroke-width:1.53895915"
     d="m 628.58051,360.40167 h -38.57949 a 3.858694,3.858694 0 0 1 -3.94053,-3.76171 V 232.74638 a 3.858694,3.858694 0 0 1 3.94053,-3.76169 h 38.57947 a 3.858694,3.858694 0 0 1 3.94052,3.76169 v 123.89354 a 3.858694,3.858694 0 0 1 -3.9405,3.76175 z"
     id="path92-5" />
  <path
     inkscape:connector-curvature="0"
     style="fill:#31bfff;stroke-width:1.53895915"
     d="m 698.93503,360.40167 h -38.57949 a 3.9449064,3.9449064 0 0 1 -3.94052,-3.9402 V 197.08396 a 3.9449064,3.9449064 0 0 1 3.94052,-3.9402 h 38.57949 a 3.9449064,3.9449064 0 0 1 3.94051,3.9402 v 159.37751 a 3.9449064,3.9449064 0 0 1 -3.94051,3.9402 z"
     id="path94-3" />
</svg>
