<?xml version="1.0" encoding="UTF-8" standalone="no"?>
<svg
   xmlns:dc="http://purl.org/dc/elements/1.1/"
   xmlns:cc="http://creativecommons.org/ns#"
   xmlns:rdf="http://www.w3.org/1999/02/22-rdf-syntax-ns#"
   xmlns:svg="http://www.w3.org/2000/svg"
   xmlns="http://www.w3.org/2000/svg"
   xmlns:sodipodi="http://sodipodi.sourceforge.net/DTD/sodipodi-0.dtd"
   xmlns:inkscape="http://www.inkscape.org/namespaces/inkscape"
   id="fab53ecb-c04a-44eb-8d92-23f87bdb6c81"
   data-name="Layer 1"
   width="942.54724"
   height="631.43903"
   viewBox="0 0 942.54724 631.43903"
   version="1.1"
   sodipodi:docname="data1.svg"
   inkscape:version="0.92.4 (5da689c313, 2019-01-14)">
  <metadata
     id="metadata115">
    <rdf:RDF>
      <cc:Work
         rdf:about="">
        <dc:format>image/svg+xml</dc:format>
        <dc:type
           rdf:resource="http://purl.org/dc/dcmitype/StillImage" />
      </cc:Work>
    </rdf:RDF>
  </metadata>
  <defs
     id="defs113" />
  <sodipodi:namedview
     pagecolor="#ffffff"
     bordercolor="#666666"
     borderopacity="1"
     objecttolerance="10"
     gridtolerance="10"
     guidetolerance="10"
     inkscape:pageopacity="0"
     inkscape:pageshadow="2"
     inkscape:window-width="960"
     inkscape:window-height="1016"
     id="namedview111"
     showgrid="false"
     inkscape:zoom="0.52856158"
     inkscape:cx="665.02373"
     inkscape:cy="-130.72671"
     inkscape:window-x="0"
     inkscape:window-y="27"
     inkscape:window-maximized="0"
     inkscape:current-layer="fab53ecb-c04a-44eb-8d92-23f87bdb6c81" />
  <path
     d="m 490.16884,570.9797 -13.50058,-5.68463 -9.26135,-67.67859 H 344.07545 l -10.03864,67.40212 -12.07839,6.0391 a 2.8682231,2.8682231 0 0 0 1.28284,5.43362 h 165.81491 a 2.868075,2.868075 0 0 0 1.11267,-5.51162 z"
     id="path32"
     inkscape:connector-curvature="0"
     style="fill:#e6e6e6;stroke-width:0.9251855" />
  <path
     d="M 709.33736,506.62084 H 103.49888 A 12.002838,12.002838 0 0 1 91.523002,494.61812 V 409.18695 H 721.31323 v 85.43119 a 12.002959,12.002959 0 0 1 -11.97587,12.0027 z"
     id="path34"
     inkscape:connector-curvature="0"
     style="fill:#cccccc;stroke-width:0.9251855" />
  <path
     d="M 721.94654,449.56375 H 90.970027 V 84.021776 A 14.485805,14.485805 0 0 1 105.43958,69.552712 H 707.4768 a 14.485962,14.485962 0 0 1 14.46974,14.469064 z"
     id="path36"
     inkscape:connector-curvature="0"
     style="fill:#3f3d56;stroke-width:0.9251855" />
  <path
     d="M 684.26081,423.03268 H 128.65576 A 11.167211,11.167211 0 0 1 117.5008,411.87802 V 107.23848 a 11.167803,11.167803 0 0 1 11.15496,-11.155337 h 555.60505 a 11.167803,11.167803 0 0 1 11.15496,11.155337 v 304.63954 a 11.167211,11.167211 0 0 1 -11.15496,11.15466 z"
     id="path38"
     inkscape:connector-curvature="0"
     style="fill:#ffffff;stroke-width:0.9251855" />
  <path
     d="m 562.27803,577.19733 h -312.2022 a 1.4495899,1.4495899 0 0 1 -1.42393,-1.04881 1.4147103,1.4147103 0 0 1 1.36673,-1.77537 h 312.1437 a 1.4944984,1.4944984 0 0 1 1.49526,1.10437 1.4138592,1.4138592 0 0 1 -1.37956,1.71981 z"
     id="path40"
     inkscape:connector-curvature="0"
     style="fill:#cccccc;stroke-width:0.9251855" />
  <rect
     x="544.18121"
     y="145.33414"
     width="134.14815"
     height="102.48586"
     id="rect42"
     style="fill:#f2f2f2;stroke-width:0.9251855" />
  <rect
     x="550.84692"
     y="150.42661"
     width="120.81665"
     height="92.300919"
     id="rect44"
     style="fill:#ffffff;stroke-width:0.9251855" />
  <rect
     x="542.7691"
     y="263.94934"
     width="134.14815"
     height="102.48586"
     id="rect58"
     style="fill:#f2f2f2;stroke-width:0.9251855" />
  <rect
     x="549.43488"
     y="269.04181"
     width="120.81665"
     height="92.300919"
     id="rect60"
     style="fill:#ffffff;stroke-width:0.9251855" />
  <path
     d="m 308.84157,244.5656 a 5.1717287,5.1717287 0 1 1 0,10.34343 h -80.20408 a 5.1717218,5.1717218 0 1 1 0,-10.34343 h 80.20408 m 0,-1.26666 h -80.20408 a 6.4383847,6.4383847 0 1 0 0,12.87675 h 80.20408 a 6.4383847,6.4383847 0 1 0 0,-12.87675 z"
     id="path64"
     inkscape:connector-curvature="0"
     style="fill:#31bfff;fill-opacity:1;stroke-width:1.40645802" />
  <path
     d="m 277.19448,256.17568 h -60.37684 a 6.4383719,6.4383719 0 1 1 0,-12.87674 h 60.37684 a 6.4383719,6.4383719 0 0 1 0,12.87674 z"
     id="path66"
     inkscape:connector-curvature="0"
     style="fill:#31bfff;fill-opacity:1;stroke-width:1.40645802" />
  <path
     d="m 308.84157,276.23185 a 5.1717287,5.1717287 0 1 1 0,10.34345 h -80.20408 a 5.171727,5.171727 0 1 1 0,-10.34345 h 80.20408 m 0,-1.26666 h -80.20408 a 6.438385,6.438385 0 1 0 0,12.87677 h 80.20408 a 6.438385,6.438385 0 1 0 0,-12.87677 z"
     id="path70"
     inkscape:connector-curvature="0"
     style="fill:#31bfff;fill-opacity:1;stroke-width:1.40645802" />
  <path
     d="m 299.99418,287.84188 h -83.17652 a 6.438372,6.438372 0 1 1 0,-12.87674 h 83.17652 a 6.438372,6.438372 0 0 1 0,12.87674 z"
     id="path72"
     inkscape:connector-curvature="0"
     style="fill:#31bfff;fill-opacity:1;stroke-width:1.40645802" />
  <path
     d="m 308.84157,307.89812 a 5.1717287,5.1717287 0 1 1 0,10.34344 h -80.20408 a 5.1717222,5.1717222 0 1 1 0,-10.34344 h 80.20408 m 0,-1.26667 h -80.20408 a 6.438385,6.438385 0 1 0 0,12.87677 h 80.20408 a 6.438385,6.438385 0 1 0 0,-12.87677 z"
     id="path76"
     inkscape:connector-curvature="0"
     style="fill:#31bfff;fill-opacity:1;stroke-width:1.40645802" />
  <path
     d="m 250.59479,319.50818 h -33.77715 a 6.4383707,6.4383707 0 1 1 0,-12.87673 h 33.77715 a 6.4383707,6.4383707 0 0 1 0,12.87673 z"
     id="path78"
     inkscape:connector-curvature="0"
     style="fill:#31bfff;fill-opacity:1;stroke-width:1.40645802" />
  <rect
     x="138.32881"
     y="163.46629"
     width="374.78647"
     height="192.07806"
     id="rect80"
     style="fill:#f2f2f2;stroke-width:0.9251855" />
  <rect
     x="150.82169"
     y="173.01056"
     width="349.80072"
     height="172.98956"
     id="rect82"
     style="fill:#ffffff;stroke-width:0.9251855" />
  <circle
     style="fill:#3f3d56;stroke-width:1.12423933"
     cx="410.33087"
     cy="269.8226"
     r="112.37897"
     id="circle283" />
  <path
     inkscape:connector-curvature="0"
     style="fill:#31bfff;stroke-width:1.12423933"
     d="m 474.24388,235.87061 -33.64848,34.23308 a 0.60708924,0.60708924 0 0 0 0,0.8769 l 23.60903,25.10425 a 4.0697463,4.0697463 0 0 1 -2.86682,6.93657 4.092231,4.092231 0 0 1 -2.87805,-1.19169 l -23.48535,-25.01433 a 0.64081641,0.64081641 0 0 0 -0.89941,0 l -5.72236,5.77859 a 25.149233,25.149233 0 0 1 -17.98782,7.56613 25.70011,25.70011 0 0 1 -18.30261,-7.77973 l -5.49755,-5.6212 a 0.64081641,0.64081641 0 0 0 -0.89939,0 l -23.42916,24.95811 a 4.058504,4.058504 0 0 1 -5.74487,0 4.0472616,4.0472616 0 0 1 0,-5.74487 l 23.5191,-25.04804 a 0.6745436,0.6745436 0 0 0 0,-0.87691 l -33.64849,-34.23309 a 0.61833162,0.61833162 0 0 0 -1.05679,0.43845 v 68.4999 a 10.028215,10.028215 0 0 0 9.99448,9.9945 h 110.02933 a 10.028215,10.028215 0 0 0 9.99448,-9.9945 v -68.44367 a 0.61833162,0.61833162 0 0 0 -1.07927,-0.43845 z"
     id="path285" />
  <path
     inkscape:connector-curvature="0"
     style="fill:#31bfff;stroke-width:1.12423933"
     d="m 410.33087,282.03185 a 17.020984,17.020984 0 0 0 12.27671,-5.05906 l 49.00558,-49.88248 a 9.7808817,9.7808817 0 0 0 -6.18331,-2.24848 H 355.32183 a 9.7134283,9.7134283 0 0 0 -6.1833,2.24848 l 49.01683,49.88248 a 16.953529,16.953529 0 0 0 12.17551,5.05906 z"
     id="path287" />
  <path
     inkscape:connector-curvature="0"
     style="opacity:0.1;stroke-width:1.12423933"
     d="m 408.91434,157.45493 a 112.42392,112.42392 0 1 0 112.36772,112.3677 112.42392,112.42392 0 0 0 -112.36772,-112.3677 z m 0,209.80552 a 97.437829,97.437829 0 1 1 97.43782,-97.43782 97.437829,97.437829 0 0 1 -97.43782,97.43782 z"
     id="path289" />
  <circle
     style="fill:#3f3d56;stroke-width:1.22273636"
     cx="705.41412"
     cy="401.94049"
     r="122.22472"
     id="circle277" />
  <path
     inkscape:connector-curvature="0"
     style="fill:#31bfff;stroke-width:1.22273636"
     d="m 757.8818,433.46263 c -4.25508,-4.25513 -14.48942,-10.67449 -19.5638,-13.07105 -5.85691,-2.81229 -8.00893,-2.76338 -12.154,0.23232 -3.44811,2.44547 -5.68572,4.80534 -9.64739,3.9372 -3.96166,-0.86815 -11.81164,-6.78618 -19.40484,-14.35493 -7.59318,-7.56873 -13.48679,-15.36978 -14.33047,-19.39258 -0.8437,-4.02277 1.47951,-6.21146 3.94944,-9.65957 2.98348,-4.14508 3.06906,-6.29709 0.23233,-12.154 -2.44549,-5.07435 -8.79149,-15.28421 -13.08328,-19.56378 -4.2918,-4.27959 -5.22109,-3.33807 -7.56874,-2.44549 a 43.77396,43.77396 0 0 0 -6.93291,3.66822 c -4.25513,2.84898 -6.63948,5.22108 -8.31462,8.79148 -1.67514,3.57038 -3.57038,10.19762 6.17483,27.54824 a 153.68573,153.68573 0 0 0 27.02246,36.03399 v 0 0 a 153.91805,153.91805 0 0 0 36.15633,27.0714 c 17.3384,9.78188 23.97788,7.83773 27.54827,6.1748 3.57039,-1.66292 5.94248,-4.02279 8.77922,-8.3146 a 43.199273,43.199273 0 0 0 3.66823,-6.9329 c 0.80696,-2.34768 1.76072,-3.30141 -2.53106,-7.56875 z"
     id="path279" />
  <path
     inkscape:connector-curvature="0"
     style="opacity:0.1;stroke-width:1.22273636"
     d="m 705.41417,279.72804 a 122.27363,122.27363 0 1 0 122.2125,122.21245 122.27363,122.27363 0 0 0 -122.2125,-122.21245 z m 0,228.187 A 105.97455,105.97455 0 1 1 811.3888,401.94049 105.97455,105.97455 0 0 1 705.41417,507.91504 Z"
     id="path281" />
</svg>
