<?xml version="1.0" encoding="UTF-8" standalone="no"?>
<svg
   xmlns:dc="http://purl.org/dc/elements/1.1/"
   xmlns:cc="http://creativecommons.org/ns#"
   xmlns:rdf="http://www.w3.org/1999/02/22-rdf-syntax-ns#"
   xmlns:svg="http://www.w3.org/2000/svg"
   xmlns="http://www.w3.org/2000/svg"
   xmlns:sodipodi="http://sodipodi.sourceforge.net/DTD/sodipodi-0.dtd"
   xmlns:inkscape="http://www.inkscape.org/namespaces/inkscape"
   id="fe1cf379-4a7f-4187-a7ee-30bde886052e"
   data-name="Layer 1"
   width="700.84998"
   height="673.49605"
   viewBox="0 0 700.84998 673.49605"
   version="1.1"
   sodipodi:docname="mobile.svg"
   inkscape:version="0.92.4 (5da689c313, 2019-01-14)">
  <metadata
     id="metadata60">
    <rdf:RDF>
      <cc:Work
         rdf:about="">
        <dc:format>image/svg+xml</dc:format>
        <dc:type
           rdf:resource="http://purl.org/dc/dcmitype/StillImage" />
      </cc:Work>
    </rdf:RDF>
  </metadata>
  <defs
     id="defs58" />
  <sodipodi:namedview
     pagecolor="#ffffff"
     bordercolor="#666666"
     borderopacity="1"
     objecttolerance="10"
     gridtolerance="10"
     guidetolerance="10"
     inkscape:pageopacity="0"
     inkscape:pageshadow="2"
     inkscape:window-width="790"
     inkscape:window-height="477"
     id="namedview56"
     showgrid="false"
     inkscape:zoom="0.24777756"
     inkscape:cx="424.91835"
     inkscape:cy="449.69596"
     inkscape:window-x="533"
     inkscape:window-y="147"
     inkscape:window-maximized="0"
     inkscape:current-layer="fe1cf379-4a7f-4187-a7ee-30bde886052e" />
  <path
     d="M 418.23338,329.31215 H 292.47219 a 4.2541868,4.2541868 0 0 1 -4.24933,-4.24941 v -73.97702 a 4.2541868,4.2541868 0 0 1 4.24933,-4.24941 h 125.76119 a 4.2542084,4.2542084 0 0 1 4.24941,4.24941 v 73.97702 a 4.2542084,4.2542084 0 0 1 -4.24941,4.24941 z M 292.47217,248.99407 a 2.0940515,2.0940515 0 0 0 -2.09161,2.09169 v 73.97698 a 2.0940515,2.0940515 0 0 0 2.09161,2.09169 h 125.76119 a 2.0941307,2.0941307 0 0 0 2.09169,-2.09169 v -73.97702 a 2.0941307,2.0941307 0 0 0 -2.09169,-2.09169 z"
     id="path10"
     style="fill:#31bfff;fill-opacity:1;stroke-width:0.71923953"
     inkscape:connector-curvature="0" />
  <path
     d="m 410.49154,554.71213 a 15.644898,15.644898 0 1 1 15.6449,-15.6449 15.662613,15.662613 0 0 1 -15.6449,15.6449 z m 0,-30.0863 a 14.441424,14.441424 0 1 0 14.44143,14.44143 14.45788,14.45788 0 0 0 -14.44143,-14.44143 z"
     id="path12"
     style="fill:#31bfff;fill-opacity:1;stroke-width:0.71923953"
     inkscape:connector-curvature="0" />
  <path
     id="e3ce330b-7810-427f-abc7-876c0b1e229e"
     data-name="Path 680"
     d="m 323.24129,359.74138 a 2.350475,2.350475 0 1 0 0,4.70095 h 64.22306 a 2.350475,2.350475 0 0 0 0,-4.70095 z"
     style="fill:#31bfff;fill-opacity:1;stroke-width:0.71923953"
     inkscape:connector-curvature="0" />
  <path
     id="a0eaab81-8858-470f-850b-5b5bdea12a20"
     data-name="Path 680"
     d="m 286.9197,392.10716 a 2.350475,2.350475 0 1 0 0,4.70095 h 136.86625 a 2.350475,2.350475 0 0 0 0,-4.70095 z"
     style="fill:#31bfff;fill-opacity:1;stroke-width:0.71923953"
     inkscape:connector-curvature="0" />
  <path
     id="ee8cc921-a5a0-4964-a61a-9ba4926e4da3"
     data-name="Path 680"
     d="m 286.9197,410.80738 a 2.350475,2.350475 0 1 0 0,4.70095 h 136.86625 a 2.350475,2.350475 0 0 0 0,-4.70095 z"
     style="fill:#31bfff;fill-opacity:1;stroke-width:0.71923953"
     inkscape:connector-curvature="0" />
  <path
     id="a10d2789-177b-4a06-b4a9-e144bb78656d"
     data-name="Path 680"
     d="m 286.9197,429.50761 a 2.350475,2.350475 0 1 0 0,4.70095 h 136.86625 a 2.350475,2.350475 0 0 0 0,-4.70095 z"
     style="fill:#31bfff;fill-opacity:1;stroke-width:0.71923953"
     inkscape:connector-curvature="0" />
  <path
     id="abaf8d8e-542f-4c38-bb70-bc98f5a2b3ae"
     data-name="Path 680"
     d="m 286.9197,448.20784 a 2.350475,2.350475 0 1 0 0,4.70095 h 136.86625 a 2.350475,2.350475 0 0 0 0,-4.70095 z"
     style="fill:#31bfff;fill-opacity:1;stroke-width:0.71923953"
     inkscape:connector-curvature="0" />
  <path
     id="bb510fc4-24f2-4f73-aad4-433372c1ffce"
     data-name="Path 680"
     d="m 286.9197,466.90807 a 2.350475,2.350475 0 1 0 0,4.70095 h 136.86625 a 2.350475,2.350475 0 0 0 0,-4.70095 z"
     style="fill:#31bfff;fill-opacity:1;stroke-width:0.71923953"
     inkscape:connector-curvature="0" />
  <path
     id="bc4545ef-9617-49fd-a774-25690e5815c1"
     data-name="Path 680"
     d="m 286.9197,485.6083 a 2.350475,2.350475 0 1 0 0,4.70095 h 136.86625 a 2.350475,2.350475 0 0 0 0,-4.70095 z"
     style="fill:#31bfff;fill-opacity:1;stroke-width:0.71923953"
     inkscape:connector-curvature="0" />
  <path
     style="fill:#31bfff;fill-opacity:1;stroke-width:0.71923953"
     d="m 286.40865,171.46415 a 37.030379,37.030379 0 0 0 -37.02959,37.031 V 559.4995 a 37.030393,37.030393 0 0 0 37.02959,37.0296 h 135.55278 a 37.030393,37.030393 0 0 0 37.0296,-37.0296 V 318.01904 h 2.33612 v -45.54387 h -2.33612 v -63.98002 a 37.030379,37.030379 0 0 0 -37.0296,-37.031 z m -0.59702,9.63388 h 16.52706 a 13.138284,13.138284 0 0 0 -0.26831,0.71362 13.138284,13.138284 0 0 0 -0.36103,1.26288 13.138284,13.138284 0 0 0 -0.23459,1.29238 13.138284,13.138284 0 0 0 -0.10395,1.30924 13.138284,13.138284 0 0 0 0.0267,1.31205 13.138284,13.138284 0 0 0 0.15874,1.30503 13.138284,13.138284 0 0 0 0.28797,1.28115 13.138284,13.138284 0 0 0 0.41301,1.24602 13.138284,13.138284 0 0 0 0.53661,1.19827 13.138284,13.138284 0 0 0 0.65322,1.13926 13.138284,13.138284 0 0 0 0.7642,1.06903 13.138284,13.138284 0 0 0 0.86673,0.98614 13.138284,13.138284 0 0 0 0.96086,0.89484 13.138284,13.138284 0 0 0 1.04515,0.79509 13.138284,13.138284 0 0 0 1.1196,0.68693 13.138284,13.138284 0 0 0 1.18281,0.57174 13.138284,13.138284 0 0 0 1.23338,0.44953 13.138284,13.138284 0 0 0 1.27271,0.3259 13.138284,13.138284 0 0 0 1.29801,0.19526 13.138284,13.138284 0 0 0 1.31205,0.066 h 77.65539 a 13.138349,13.138349 0 0 0 0.76138,-0.0225 13.138349,13.138349 0 0 0 1.30644,-0.14047 13.138349,13.138349 0 0 0 1.28536,-0.27112 13.138349,13.138349 0 0 0 1.25024,-0.39895 13.138349,13.138349 0 0 0 1.20669,-0.52117 13.138349,13.138349 0 0 0 1.14629,-0.63917 13.138349,13.138349 0 0 0 1.07886,-0.75014 13.138349,13.138349 0 0 0 0.99738,-0.8541 13.138349,13.138349 0 0 0 0.90748,-0.94962 13.138349,13.138349 0 0 0 0.80774,-1.03531 13.138349,13.138349 0 0 0 0.70098,-1.10977 13.138349,13.138349 0 0 0 0.58578,-1.17579 13.138349,13.138349 0 0 0 0.46639,-1.22776 13.138349,13.138349 0 0 0 0.34135,-1.2685 13.138349,13.138349 0 0 0 0.21212,-1.2952 13.138349,13.138349 0 0 0 0.0829,-1.31064 13.138349,13.138349 0 0 0 -0.0492,-1.31346 13.138349,13.138349 0 0 0 -0.17981,-1.30081 13.138349,13.138349 0 0 0 -0.30905,-1.27553 13.138349,13.138349 0 0 0 -0.43407,-1.2404 h 17.69301 a 27.653861,27.653861 0 0 1 1.95684,0.0702 27.653861,27.653861 0 0 1 2.74351,0.33293 27.653861,27.653861 0 0 1 2.69714,0.60545 27.653861,27.653861 0 0 1 2.62411,0.87095 27.653861,27.653861 0 0 1 2.52295,1.12944 27.653861,27.653861 0 0 1 2.39793,1.37526 27.653861,27.653861 0 0 1 2.24763,1.60846 27.653861,27.653861 0 0 1 2.07764,1.82338 27.653861,27.653861 0 0 1 1.8838,2.02286 27.653861,27.653861 0 0 1 1.67307,2.20127 27.653861,27.653861 0 0 1 1.4441,2.35579 27.653861,27.653861 0 0 1 1.20247,2.48924 27.653861,27.653861 0 0 1 0.94822,2.59741 27.653861,27.653861 0 0 1 0.68413,2.67748 27.653861,27.653861 0 0 1 0.41299,2.73368 27.653861,27.653861 0 0 1 0.13767,2.76036 v 350.4888 a 27.653883,27.653883 0 0 1 -0.0688,1.95683 27.653883,27.653883 0 0 1 -0.33293,2.74351 27.653883,27.653883 0 0 1 -0.60546,2.69715 27.653883,27.653883 0 0 1 -0.87235,2.6241 27.653883,27.653883 0 0 1 -1.12803,2.52296 27.653883,27.653883 0 0 1 -1.37667,2.39793 27.653883,27.653883 0 0 1 -1.60705,2.24762 27.653883,27.653883 0 0 1 -1.82479,2.07765 27.653883,27.653883 0 0 1 -2.02286,1.88379 27.653883,27.653883 0 0 1 -2.19986,1.67307 27.653883,27.653883 0 0 1 -2.3572,1.4441 27.653883,27.653883 0 0 1 -2.48924,1.20248 27.653883,27.653883 0 0 1 -2.59601,0.94822 27.653883,27.653883 0 0 1 -2.67889,0.68411 27.653883,27.653883 0 0 1 -2.73226,0.41301 27.653883,27.653883 0 0 1 -2.76177,0.13767 H 285.81163 a 27.653883,27.653883 0 0 1 -1.95543,-0.0688 27.653883,27.653883 0 0 1 -2.74491,-0.33292 27.653883,27.653883 0 0 1 -2.69715,-0.60546 27.653883,27.653883 0 0 1 -2.6227,-0.87236 27.653883,27.653883 0 0 1 -2.52295,-1.12943 27.653883,27.653883 0 0 1 -2.39793,-1.37526 27.653883,27.653883 0 0 1 -2.24904,-1.60706 27.653883,27.653883 0 0 1 -2.07623,-1.82479 27.653883,27.653883 0 0 1 -1.88379,-2.02286 27.653883,27.653883 0 0 1 -1.67308,-2.19986 27.653883,27.653883 0 0 1 -1.4455,-2.3572 27.653883,27.653883 0 0 1 -1.20248,-2.48923 27.653883,27.653883 0 0 1 -0.94681,-2.59601 27.653883,27.653883 0 0 1 -0.68413,-2.67889 27.653883,27.653883 0 0 1 -0.41299,-2.73227 27.653883,27.653883 0 0 1 -0.13907,-2.76176 V 208.75222 a 27.653883,27.653883 0 0 1 0.0702,-1.95543 27.653883,27.653883 0 0 1 0.33293,-2.74491 27.653883,27.653883 0 0 1 0.60546,-2.69715 27.653883,27.653883 0 0 1 0.87095,-2.62269 27.653883,27.653883 0 0 1 1.12943,-2.52296 27.653883,27.653883 0 0 1 1.37527,-2.39793 27.653883,27.653883 0 0 1 1.60846,-2.24903 27.653883,27.653883 0 0 1 1.82338,-2.07624 27.653883,27.653883 0 0 1 2.02286,-1.88379 27.653883,27.653883 0 0 1 2.20127,-1.67308 27.653883,27.653883 0 0 1 2.35579,-1.4455 27.653883,27.653883 0 0 1 2.48924,-1.20248 27.653883,27.653883 0 0 1 2.59741,-0.94681 27.653883,27.653883 0 0 1 2.67748,-0.68412 27.653883,27.653883 0 0 1 2.73367,-0.413 27.653883,27.653883 0 0 1 2.76036,-0.13907 z"
     id="path2-7"
     inkscape:connector-curvature="0" />
</svg>
