<?xml version="1.0" encoding="UTF-8" standalone="no"?>
<svg
   xmlns:dc="http://purl.org/dc/elements/1.1/"
   xmlns:cc="http://creativecommons.org/ns#"
   xmlns:rdf="http://www.w3.org/1999/02/22-rdf-syntax-ns#"
   xmlns:svg="http://www.w3.org/2000/svg"
   xmlns="http://www.w3.org/2000/svg"
   xmlns:sodipodi="http://sodipodi.sourceforge.net/DTD/sodipodi-0.dtd"
   xmlns:inkscape="http://www.inkscape.org/namespaces/inkscape"
   id="a27520da-4319-485c-96d7-e776d7397e13"
   data-name="Layer 1"
   width="876.27165"
   height="661.47277"
   viewBox="0 0 876.27165 661.47277"
   version="1.1"
   sodipodi:docname="web1.svg"
   inkscape:version="0.92.4 (5da689c313, 2019-01-14)">
  <metadata
     id="metadata125">
    <rdf:RDF>
      <cc:Work
         rdf:about="">
        <dc:format>image/svg+xml</dc:format>
        <dc:type
           rdf:resource="http://purl.org/dc/dcmitype/StillImage" />
        <dc:title />
      </cc:Work>
    </rdf:RDF>
  </metadata>
  <defs
     id="defs123" />
  <sodipodi:namedview
     pagecolor="#ffffff"
     bordercolor="#666666"
     borderopacity="1"
     objecttolerance="10"
     gridtolerance="10"
     guidetolerance="10"
     inkscape:pageopacity="0"
     inkscape:pageshadow="2"
     inkscape:window-width="1280"
     inkscape:window-height="960"
     id="namedview121"
     showgrid="false"
     showguides="true"
     inkscape:guide-bbox="true"
     inkscape:zoom="0.35677961"
     inkscape:cx="273.99968"
     inkscape:cy="308.58301"
     inkscape:window-x="0"
     inkscape:window-y="27"
     inkscape:window-maximized="1"
     inkscape:current-layer="a27520da-4319-485c-96d7-e776d7397e13" />
  <path
     inkscape:connector-curvature="0"
     style="fill:#31bfff;fill-opacity:1;stroke-width:0.1;stroke-miterlimit:4;stroke-dasharray:none"
     d="M 739.70035,111.11925 H 132.70029 a 8.72766,8.72766 0 0 0 -8.71972,8.72 v 411.31998 a 8.72766,8.72766 0 0 0 8.71972,8.72 h 607.00006 a 8.71242,8.71242 0 0 0 6.6303,-3.06 2.04507,2.04507 0 0 0 0.19,-0.24 8.16654,8.16654 0 0 0 1.25,-2.11005 8.50717,8.50717 0 0 0 0.6597,-3.31 v -411.3199 a 8.72953,8.72953 0 0 0 -8.73,-8.72003 z m 6.2402,420.04 a 6.17524,6.17524 0 0 1 -1.0303,3.42 6.44578,6.44578 0 0 1 -2.3598,2.12 6.1843,6.1843 0 0 1 -2.8501,0.69 H 132.70029 a 6.23758,6.23758 0 0 1 -6.23,-6.23 V 119.83928 a 6.23758,6.23758 0 0 1 6.23,-6.23 h 607.00006 a 6.23945,6.23945 0 0 1 6.2402,6.23 z"
     id="path2" />
  <rect
     style="fill:#31bfff;fill-opacity:1"
     x="123.82176"
     y="144.66704"
     width="621.95679"
     height="2.49281"
     id="rect4" />
  <path
     inkscape:connector-curvature="0"
     style="fill:#31bfff;fill-opacity:1;stroke-width:3;stroke-miterlimit:8.30000019;stroke-dasharray:none"
     d="M 490.28386,425.58217 H 383.28385 c -9.38446,-0.0106 -16.98944,-7.61554 -17,-17 v -76 c 0.0106,-9.38446 7.61554,-16.98944 17,-17 h 107.00001 c 9.38446,0.0106 16.98944,7.61554 17,17 v 76 c -0.0106,9.38446 -7.61554,16.98944 -17,17 z m -107.00001,-106 c -8.28039,0.009 -12.99063,4.71961 -13,13 v 76 c 0.009,8.28039 4.71961,12.99063 13,13 h 107.00001 c 8.28039,-0.009 12.99063,-4.71961 13,-13 v -76 c -0.009,-8.28039 -4.71961,-12.99063 -13,-13 z"
     id="path14-6-9"
     sodipodi:nodetypes="cccccccccccccccccc" />
  <path
     style="fill:#31bfff;fill-opacity:1;stroke-width:1.20901334"
     d="m 735.77294,112.64355 c -2.21156,-0.16453 -4.83188,-0.15121 -7.93164,0.0645 H 142.7202 c -23.31167,-0.73356 -18.88334,9.49393 -18.89844,21.19922 v 10.75976 h 622.91798 v -10.75976 c -0.0131,-10.24215 4.51412,-20.11197 -10.9668,-21.26367 z m -565.50977,9.80468 a 7.2868299,6.7663422 0 0 1 0.72657,0.0352 7.2868299,6.7663422 0 0 1 0.7207,0.10156 7.2868299,6.7663422 0 0 1 0.70508,0.16602 7.2868299,6.7663422 0 0 1 0.68555,0.23242 7.2868299,6.7663422 0 0 1 0.65429,0.29492 7.2868299,6.7663422 0 0 1 0.6211,0.35352 7.2868299,6.7663422 0 0 1 0.58007,0.4082 7.2868299,6.7663422 0 0 1 0.53321,0.46094 7.2868299,6.7663422 0 0 1 0.48047,0.50781 7.2868299,6.7663422 0 0 1 0.42382,0.55078 7.2868299,6.7663422 0 0 1 0.36329,0.58594 7.2868299,6.7663422 0 0 1 0.29687,0.61719 7.2868299,6.7663422 0 0 1 0.23047,0.64258 7.2868299,6.7663422 0 0 1 0.1582,0.66015 7.2868299,6.7663422 0 0 1 0.0879,0.67188 7.2868299,6.7663422 0 0 1 0.0195,0.47851 7.2868299,6.7663422 0 0 1 -0.0371,0.67578 7.2868299,6.7663422 0 0 1 -0.10937,0.66797 7.2868299,6.7663422 0 0 1 -0.17969,0.65625 7.2868299,6.7663422 0 0 1 -0.25,0.63477 7.2868299,6.7663422 0 0 1 -0.3164,0.60937 7.2868299,6.7663422 0 0 1 -0.38086,0.57618 7.2868299,6.7663422 0 0 1 -0.44141,0.53906 7.2868299,6.7663422 0 0 1 -0.49609,0.49414 7.2868299,6.7663422 0 0 1 -0.54688,0.44726 7.2868299,6.7663422 0 0 1 -0.5918,0.39258 7.2868299,6.7663422 0 0 1 -0.63281,0.33594 7.2868299,6.7663422 0 0 1 -0.66406,0.27734 7.2868299,6.7663422 0 0 1 -0.69141,0.21289 7.2868299,6.7663422 0 0 1 -0.71093,0.14844 7.2868299,6.7663422 0 0 1 -0.72266,0.082 7.2868299,6.7663422 0 0 1 -0.51563,0.0156 7.2868299,6.7663422 0 0 1 -0.72851,-0.0332 7.2868299,6.7663422 0 0 1 -0.71875,-0.10156 7.2868299,6.7663422 0 0 1 -0.70703,-0.16797 7.2868299,6.7663422 0 0 1 -0.6836,-0.23047 7.2868299,6.7663422 0 0 1 -0.65625,-0.29492 7.2868299,6.7663422 0 0 1 -0.62109,-0.35351 7.2868299,6.7663422 0 0 1 -0.58008,-0.40821 7.2868299,6.7663422 0 0 1 -0.5332,-0.46289 7.2868299,6.7663422 0 0 1 -0.48047,-0.50781 7.2868299,6.7663422 0 0 1 -0.42383,-0.54883 7.2868299,6.7663422 0 0 1 -0.36133,-0.58789 7.2868299,6.7663422 0 0 1 -0.29882,-0.61719 7.2868299,6.7663422 0 0 1 -0.22852,-0.64062 7.2868299,6.7663422 0 0 1 -0.16016,-0.66016 7.2868299,6.7663422 0 0 1 -0.0879,-0.67187 7.2868299,6.7663422 0 0 1 -0.0176,-0.47852 7.2868299,6.7663422 0 0 1 0.0371,-0.67578 7.2868299,6.7663422 0 0 1 0.10743,-0.66797 7.2868299,6.7663422 0 0 1 0.18164,-0.65625 7.2868299,6.7663422 0 0 1 0.24804,-0.63476 7.2868299,6.7663422 0 0 1 0.31836,-0.60938 7.2868299,6.7663422 0 0 1 0.38086,-0.57617 7.2868299,6.7663422 0 0 1 0.43946,-0.53906 7.2868299,6.7663422 0 0 1 0.49609,-0.49414 7.2868299,6.7663422 0 0 1 0.54883,-0.44727 7.2868299,6.7663422 0 0 1 0.59179,-0.39258 7.2868299,6.7663422 0 0 1 0.63086,-0.33789 7.2868299,6.7663422 0 0 1 0.66602,-0.27539 7.2868299,6.7663422 0 0 1 0.69141,-0.21289 7.2868299,6.7663422 0 0 1 0.71093,-0.14844 7.2868299,6.7663422 0 0 1 0.72266,-0.082 7.2868299,6.7663422 0 0 1 0.51562,-0.0176 z m 22.48243,0.0742 a 7.2868299,6.7663422 0 0 1 0.72851,0.0332 7.2868299,6.7663422 0 0 1 0.71875,0.10156 7.2868299,6.7663422 0 0 1 0.70703,0.16797 7.2868299,6.7663422 0 0 1 0.6836,0.23047 7.2868299,6.7663422 0 0 1 0.65625,0.29492 7.2868299,6.7663422 0 0 1 0.62109,0.35351 7.2868299,6.7663422 0 0 1 0.58008,0.41016 7.2868299,6.7663422 0 0 1 0.53125,0.46094 7.2868299,6.7663422 0 0 1 0.48242,0.50781 7.2868299,6.7663422 0 0 1 0.42188,0.55078 7.2868299,6.7663422 0 0 1 0.36328,0.58594 7.2868299,6.7663422 0 0 1 0.29687,0.61719 7.2868299,6.7663422 0 0 1 0.23047,0.64257 7.2868299,6.7663422 0 0 1 0.16016,0.66016 7.2868299,6.7663422 0 0 1 0.0879,0.66992 7.2868299,6.7663422 0 0 1 0.0176,0.47852 7.2868299,6.7663422 0 0 1 -0.0371,0.67578 7.2868299,6.7663422 0 0 1 -0.10743,0.66992 7.2868299,6.7663422 0 0 1 -0.18164,0.6543 7.2868299,6.7663422 0 0 1 -0.25,0.63476 7.2868299,6.7663422 0 0 1 -0.3164,0.60938 7.2868299,6.7663422 0 0 1 -0.38086,0.57617 7.2868299,6.7663422 0 0 1 -0.43945,0.53906 7.2868299,6.7663422 0 0 1 -0.49805,0.4961 7.2868299,6.7663422 0 0 1 -0.54688,0.44531 7.2868299,6.7663422 0 0 1 -0.59179,0.39453 7.2868299,6.7663422 0 0 1 -0.63282,0.33594 7.2868299,6.7663422 0 0 1 -0.66406,0.27539 7.2868299,6.7663422 0 0 1 -0.6914,0.21289 7.2868299,6.7663422 0 0 1 -0.71094,0.14844 7.2868299,6.7663422 0 0 1 -0.72266,0.082 7.2868299,6.7663422 0 0 1 -0.51562,0.0176 7.2868299,6.7663422 0 0 1 -0.72657,-0.0352 7.2868299,6.7663422 0 0 1 -0.7207,-0.0996 7.2868299,6.7663422 0 0 1 -0.70508,-0.16797 7.2868299,6.7663422 0 0 1 -0.68554,-0.23242 7.2868299,6.7663422 0 0 1 -0.65625,-0.29297 7.2868299,6.7663422 0 0 1 -0.6211,-0.35351 7.2868299,6.7663422 0 0 1 -0.57812,-0.41016 7.2868299,6.7663422 0 0 1 -0.53321,-0.46094 7.2868299,6.7663422 0 0 1 -0.48046,-0.50781 7.2868299,6.7663422 0 0 1 -0.42383,-0.55078 7.2868299,6.7663422 0 0 1 -0.36328,-0.58594 7.2868299,6.7663422 0 0 1 -0.29688,-0.61719 7.2868299,6.7663422 0 0 1 -0.23047,-0.64257 7.2868299,6.7663422 0 0 1 -0.16015,-0.66016 7.2868299,6.7663422 0 0 1 -0.0859,-0.67188 7.2868299,6.7663422 0 0 1 -0.0195,-0.47851 7.2868299,6.7663422 0 0 1 0.0371,-0.67578 7.2868299,6.7663422 0 0 1 0.10937,-0.66797 7.2868299,6.7663422 0 0 1 0.17969,-0.6543 7.2868299,6.7663422 0 0 1 0.25,-0.63672 7.2868299,6.7663422 0 0 1 0.31641,-0.60937 7.2868299,6.7663422 0 0 1 0.38086,-0.57617 7.2868299,6.7663422 0 0 1 0.4414,-0.53711 7.2868299,6.7663422 0 0 1 0.4961,-0.4961 7.2868299,6.7663422 0 0 1 0.54687,-0.44531 7.2868299,6.7663422 0 0 1 0.5918,-0.39453 7.2868299,6.7663422 0 0 1 0.63281,-0.33594 7.2868299,6.7663422 0 0 1 0.66406,-0.27734 7.2868299,6.7663422 0 0 1 0.69141,-0.21289 7.2868299,6.7663422 0 0 1 0.71094,-0.14844 7.2868299,6.7663422 0 0 1 0.72265,-0.0801 7.2868299,6.7663422 0 0 1 0.51563,-0.0176 z m -44.78711,0.20703 a 7.2868299,6.7663422 0 0 1 0.72656,0.0332 7.2868299,6.7663422 0 0 1 0.7207,0.10156 7.2868299,6.7663422 0 0 1 0.70703,0.16797 7.2868299,6.7663422 0 0 1 0.6836,0.23047 7.2868299,6.7663422 0 0 1 0.65625,0.29492 7.2868299,6.7663422 0 0 1 0.62109,0.35352 7.2868299,6.7663422 0 0 1 0.57813,0.4082 7.2868299,6.7663422 0 0 1 0.5332,0.46289 7.2868299,6.7663422 0 0 1 0.48047,0.50781 7.2868299,6.7663422 0 0 1 0.42383,0.54883 7.2868299,6.7663422 0 0 1 0.36328,0.58789 7.2868299,6.7663422 0 0 1 0.29687,0.61719 7.2868299,6.7663422 0 0 1 0.23047,0.64062 7.2868299,6.7663422 0 0 1 0.16016,0.66016 7.2868299,6.7663422 0 0 1 0.0879,0.67187 7.2868299,6.7663422 0 0 1 0.0176,0.47852 7.2868299,6.7663422 0 0 1 -0.0371,0.67578 7.2868299,6.7663422 0 0 1 -0.10742,0.66797 7.2868299,6.7663422 0 0 1 -0.18164,0.65625 7.2868299,6.7663422 0 0 1 -0.25,0.63476 7.2868299,6.7663422 0 0 1 -0.31641,0.60938 7.2868299,6.7663422 0 0 1 -0.38086,0.57617 7.2868299,6.7663422 0 0 1 -0.43945,0.53906 7.2868299,6.7663422 0 0 1 -0.49805,0.49415 7.2868299,6.7663422 0 0 1 -0.54688,0.44726 7.2868299,6.7663422 0 0 1 -0.59179,0.39258 7.2868299,6.7663422 0 0 1 -0.63282,0.33789 7.2868299,6.7663422 0 0 1 -0.66406,0.27539 7.2868299,6.7663422 0 0 1 -0.6914,0.21289 7.2868299,6.7663422 0 0 1 -0.71094,0.14844 7.2868299,6.7663422 0 0 1 -0.72266,0.082 7.2868299,6.7663422 0 0 1 -0.51562,0.0176 7.2868299,6.7663422 0 0 1 -0.72656,-0.0352 7.2868299,6.7663422 0 0 1 -0.72071,-0.10156 7.2868299,6.7663422 0 0 1 -0.70703,-0.16602 7.2868299,6.7663422 0 0 1 -0.68359,-0.23242 7.2868299,6.7663422 0 0 1 -0.65626,-0.29492 7.2868299,6.7663422 0 0 1 -0.6211,-0.35352 7.2868299,6.7663422 0 0 1 -0.57812,-0.4082 7.2868299,6.7663422 0 0 1 -0.5332,-0.46094 7.2868299,6.7663422 0 0 1 -0.48047,-0.50781 7.2868299,6.7663422 0 0 1 -0.42383,-0.55078 7.2868299,6.7663422 0 0 1 -0.36328,-0.58594 7.2868299,6.7663422 0 0 1 -0.29688,-0.61914 7.2868299,6.7663422 0 0 1 -0.23047,-0.64062 7.2868299,6.7663422 0 0 1 -0.16015,-0.66016 7.2868299,6.7663422 0 0 1 -0.0859,-0.67187 7.2868299,6.7663422 0 0 1 -0.0176,-0.47852 7.2868299,6.7663422 0 0 1 0.0352,-0.67578 7.2868299,6.7663422 0 0 1 0.10937,-0.66797 7.2868299,6.7663422 0 0 1 0.18164,-0.65625 7.2868299,6.7663422 0 0 1 0.25,-0.63477 7.2868299,6.7663422 0 0 1 0.31446,-0.60937 7.2868299,6.7663422 0 0 1 0.38086,-0.57617 7.2868299,6.7663422 0 0 1 0.4414,-0.53907 7.2868299,6.7663422 0 0 1 0.4961,-0.49414 7.2868299,6.7663422 0 0 1 0.54882,-0.44726 7.2868299,6.7663422 0 0 1 0.58985,-0.39258 7.2868299,6.7663422 0 0 1 0.63476,-0.33594 7.2868299,6.7663422 0 0 1 0.66212,-0.27734 7.2868299,6.7663422 0 0 1 0.69336,-0.21289 7.2868299,6.7663422 0 0 1 0.70899,-0.14844 7.2868299,6.7663422 0 0 1 0.72265,-0.082 7.2868299,6.7663422 0 0 1 0.51563,-0.0156 z"
     id="path14-2"
     inkscape:connector-curvature="0" />
  <rect
     style="fill:none;fill-opacity:1;stroke:#31bfff;stroke-width:4.95115519;stroke-linejoin:round;stroke-miterlimit:4;stroke-dasharray:none;paint-order:fill markers stroke;stroke-opacity:1"
     id="rect818"
     width="621.32025"
     height="418.44696"
     x="125.20042"
     y="118.13229" />
  <rect
     style="fill:none;fill-opacity:1;stroke:#31bfff;stroke-width:3;stroke-linejoin:round;stroke-miterlimit:8.30000019;stroke-dasharray:none;stroke-opacity:1;paint-order:normal"
     id="rect822"
     width="575.39789"
     height="60.374645"
     x="147.33813"
     y="178.0365" />
  <path
     inkscape:connector-curvature="0"
     style="fill:#31bfff;fill-opacity:1;stroke-width:3;stroke-miterlimit:8.30000019;stroke-dasharray:none"
     d="M 674.60189,425.60026 H 567.60188 c -9.38446,-0.0106 -16.98944,-7.61554 -17,-17 v -76 c 0.0106,-9.38446 7.61554,-16.98944 17,-17 h 107.00001 c 9.38446,0.0106 16.98944,7.61554 17,17 v 76 c -0.0106,9.38446 -7.61554,16.98944 -17,17 z m -107.00001,-106 c -8.28039,0.009 -12.99063,4.71961 -13,13 v 76 c 0.009,8.28039 4.71961,12.99063 13,13 h 107.00001 c 8.28039,-0.009 12.99063,-4.71961 13,-13 v -76 c -0.009,-8.28039 -4.71961,-12.99063 -13,-13 z"
     id="path14-6-9-3"
     sodipodi:nodetypes="cccccccccccccccccc" />
  <path
     inkscape:connector-curvature="0"
     style="fill:#31bfff;fill-opacity:1;stroke-width:3;stroke-miterlimit:8.30000019;stroke-dasharray:none"
     d="M 304.30265,426.35737 H 197.30264 c -9.38446,-0.0106 -16.98944,-7.61554 -17,-17 v -76 c 0.0106,-9.38446 7.61554,-16.98944 17,-17 h 107.00001 c 9.38446,0.0106 16.98944,7.61554 17,17 v 76 c -0.0106,9.38446 -7.61554,16.98944 -17,17 z m -107.00001,-106 c -8.28039,0.009 -12.99063,4.71961 -13,13 v 76 c 0.009,8.28039 4.71961,12.99063 13,13 h 107.00001 c 8.28039,-0.009 12.99063,-4.71961 13,-13 v -76 c -0.009,-8.28039 -4.71961,-12.99063 -13,-13 z"
     id="path14-6-9-6"
     sodipodi:nodetypes="cccccccccccccccccc" />
</svg>
