<?xml version="1.0" encoding="UTF-8" standalone="no"?>
<svg
   xmlns:dc="http://purl.org/dc/elements/1.1/"
   xmlns:cc="http://creativecommons.org/ns#"
   xmlns:rdf="http://www.w3.org/1999/02/22-rdf-syntax-ns#"
   xmlns:svg="http://www.w3.org/2000/svg"
   xmlns="http://www.w3.org/2000/svg"
   xmlns:sodipodi="http://sodipodi.sourceforge.net/DTD/sodipodi-0.dtd"
   xmlns:inkscape="http://www.inkscape.org/namespaces/inkscape"
   id="b69cb715-0907-4046-81c0-e07628def35a"
   data-name="Layer 1"
   width="958.395"
   height="637.798"
   viewBox="0 0 958.395 637.798"
   version="1.1"
   sodipodi:docname="web2.svg"
   inkscape:version="0.92.4 (5da689c313, 2019-01-14)">
  <metadata
     id="metadata66">
    <rdf:RDF>
      <cc:Work
         rdf:about="">
        <dc:format>image/svg+xml</dc:format>
        <dc:type
           rdf:resource="http://purl.org/dc/dcmitype/StillImage" />
      </cc:Work>
    </rdf:RDF>
  </metadata>
  <defs
     id="defs64" />
  <sodipodi:namedview
     pagecolor="#ffffff"
     bordercolor="#666666"
     borderopacity="1"
     objecttolerance="10"
     gridtolerance="10"
     guidetolerance="10"
     inkscape:pageopacity="0"
     inkscape:pageshadow="2"
     inkscape:window-width="1920"
     inkscape:window-height="1016"
     id="namedview62"
     showgrid="false"
     inkscape:zoom="0.37002313"
     inkscape:cx="484.60258"
     inkscape:cy="318.89899"
     inkscape:window-x="0"
     inkscape:window-y="27"
     inkscape:window-maximized="1"
     inkscape:current-layer="b69cb715-0907-4046-81c0-e07628def35a" />
  <rect
     id="b0c98e14-1925-4936-b700-8389486832dc"
     data-name="Rectangle 62"
     x="-10.245298"
     y="50.130657"
     width="1006.0899"
     height="538.48224"
     style="fill:#e6e6e6;stroke-width:1.51868272" />
  <rect
     id="b68ecde8-71e2-4e37-9915-29330f01abce"
     data-name="Rectangle 75"
     x="4.0543647"
     y="87.227425"
     width="977.15167"
     height="480.07254"
     style="fill:#ffffff;stroke-width:1.51868272" />
  <rect
     id="e8db4df2-8ee7-43dc-8bde-94a4824e02e5"
     data-name="Rectangle 80"
     width="1006.0899"
     height="48.209675"
     x="-10.810135"
     y="18.917736"
     style="fill:#31bfff;stroke-width:1.51868272" />
  <g
     id="fb1c6b8a-0955-4e76-8223-9f33cff758ba"
     data-name="Group 80"
     transform="matrix(1.4299662,0,0,1.6129031,-10.810135,18.917737)">
    <rect
       id="f182cb2d-075c-4cee-9ba1-dc8adfb68bff"
       data-name="Rectangle 111"
       x="56.50399"
       y="97.778"
       width="232.802"
       height="157.058"
       style="fill:#ffffff" />
    <path
       id="bcba5beb-716d-4631-a3f1-0727bd6657d3"
       data-name="Path 709"
       d="m 410.68749,387.008 h -234.408 V 228.344 h 234.408 z m -232.8,-1.606 h 231.2 V 229.949 h -231.2 z"
       transform="translate(-120.8025,-131.101)"
       inkscape:connector-curvature="0"
       style="fill:#3f3d56" />
    <path
       id="f932a065-06b7-4cdf-83d6-7c97cd1dbf89"
       data-name="Path 710"
       d="m 197.11553,372.829 h 193.452 v -131.1 h -193.452 z"
       transform="translate(-120.8025,-131.101)"
       inkscape:connector-curvature="0"
       style="fill:#e6e6e6" />
    <g
       id="ecf65588-dc32-434f-852e-0af5885642fd"
       data-name="Group 55">
      <circle
         id="f52ba536-ee7f-40e0-9be2-a052cb8136e2"
         data-name="Ellipse 110"
         cx="131.26601"
         cy="179.15401"
         r="20.306"
         style="fill:#3f3d56" />
      <path
         id="b628c6f5-d4f4-4858-bd34-4c014918c956"
         data-name="Path 711"
         d="m 315.74349,372.833 h -99.613 a 2.02717,2.02717 0 0 1 -0.372,-0.03 l 47.112,-81.6 a 3.3,3.3 0 0 1 5.742,0 l 31.618,54.763 1.515,2.62 z"
         transform="translate(-120.8025,-131.101)"
         inkscape:connector-curvature="0"
         style="fill:#31bfff" />
      <path
         id="f233adae-7d2f-4068-80e4-6d04a9f9b275"
         data-name="Path 712"
         d="m 315.74349,372.83 h -34.011 l 16.7,-24.251 1.2,-1.747 0.6,-0.874 1.514,2.62 z"
         transform="translate(-120.8025,-131.101)"
         style="opacity:0.2;isolation:isolate"
         inkscape:connector-curvature="0" />
      <path
         id="b7d33c45-0595-4de3-9083-860e8be6bfda"
         data-name="Path 713"
         d="m 371.20754,372.831 h -86.157 l 16.7,-24.251 1.2,-1.747 21.756,-31.6 a 4.4,4.4 0 0 1 6.535,-0.391 3.92475,3.92475 0 0 1 0.313,0.391 z"
         transform="translate(-120.8025,-131.101)"
         inkscape:connector-curvature="0"
         style="fill:#31bfff" />
    </g>
  </g>
  <g
     id="a30f63cb-bc78-4650-9940-a4284081fdce"
     data-name="Group 26"
     transform="matrix(1.4299662,0,0,1.6129031,-10.810135,18.917737)">
    <path
       id="a98a124e-3787-4fab-85a3-89b8128d43e9"
       data-name="Path 45"
       d="m 495.65148,307.677 a 39.649,39.649 0 0 1 -39.666,-39.632 v -0.288 a 39.666,39.666 0 1 1 39.671,39.92 z m 0,-78.5 a 38.914,38.914 0 0 0 -38.826,38.6 v 0.227 a 38.836,38.836 0 1 0 38.845,-38.827 z"
       transform="translate(-120.8025,-131.101)"
       inkscape:connector-curvature="0"
       style="fill:#cccccc" />
    <g
       id="f6bbc1ed-5643-42a3-82b5-87ed10503463"
       data-name="Group 27">
      <circle
         id="aabd211e-9945-4333-9755-fa4b890167be"
         data-name="Ellipse 7"
         cx="357.50198"
         cy="128.056"
         r="8.5139999"
         style="fill:#31bfff" />
      <path
         id="f271b168-7c91-4b60-9d98-0e3973010936"
         data-name="Path 63"
         d="m 505.00249,285.393 h -41.766 a 0.84992,0.84992 0 0 1 -0.156,-0.013 l 19.755,-34.215 a 1.383,1.383 0 0 1 2.407,0 l 13.257,22.964 0.635,1.1 z"
         transform="translate(-120.8025,-131.101)"
         inkscape:connector-curvature="0"
         style="fill:#cacaca" />
      <path
         id="bf105c06-a11f-4136-b86d-a4e60d739436"
         data-name="Path 65"
         d="m 528.25749,285.393 h -36.125 l 7,-10.168 0.5,-0.733 9.122,-13.251 a 1.846,1.846 0 0 1 2.742,-0.164 1.64257,1.64257 0 0 1 0.131,0.164 z"
         transform="translate(-120.8025,-131.101)"
         inkscape:connector-curvature="0"
         style="fill:#cacaca" />
    </g>
  </g>
  <ellipse
     id="b25961f2-04b5-471b-8375-63fc1d048083"
     data-name="Ellipse 239"
     cx="26.554882"
     cy="43.119347"
     style="fill:#ffffff;stroke-width:1.51868272"
     rx="6.2174935"
     ry="7.0129032" />
  <ellipse
     id="e0ae52ce-30d2-47d7-9cd9-936448fa1255"
     data-name="Ellipse 240"
     cx="44.429447"
     cy="43.119347"
     style="fill:#ffffff;stroke-width:1.51868272"
     rx="6.2174935"
     ry="7.0129032" />
  <ellipse
     id="a1452965-a3bf-422b-8d64-ee8b2f8e7426"
     data-name="Ellipse 241"
     cx="62.304024"
     cy="43.119347"
     style="fill:#ffffff;stroke-width:1.51868272"
     rx="6.2174935"
     ry="7.0129032" />
  <g
     id="ab45d53e-b1f0-4c03-af47-648f4d456c24"
     data-name="Group 81"
     transform="matrix(1.4299662,0,0,1.6129031,-10.810135,18.917737)">
    <path
       id="acc17b87-6e67-425b-8932-43641ebcc687"
       data-name="Path 45-2"
       d="m 605.99251,307.677 a 39.649,39.649 0 0 1 -39.666,-39.632 v -0.288 a 39.666,39.666 0 1 1 39.671,39.92 z m 0,-78.5 a 38.914,38.914 0 0 0 -38.826,38.6 v 0.227 a 38.836,38.836 0 1 0 38.845,-38.827 z"
       transform="translate(-120.8025,-131.101)"
       inkscape:connector-curvature="0"
       style="fill:#cccccc" />
    <g
       id="a2cc8add-6efd-4920-b0ce-6d73dd962d83"
       data-name="Group 27-2">
      <circle
         id="aa9a4c61-6b20-4132-87eb-1689f68544dc"
         data-name="Ellipse 7-2"
         cx="467.84302"
         cy="128.056"
         r="8.5139999"
         style="fill:#31bfff" />
      <path
         id="bec16132-452e-4535-9c04-23459bf5a636"
         data-name="Path 63-2"
         d="m 615.34352,285.393 h -41.766 a 0.84981,0.84981 0 0 1 -0.156,-0.013 l 19.755,-34.215 a 1.383,1.383 0 0 1 2.407,0 l 13.257,22.964 0.635,1.1 z"
         transform="translate(-120.8025,-131.101)"
         inkscape:connector-curvature="0"
         style="fill:#cacaca" />
      <path
         id="f6bc28e7-d77e-4ad9-883f-0ef370cdf6a5"
         data-name="Path 65-2"
         d="m 638.59853,285.393 h -36.125 l 7,-10.168 0.5,-0.733 9.122,-13.251 a 1.846,1.846 0 0 1 2.742,-0.164 1.64257,1.64257 0 0 1 0.131,0.164 z"
         transform="translate(-120.8025,-131.101)"
         inkscape:connector-curvature="0"
         style="fill:#cacaca" />
    </g>
  </g>
  <g
     id="b008f90a-485c-47d7-9740-68c5509ab4de"
     data-name="Group 82"
     transform="matrix(1.4299662,0,0,1.6129031,-10.810135,18.917737)">
    <path
       id="bfe9e607-b29d-4804-aeb1-3628394a30ae"
       data-name="Path 45-3"
       d="m 716.33449,307.677 a 39.649,39.649 0 0 1 -39.666,-39.632 v -0.288 a 39.666,39.666 0 1 1 39.671,39.92 z m 0,-78.5 a 38.914,38.914 0 0 0 -38.826,38.6 v 0.227 a 38.836,38.836 0 1 0 38.845,-38.827 z"
       transform="translate(-120.8025,-131.101)"
       inkscape:connector-curvature="0"
       style="fill:#cccccc" />
    <g
       id="e28c6b75-f185-4232-8320-5d44236ab799"
       data-name="Group 27-3">
      <circle
         id="e90051d6-a94a-48d9-a554-c10510884661"
         data-name="Ellipse 7-3"
         cx="578.185"
         cy="128.056"
         r="8.5139999"
         style="fill:#31bfff" />
      <path
         id="a473ea89-341a-4b2a-8eda-942ae9a78b66"
         data-name="Path 63-3"
         d="m 725.6855,285.393 h -41.766 a 0.84981,0.84981 0 0 1 -0.156,-0.013 l 19.755,-34.215 a 1.383,1.383 0 0 1 2.407,0 l 13.257,22.964 0.635,1.1 z"
         transform="translate(-120.8025,-131.101)"
         inkscape:connector-curvature="0"
         style="fill:#cacaca" />
      <path
         id="f0f50ed7-15ea-465e-b400-fbead83840a6"
         data-name="Path 65-3"
         d="m 748.94051,285.393 h -36.125 l 7,-10.168 0.5,-0.733 9.122,-13.251 a 1.846,1.846 0 0 1 2.742,-0.164 1.64257,1.64257 0 0 1 0.131,0.164 z"
         transform="translate(-120.8025,-131.101)"
         inkscape:connector-curvature="0"
         style="fill:#cacaca" />
    </g>
  </g>
  <path
     id="e35adc19-8da5-4f63-beaa-9be31fb3c7a8"
     data-name="Path 139"
     d="m 474.16581,342.04675 a 5.6755468,6.4016245 0 0 0 -0.0196,12.80323 h 267.57781 a 5.6755384,6.401615 0 0 0 0,-12.80323 z"
     inkscape:connector-curvature="0"
     style="fill:#e6e6e6;stroke-width:1.51868272" />
  <path
     id="a02980ad-eb35-4ed6-8fb0-70f7a7373981"
     data-name="Path 140"
     d="m 474.16581,380.45643 a 5.6755448,6.4016223 0 0 0 -0.0196,12.80322 h 115.15055 a 5.6755448,6.4016223 0 1 0 0.0196,-12.80322 z"
     inkscape:connector-curvature="0"
     style="fill:#e6e6e6;stroke-width:1.51868272" />
  <path
     id="ecd4f684-9972-404e-a6cb-1953f0a217bf"
     data-name="Path 1285"
     d="m 476.14634,418.86611 c -4.22842,0 -7.65605,2.86612 -7.65605,6.40161 0,3.53548 3.43191,6.40161 7.65605,6.40161 h 155.30711 c 4.22841,0 7.65604,-2.86613 7.65604,-6.40161 0,-3.53549 -3.43192,-6.40161 -7.65604,-6.40161 z"
     inkscape:connector-curvature="0"
     style="fill:#e6e6e6;stroke-width:1.51868272" />
</svg>
